<svg id="xeho91-logo" role="img" aria-labelledby="xeho91-logo_title xeho91-logo_description" xmlns="http://www.w3.org/2000/svg" viewBox="0 0 1200 630" preserveAspectRatio="xMinYMin meet"><title id="xeho91-logo_title">xeho91&apos;s logo</title><desc id="xeho91-logo_description">It contains logotype painted in the style of
	quickly using a paintbrush on the wall. It&apos;s written &quot;xeho91&quot; here in
	capital letters.</desc><defs><rect id="xeho91-logo_background" width="1200" height="630"/><filter id="xeho91-logo_shadow" filterUnits="userSpaceOnUse"><feDropShadow dx="0" dy="5" stdDeviation="10" flood-color="hsla(0deg, 0% , 0%, 1)" flood-opacity="0.75"/></filter><symbol id="xeho91-logo_logomark"><g id="char_x"><path id="x-left" d="M 333.73 371.03 c -8.4034 -10.383 -26.402 -14.893 -31.261 -32.608 -4.578 -9.3715 -10.197 -18.04 -16.169 -27.488 -4.3535 -9.3352 -14.754 -17.041 -22.544 -20.657 -22.311 -15.726 -17.293 9.4181 -10.126 22.772 3.7943 5.9376 10.343 20.313 14.614 27.261.98434 14.749 19.929 15.853 21.02 23.176 13.978 5.4246 19.883 8.6044 36.112 12.397 5.4478.61722 11.273 2.3163 8.3541 -4.8514 z"/><path id="x-right" d="M 262.32 331.95 c -4.8902 11.736 -8.3487 19.142 4.0422 4.0421 -2.8181 -7.5383 -11.18 -11.129 -4.0422 -4.0421 z m -3.2339 -.26949 c -3.6304 -1.326 -1.3924 4.1996 0 0 z m -8.6235 16.439 c 11.62 -14.247 -.5767 -8.5769 0 .00025 z m 0 7.8154 c 3.2151.22952 -.92811 -4.2974 0 0 z m -5.9288 1.617 c -2.536 -11.38 -4.3645 12.283 0 0 z m -2.6949 9.7016 c 3.9376 1.1186 -.29761 -2.9945 0 0 z m 15.361 -9.7016 c -4.4033 -.9471.68883 4.0956 0 0 z m -1.617 -11.049 c -2.9468 -.24971.84392 3.519 0 0 z m -7.8154.53898 c -5.749 -.89961 1.1896 6.543 0 0 z m -9.4322 19.673 c 4.49 -1.4663 -5.7767 -4.1865 0 0 z m 46.622 -59.557 c .95357 6.4349 1.9387 -5.5422 0 0 z m 18.326 -27.488 c -4.1999 -1.0564 -.0746 2.6891 0 0 z m 37.19 17.248 c 6.6763.96805 1.5377 -4.4474 0 0 z m -103.75 68.992 c -2.9469 -.24972.84391 3.519 0 0 z m 72.491 -33.956 c -2.9468 -.24971.84392 3.519 0 0 z m 3.2339 -4.3119 c 2.0433 3.3925 2.4015 -4.7413 0 0 z m -39.885 56.863 c -3.3263.69812 1.1088 1.6837 0 0 z m -1.078.53899 c -.81463 -.73428 -.6744 1.1881 0 0 z m 52.012 -71.685 c -6.4912 10.168 5.8843 -.38028 0 0 z m -15.091 23.715 c 7.1464 -2.1838 4.6778 -13.737 0 .00038 z m -22.368 22.368 c -6.5497 9.9436 -12.668 23.061 -18.595 23.985 7.7455 2.4143 4.0068 19.839 -3.11 22.55 -.0641 3.1627 3.785 13.871 -.93232 13.561 -10.101 4.6353 -18.046 -5.8349 -23.075 -8.4216 -6.2736 -11.183 1.1958 -24.2 1.5159 -34.158 8.8369 -12.89 18.909 -17.794 19.302 -23.143 2.8826 -7.623 3.3939 14.664 -7.9837 20.717 7.6271 -7.069 13.409 -14.792 18.325 -26.41 -15.527 10.614 -4.6886 -19.64 2.1559 1.6168 15.164 5.305 -2.1369 26.985 10.51 9.1627 -3.8032 -2.3285.90121.21696 1.8868.53924 z m -32.339 6.4679 c 6.0284.4228 1.0592 -4.4843 0 0 z m -4.0424 7.8154 c 6.7589 -2.2428 -.65352 -11.181 0 -.31724 z m -5.1203 10.51 c 8.6712 -4.6715 -.19905 -6.8153 0 0 z m -.80847 1.8864 c 4.1999 1.0564.0746 -2.6891 0 0 z m -2.4254 3.5034 c 3.2151.2295 -.92812 -4.2974 0 0 z m 1.3474 21.829 c -3.2151 -.2295.92812 4.2974 0 0 z m 0 -4.0424 c -3.2151 -.2295.92812 4.2974 0 0 z m 0 -5.3898 c -7.4851 -4.1204 3.0255 6.6569 0 0 z m 2.6949 -12.127 c 1.2981 -8.4761 -6.9498 1.9203 0 0 z m .80847 12.127 c -3.2151 -.2295.92812 4.2974 0 0 z m 0 -10.51 c 3.0099.6977 -.0873 -3.7296 0 0 z m 2.6949 18.326 c 2.4714 -.0292 -.46654 -5.9285 0 0 z m 0 -3.2339 c .25519 -7.2431 -4.8726 -1.096 0 0 z m 0 -8.6235 c -3.2151 -.22952.92811 4.2974 0 0 z m -1.8864 4.0424 c 3.6086 1.5423 1.6082 -4.4891 0 0 z m 2.6949 14.822 c -1.2097 -2.9481 -4.3938 -.72684 0 0 z m .80847 -28.297 c -3.7425 1.5247 1.4033 5.6049 0 0 z m 4.3119 -12.127 c -10.302.90995 -6.4633 22.454 -2.7286 3.234l2.7286 -3.2339 z m 5.1203 -7.546 c -3.2151 -.2295.92812 4.2974 0 0 z m 13.475 -11.318 c 3.7226 1.3764.47998 -4.4779 0 0 z m -2.4254 -2.6949 c 3.9369 1.229.44111 -2.7201 0 0 z m -5.1203 7.0066 c 4.5808 1.1648 -.50581 -3.9173 0 0 z m -3.5034 6.4679 c -3.2151 -.2295.92812 4.2974 0 0 z m 5.1203 28.835 c -2.9468 -.24971.84392 3.519 0 0 z m 3.2339 -36.381 c -2.832 -1.7957 -8.0152 8.6064 -6.7373 15.361 5.6501 -7.897 3.2412 -7.3523 6.7373 -15.361 z m .80847 -.26949 c 8.8212.0387 -3.2566 -5.5782 0 0 z m 1.8864 16.169 c -3.7332 -1.5112 -1.3894 4.5194 0 0 z m 2.9644 -6.7373 c -8.8841 10.36.21166 5.4377 0 0 z m 34.495 -39.346 c -2.6926 -4.4555 -2.1899 5.4172 0 0 z m -16.169 -27.488 c -1.7456 -3.8394 -4.0748 5.201 0 0 z m 52.012 -16.439 c 14.798 2.3663 -12.186 8.1708 -11.318 10.241 10.089 -3.3753 -6.5582 13.073 -3.2339 5.7941 -5.5844 6.4232 -13.162 18.714 -20.751 17.113 -2.831 -8.0833 -.66409 20.384 -8.0848 13.031 -4.7632 2.8943 -22.887 -21.042 -1.5478 -25.654 12.172 -10.323 10.777 -16.64 -1.679 -2.0753 -2.5189 13.013 -18.254 7.4313 -10.247 6.6129 6.1822 -1.843 24.981 -23.276 5.9288 -11.049 -2.2613 -3.2263 -11.685 9.7962 -8.8932 -1.617 1.8579 -12.239 19.885 -18.11 24.254 -25.871 12.326 -10.552 29.363 2.5592 31.344 6.7966 -8.8888 1.7262 19.888 6.2115 4.2288 6.6781 z m -56.054 11.858 c -3.8134 -6.1766 -3.1154 3.3087 0 0 z m .53898 -4.0424 c -3.2151 -.2295.92812 4.2974 0 0 z m 5.1203 -2.9644 c -4.1999 -1.0564 -.0746 2.6891 0 0 z m 4.3119 2.9644 c -9.058 1.745 1.594 4.886 0 0 z m 5.1203 0 c -4.3232 -1.1284 1.3406 5.7914 0 0 z m 2.4254 -6.1983 c -4.6872 -3.47 -1.9025 11.724 0 0 z m -10.241 26.14 c 3.5952 1.5064 1.5809 -4.3979 0 0 z m -1.617 4.0424 c 4.7994.63091 -.59427 -4.9141 -1.0443 -.60636 z m 7.0066 1.3474 c -10.953 2.0179 -8.9851 14.843 0 0 z m 20.212 -22.098 c 6.4977 -.5442 -1.4417 -3.762 0 0 z m -1.617 -15.631 c -7.2929 -5.1368 -20.091 13.397 0 0 z m -4.3119 19.403 c -.72558 6.7013 8.0395 -6.9131 0 0 z m -10.241 13.205 c -4.1999 -1.0564 -.0746 2.6891 0 0 z m 1.8864 -2.1559 c -5.9016.41026.49273 3.4192 0 0 z m 7.546 -8.8935 c -8.163 3.8953 -11.528 14.863 0 0 z m -2.4254 10.78 c -3.9784 -.89806 -.46267 2.0168 0 0 z m 1.3474.26949 c -3.2151 -.2295.92812 4.2974 0 0 z m 2.4254 -4.3119 c 6.9226 -9.4151 -6.887 11.232 0 0 z m 8.0848 -2.1559 c -2.1608 -2.5812 -5.4473 1.2765 0 0 z m 2.6949 -7.0066 c -10.574 1.3566 -5.858 10.015 0 0 z m 7.546 -1.617 c 2.6814 -.84116 -1.1106 -1.4918 0 0 z m -4.3119 -1.078 c -4.4428.31396 1.023 3.1608 0 0 z m 3.2339 -22.907 c -6.7742 -2.7714 -3.3583 5.5885 0 0 z m -32.608 61.983 c 2.0793 11.909 10.071 -2.1397 0 0 z m -51.203 40.154 c 4.4033.9471 -.68883 -4.0956 0 0 z m -22.368 13.744 c 1.5402 5.2747 3.8568 -1.8512 0 0 z m 3.2339 -6.4679 c 8.1516 -10.376 -7.9069 -4.6972 -.80847 -1.078 z m 4.3119 -8.8935 c 22.031 -4.4049 -11.274 -3.013 0 0 z m 4.5814.26949 c .20111 -3.1747 -4.7901 1.0553 0 0 z m -6.1983 1.8864 c -1.1801 5.5622 5.9418.17001 0 0 z m -4.0424 16.708 c 4.4033.9471 -.68884 -4.0956 0 0 z m 47.43 -15.9 c .89672 6.269 5.5646 -7.5537 0 0 z m -46.892 10.78 c 1.248 7.0948 3.9764 -6.4251 0 0 z m 45.005 -6.7373 c -1.2844 3.8459 4.8568.3042 0 0 z m 4.5814 -6.7373 c 1.9354 3.1416 1.8429 -5.0705 0 0 z m -3.5034 1.8864 c -4.4947 -.51633 -2.2573 4.5006 0 0 z m -40.962 14.013 c -7.2786.41783 1.325 11.135 0 0 z"/></g><g id="char_e"><path id="e-left" d="M 390.33 304.46 c -8.1674 -4.1905 -1.9006 -7.9012 -14.005 -7.4573 -15.603 6.1478 -23.845 29.97 -16.717 43.839 1.5232 10.98 9.6469 17.207 6.4528 23.147 8.1507 5.9498 19.762 -10.595 18.071 -25.572 3.8446 -10.786 1.7147 -22.78 6.1982 -33.956 z"/><path id="e-bottom" d="M 466.86 360.78 c 4.9598 -9.9532 -18.926 -22.112 -31.133 -17.205 -13.211 -.2981 -15.333 1.312 -25.999 -.58174 -6.1533 2.178 -21.906 3.9447 -9.2134 4.2155 14.246 -2.015 25.437.59731 2.9602 1.566 -14.757 1.1406 -29.328 6.4262 -40.227 15.458 17.438 -2.0774 2.3402 2.5079.32972 5.1031 -1.8582 -.8975 -14.261 1.4316 -9.6343 6.5352 -16.622 15.149 5.8367 -2.9384 -.28622 3.8572 -12.61 5.8016 -4.6124 16.032 -1.3304 9.3481 5.929 6.5341 2.0974 -7.6938 14.014 -8.3542 -18.822 18.066 10.668 -.41724 10.59 -.58666 -6.0932 6.31 25.665 -8.061 34.022 -7.2095 17.711 -3.3433 34.951 -2.9144 52.943 -4.0618 -9.3915 -5.7263 7.2773 -1.7594 4.4149 -7.689 z m -114.8 22.368 c -.2435 -3.2142 3.8528 -1.1539 0 0 z m 1.8864 5.3898 c -3.1422 -.74749 1.3417 -2.6083 0 0 z m 2.6949 -2.4254 c -2.9067 -.38158 1.476 -5.052 0 0 z m 1.8864 -1.8864 c -2.8316 -.44047 1.7339 -3.024 0 0 z m 2.9644 -1.3475 c -3.1481.66424 -.21666 -3.7438 0 0 z m 0 5.6593 c -2.4715 -.27846.72244 -3.4556 0 0 z m 3.2339 -1.3475 c -3.0093 -.76995 1.0082 -5.5237 0 0 z m 16.708 -16.439 c 4.7621 -.70574 -.31712 3.8609 0 0 z m -5.3898 2.6949 c 3.7858 -.1636 -1.2243 2.886 0 0 z m -9.9709 -3.5034 c 2.2766.11608 -.53112 3.0272 0 0 z m -1.078 1.617 c 4.1363 -.89259 -1.0395 2.9607 0 0 z m 2.4254 12.127 c -2.9374 -.63568 1.4632 -3.3911 0 0 z m -3.5034 -4.0424 c 5.5961 -6.3742 13.492 -3.3428 0 0 z m 5.3898 3.5034 c -2.9374 -.63568 1.4632 -3.3911 0 0 z m 3.5034 -4.8508 c -9.1126 7.4103 -3.2709 -2.5827 0 0 z m 11.588 -1.8864 c -8.6024 -1.0492 -5.0035 5.0382 -11.049 2.1559 4.4424 -3.6285 17.243 -10.172 11.049 -2.1559 z m 1.8864 -.26949 c -3.8117.35379 1.2635 -2.303 0 0 z m 5.9288 -22.637 c -3.8886 -.2203 1.2362 -1.8824 0 0 z m 14.013 -1.3475 c -4.0639 -.0689 1.4185 -2.3348 0 0 z m 14.822 16.708 c -13.587 6.2266 -6.6768 -3.5938 0 0 z m 1.8864.80847 c -1.8463 -2.8955 4.906 -.57143 0 0 z m 1.3475 -2.9644 c -5.7287.0137.97659 -2.6408 0 0 z m 6.7373 1.3475 c -5.513 -.55817 -.4787 -3.085 0 0 z m 1.8864.53898 c -3.721.94251.16238 -3.3657 0 0 z m 2.1559 -.26949 c -3.9029.70296.28243 -2.2616 0 0 z m 8.3541 0 c -2.565 -1.3905 2.1874 -2.1536 0 0 z"/><path id="e-middle" d="M 451.23 323.87 c -9.0295 -13.017 -12.342 -18.975 -23.715 -21.29 -16.669 -3.8819 -28.148 -1.0374 -40.424 7.0068 -4.4364 17.11 1.5733 21.758 11.588 23.985 -.91038 5.6213 20.634 -8.5337 26.868 -5.4356 5.7557 -2.5298 10.212 -2.4104 17.598 1.6628 1.6571 -4.5975 11.076 1.1494 8.0852 -5.9289 z m -52.012 7.276 c -3.8117.35376 1.2635 -2.303 0 0 z m 3.5034 -.53899 c -3.721.94251.16238 -3.3657 0 0 z"/><path id="e-top" d="M 365.8 297.46 c 3.027 2.5644 -5.6103 1.1835 0 0 z m 8.6235 -3.7729 c -.59865 8.0913 -12.032.24483 0 0 z m -2.6949 -7.276 c 4.5797 -.6254 -2.1638 4.7133 0 0 z m 2.4254 -4.0424 c 5.5152.87506 -8.9867 2.8065 0 0 z m .80847 2.6949 c 2.4715.27846 -.72244 3.4556 0 0 z m 30.183 -2.9644 c 11.536 2.1309 -19.544 7.4168 -27.953 11.874 -6.4885 -5.5774 19.791 -4.3933 26.336 -11.874 -6.5118 1.6811 -1.1555 -1.539 1.6173.00013 z m -21.559 -2.1559 c -1.9578 5.3041 -6.4511 -1.1803 0 0 z m -1.3474 -5.9288 c 5.8082 1.7668 -1.9925 3.3644 0 0 z m 2.6949 9.9709 c 4.3534 3.3414 -6.843 1.2431 0 0 z m 0 -1.8864 c 3.5895 1.1496 -5.609 2.1175 0 0 z m 0 -7.8154 c 4.2917 -1.0855 -1.5218 3.538 0 0 z m 3.2339 4.0424 c .94091 2.4938 -4.5037.0957 0 0 z m .53898 7.276 c 1.3538 2.8565 -4.7494.50817 0 0 z m 7.546 -8.8935 c 1.0916 2.9364 -13.509 1.7391 0 0 z m -4.8508 2.1559 c 7.996 -.29117 -1.5468 4.9136 0 0 z m .2695 -13.744 c 3.0606 -.20149 -1.6602 3.428 0 0 z m 2.9644 2.6949 c -2.3033 3.8436 -4.2647 -.69017 0 0 z m 0 13.475 c 3.7858 -.16362 -1.2243 2.886 0 0 z m 0 2.6949 c 3.9029 -.70296 -.28242 2.2616 0 0 z m 3.7729 -17.786 c 7.9733.99461 -8.7215 4.6956 0 0 z m -1.617 4.0424 c 4.1955 -.87449 -1.24 3.987 0 0 z m 2.9644 5.6593 c 3.9194 1.477 -2.8582 2.4211 0 0 z m .26949 4.0424 c 5.1046 -.4053 -.75224 3.2344 0 0 z m 4.5814 -14.553 c -.40493 4.0745 -6.7605 -.46494 0 0 z m 45.275 -10.241 c 7.8918 -.65868 24.313 17.483 15.092 17.517 -1.7442 8.8832 -16.297 -.97598 -20.632 3.0353 -.47081 -2.8235 -3.1566 -5.8724 -5.6036 -2.1158 1.2469 5.027 -7.2906 -3.1045 -11.763 1.7753 -1.2499.0418 -2.6706 -.85842 -3.7729 -3.2339 -11.127 2.1093 -3.8658.28281 -4.2587 5.529 -8.7308 -.75282.40784.0608 -10.166 -1.7134 -13.32.85999 22.564 -10.535 1.1183 -7.1141 -14.964 -.10846 9.3086 -3.3251 9.8028 -9.6371.41101 4.1962 2.794 1.8723 7.5458 -.80847 -17.285 2.733 2.6312 -.91986 3.7731 -3.7729 12.479.3523.70856.87448 18.864.53873 z m -42.849 9.4322 c 5.0448 -.38951 -.55155 3.5549 0 0 z m .80847 5.9288 c 3.9507 -.88721 -.34345 4.7286 0 0 z m .53899 7.0066 c 5.7186 -.247 -1.5051 2.8568 0 0 z m 6.4679 1.3475 c 14.551 1.9552 -12.027 7.1654 -2.6949.80847 z m -2.6949 -6.1983 c -7.5925 4.0225 6.5757 3.1705 0 0 z m 0 6.7373 c .39744 2.8477 -4.1391 -.0539 0 0 z m -1.078 -21.021 c 3.8147 -.89944 -.25042 4.0308 0 0 z m 3.5034 0 c 4.2737 -1.0124.52238 4.9832 0 0 z m .53899 6.7373 c 1.625 4.0828 2.4246 -4.0116 0 0 z m .53898 3.5034 c 3.3471 4.3847 9.9966 -2.8077 1.617.26949 z m 1.8864 -4.0424 c 3.4158 1.6182 2.6936 -3.354 0 0 z m 2.6949 -.80847 c -.92809 4.379 5.6699 -2.9384 0 0 z m 4.0424 14.283 c 23.184 -2.4728 -17.467 5.6812 0 0 z m -3.2339 -2.6949 c 4.8781 -.14931 -.65944 3.2616 0 0 z m 3.5034 -8.6235 c -1.5898 3.9749 2.386.7607 0 0 z m .53899 -12.666 c 4.2774.13205 -1.5233 3.9992 0 0 z m 1.6169 18.595 c -1.4632 3.3911 2.9374.63567 0 0 z m 1.8864 -14.283 c -1.1 2.291 3.8138 -.79437 0 0 z m .80848 20.212 c 7.3084.65332 -3.676 3.0604 0 0 z m 2.4254 -8.0847 c 1.2445 2.8234 4.9326 -.99404 0 0 z m 3.7729 -.26949 c -1.8538 2.854 3.8977 -.68585 0 0 z m .26949 1.8864 c -1.5438 4.3976 2.3693 -.17696 0 0 z m .26949 -4.8508 c -.6051 2.649 4.0908 -.0554 0 0 z m 2.6949 10.241 c 4.2762 -.4299 -1.2626 2.8899 0 0 z m .80847 -7.276 c -1.4632 3.3911 2.9374.63568 0 0 z m 5.1203 4.0424 c 2.3866 2.5514 2.1564 -3.5632 0 0 z m 4.5814 1.3474 c -.23527 3.0912 -8.533 1.0413 0 0 z m 5.3898 -2.6949 c -1.3335 2.864 4.4336.0785 0 0 z m 2.6949 1.078 c -.78199 3.2565 4.2564 -1.2424 0 0 z m 7.0066 -4.0424 c -.60511 2.649 4.0908 -.0554 0 0 z"/></g><g id="char_h"><path id="h-left" d="M 523.18 326.83 c 3.8675 -12.955 1.7722 -21.673 5.3915 -35.528 2.0518 -13.412 -7.8528 -24.765 -16.98 -28.61 -9.9876 8.3169 -5.18 -8.0838 -12.397 1.3475 -8.8773 11.638 -8.4898 27.651 -13.331 43.881 -4.4067 21.915 -7.6005 44.74 -.41353 66.072 2.2247 -7.2883 14.813 12.381 17.021 7.4048 8.8296 9.4367 11.364 -4.7797 11.916 -12.659 3.3196 -12.945 7.0598 -26.574 8.7922 -41.906 z m -7.546 23.176 c -2.7875.17661.77178 -3.7915 0 0 z m -27.758 -9.7016 c 6.6198 -2.7964.86018 3.7723 0 0 z m 6.4679 16.439 c -3.2151.2295.92812 -4.2974 0 0 z m 18.595 -74.11 c .72567 4.988 -3.6772.51329 0 0 z m -3.5034 4.8508 c 6.3064 -4.4974 -1.7785 13.956 0 0 z m -6.1983 13.744 c .79735 7.0566.30903 2.0344 0 0 z m -2.1559 11.858 c 3.3418 -.0852 -1.7576 4.12 0 0 z m -6.4679 1.617 c 3.2151 -.2295 -.92812 4.2974 0 0 z m -.80848 2.4254 c 3.3418 -.0852 -1.7576 4.1199 0 0 z m -.26949 2.6949 c 2.7874 -.1766 -.77178 3.7915 0 0 z m -4.0424 55.515 c -1.4381 -4.3555 5.1018 1.2528 0 0 z m 26.14 -22.907 c -3.2151.2295.92812 -4.2974 0 0 z"/><path id="h-middle" d="M 556.06 319.82 c 24.269 -6.776 -9.6096 -3.4101 -15.092 -3.4556 12.136 -2.2241 27.191 -7.5097 10.241 -5.1681 -6.804 1.5642 -11.417 1.6545 -9.1627 -2.6949 24.211.2543 9.7158 -5.1969 -5.6961.17527 -18.008 5.16 -54.825 11.227 -55.272 36.522 -4.9911 33.675 32.669 3.7285 47.616.0233 20.353 -4.212 18.278 -11.954 12.914 -10.85 3.5988 -7.0623 30.848 -5.7464 14.451 -14.553 z m -65.485 21.559 c -6.3816 3.6282 1.3952 -5.2416 0 0 z m 3.7729 15.361 c -3.2151.2295.92812 -4.2974 0 0 z m 21.29 -6.7373 c -2.7874.1766.77177 -3.7915 0 0 z m 20.212 -36.92 c -6.2835 6.4831 -9.5645 -4.9824 0 0 z m 4.5814 4.3119 c -3.2151.2295.92812 -4.2974 0 0 z m 5.9288 6.7373 c 5.6418 -.74166.44884 2.6934 0 0 z m 3.2339 5.1203 c -4.1999 1.0564 -.0746 -2.6891 0 0 z m 4.5814 -5.3898 c -6.132.24491.10225 -6.1503 0 0 z"/><path id="h-right" d="M 563.88 408.49 c -1.1491 5.8864 -3.755 -18.591 0 -.00012 z m 11.588 -32.878 c -1.4302 -6.7308 -5.8409 25.116 -1.2001 12.691 -.67617 -4.229 3.365 -8.7979 1.2001 -12.691 z m 42.041 -109.42 c 4.6274 6.6841 -2.2322 21.378 -5.6212 31.991 1.1164 8.9782 -.87432 9.9722 -4.6196 14.9 5.0257 3.7799 -1.5491 5.6769.10105 13.677 -2.1212 4.488 -2.1905 8.2138 -4.9519 17.989 -1.6406 12.331 -1.0632 15.616 -4.8508 26.006 -3.3032 15.184 -3.0909 -3.2459 -3.8739 -.25264.8136 15.438 -3.582 12.327 -7.2384 27.61 -1.9497 5.996 -12.796 8.8517 -10.346 3.5667 9.9928.51311 4.9114 -3.8953 3.723 -6.2353 -4.9669 -3.4644 -.94705 -11.873.21827 -15.257.38809 -14.548 7.2757 -29.529 4.3119 -42.041 1.0632 -16.551 9.7772 -19.131 8.0847 -25.332 -9.2062 -8.8986 -5.4112 21.137 -10.679 31.733 -.36021 10.454 -5.066 28.355 -8.1858 11.386 -4.1539 11.787 9.1184 11.632 1.3475 14.014 -7.8874 -.95732 -1.7958 27.38 -8.3542 8.8936 5.5223 8.213 -8.5639 10.24 -3.9076 11.891 8.2289 -.44936 1.9842 10.953 -1.2127 4.5477 -3.9147 10.774 -1.3909 20.633 -2.8297 30.622 -.77606 16.008 -6.109 11.855 -4.9855 -.3905 -.30081 -27.958 3.9781 -54.898 9.7733 -81.506 -2.812 -11.765 6.4876 -22.87 1.8148 -24.452 6.3318 -7.873 4.9183 -13.829 8.7574 -28.996 1.7047 -13.912 12.703 -44.811 26.35 -37.98 2.1945 -.94538 26.837 6.2163 17.174 13.616 z m -60.905 154.69 c -5.9402 1.7595 2.6909 4.959 0 0 z m 21.559 -107.8 c -4.568 1.4417 4.4079 4.926 0 0 z m .80847 3.2339 c -3.6363 -1.9682 -1.3962 4.1681 0 0 z m -1.617 2.1559 c -2.9071 8.5488 4.346 -.25501 0 0 z m -.53898 -14.013 c 2.7227 1.2191 -.68507 -4.0798 0 0 z m -1.3475 11.588 c 3.2151.22952 -.92811 -4.2974 0 0 z m -1.3474 17.786 c 4.8052 3.0379.44413 -13.926 0 0 z m -1.617 -1.8864 c 3.1337.31172 -.67998 -3.9295 0 0 z m -2.9644 6.7373 c 5.7129 1.3537.35946 -2.614 0 0 z m 0 4.3119 c 4.6522 2.3397.50997 -8.7868 0 0 z m -4.5814 36.651 c -5.7129 -1.3537 -.35944 2.614 0 0 z m 1.617 -5.3898 c -.13537 -16.56 -7.0397 12.816 -.26949 0 z m 1.3475 -16.439 c -3.5074 -4.045 -.0971 12.253.20212.94322 z m 2.1559 -7.0066 c -6.858 -3.9155.36187 7.9546 0 0 z m .26949 -2.6949 c -3.2151 -.22952.92811 4.2974 0 0 z m .26949 14.822 c -1.5267 4.4525 5.9189 1.8941 0 0 z m 1.8864 -10.51 c -4.783 -1.2662 -.39311 6.2674 0 0 z m 1.3475 -12.666 c -3.2151 -.22952.92811 4.2974 0 0 z m 2.4254 7.276 c -1.948 -3.5972 -1.0148 16.927.80847 2.2037.29381 -.89058 -.39238 -1.5097 -.80847 -2.2037 z m 4.0424 -17.786 c -5.9423 6.1046 -9.0118 7.4013 -1.7854 13.239.98556 -4.2885.49393 -8.9093 1.7854 -13.239 z m 1.3475 -7.276 c -6.6572 -1.4806.93123 7.2378 0 0 z m 0 -4.8508 c -1.0306 -12.464 -2.2754 14.159.25749.68665 z m 2.1559 -17.517 c -1.2567 5.9189 -.33037 1.1738 0 0 z m 2.4254 -9.1628 c -2.4667 7.0773 -.17078.36522 0 0 z m -1.3475 101.06 c -.88816 -13.097 -5.2354 5.6185 0 0 z m 2.4254 -32.339 c -2.9511 -.43441.0151 4.5403 0 0 z m 1.617 -23.176 c -4.651 -1.3316.12779 2.8334 0 0 z m .26949 -.80847 c 1.2567 -5.919.33037 -1.1738 0 0 z m 2.1559 43.927 c -3.0318 -2.1103 -2.2817 5.2455 0 0 z m .2695 -37.998 c -3.8414 -1.4087 -.84928 2.701 0 0 z m -1.617 -36.651 c -2.7227 -1.2191.68507 4.0798 0 0 z m 2.1559 -12.396 c -4.7854 10.436 -.45442 19.848 0 0 z m 1.078 -4.5814 c -5.7558 6.0438 2.2518 6.7108 0 0 z m 4.8508 74.648 c -1.0298 -12.399 -2.5123 4.3704 0 0 z m .80847 -7.276 c -.5684 -11.11 -6.1473 -.23229 0 0 z m 2.1559 -5.1203 c -4.1999 -1.0564 -.0746 2.6891 0 0 z m 0 -5.9288 c -2.3492 -6.0214 -2.6258 5.3138 0 0 z m 2.1559 -10.51 c -6.9445 -6.5717 -2.932 10.874 0 0 z m 2.1559 -15.631 c -3.6173 -1.6359 -1.5442 4.5633 0 0 z m 1.078 -5.9288 c -2.9784 -4.5839 -1.8704 3.0139 0 0 z m 2.1559 -37.729 c 1.5715 -4.3272 -5.0452 1.4714 0 0 z m -.26949 33.956 c -.60212 3.6054 4.7416 -.71365 0 0 z"/></g><g id="char_o"><path id="o-left" d="M 630.42 352.44 c 2.9198 10.435 11.987 27.8 26.41 28.566 17.53 -8.0629 11.557 -25.037 9.1625 -30.722 2.2637 -9.0656.73185 -19.988 3.2339 -26.68.63438 -18.604 28.496 -26.348 23.272 -37.132 -7.1498 -9.3162 -27.359 -.87141 -25.967 -10.568 -13.023 -.46728 -30.876 44.978 -28.566 32.339 -7.9017 4.2809 -8.1763 30.765 -7.5455 44.197 z m 47.161 -52.012 c 1.4632 3.3911 -2.9374.63567 0 0 z m -1.617 4.0424 c -3.8311 2.2704.39672 -4.0574 0 0 z m -2.9644 -18.326 c 3.8894 -1.8126 -.25669 3.0505 0 0 z m -10.241 50.395 c -5.1317 1.6252 2.6772 -4.5854 0 0 z m -1.078 -4.8508 c 2.886 -1.2243 -.1636 3.7858 0 0 z m .80848 -1.078 c -1.4632 -3.3911 2.9374 -.63568 0 0 z m 1.617 -4.0424 c 2.1204 -4.4148 4.3478.52563 0 0 z m 4.3119 -12.127 c 1.2492 3.1869 -4.5465 -.26024 0 0 z m -.80848 4.3119 c 1.4633 3.3911 -2.9374.63573 0 0 z m -.80847 4.0424 c 1.2492 3.1869 -4.5465 -.26023 0 0 z m -4.3119 -40.154 c 1.0676 -3.2213 4.6037 -.59067 0 0 z m 0 13.205 c 1.2492 3.1869 -4.5465 -.26026 0 0 z m -2.6949 52.012 c 1.4633 3.3911 -2.9374.6357 0 0 z m -19.134 -22.637 c -.74004 -7.3233 4.0575 -.001 0 0 z m 4.5814 18.056 c 2.886 -1.2243 -.16363 3.7858 0 0 z m 1.078 32.339 c -1.2492 -3.1869 4.5465.26025 0 0 z m 9.4322 -72.491 c 3.3369 6.6106 -9.5588 26.057 0 0 z m -4.5814 23.446 c 3.8894 -1.8126 -.25671 3.0505 0 0 z m -3.7729 -3.5034 c 2.5034 -2.1292 1.2333 -1.1258 0 0 z m 1.078 -18.595 c 3.5009.55941 -3.6418 4.4396 0 0 z m -2.9644 5.1203 c 3.1263 -5.3847.87715 4.9184 0 0 z m -1.078 26.14 c 5.5108 -1.0112 -2.9862 6.8382 0 0 z m -1.078 -14.283 c -2.886 1.2243.1636 -3.7858 0 0 z m -1.3475 -11.588 c 1.4632 3.3911 -2.9374.63568 0 0 z m -.80847 4.5814 c 1.6602 3.428 -3.0606 -.20152 0 0 z m 0 16.439 c 1.4632 3.3911 -2.9374.63567 0 0 z m -.53899 6.7373 c -3.1678.98169.24419 -5.9734 0 0 z m -1.078 -18.864 c 1.4632 3.3911 -2.9374.63567 0 0 z m -1.8864 3.2339 c 3.8894 -1.8127 -.25668 3.0505 0 0 z m -.53899 11.318 c 3.5643 7.523 -3.2706 4.4171 0 0 z m -.26949 -20.212 c .69099 9.9982 -7.5112 9.8132 0 0 z m -2.4254 8.8935 c 1.7345 5.8509 -3.1778.25863 0 0 z"/><path id="o-right" d="M 670.05 386.39 c -1.6602 -3.428 3.0606.20151 0 0 z m 33.417 -5.3898 c 3.3705 -.28969 1.7472 -4.3121 0 0 z m .80848 -104.83 c -.47335 -3.034 -4.4012 1.4883 0 0 z m 3.2339 73.573 c -4.0061.0811 -1.2324 4.7086 0 0 z m 3.5034 -2.6949 c -2.3832 -2.4791 -4.9651 5.4364 -.33686 1.179 z m -2.1559 -75.185 c 4.584 -1.3988 -5.366 -2.6028 0 0 z m 1.078 4.3119 c -1.0782 -4.6653 -9.7531 3.6866 0 0 z m -12.666 84.354 c 4.7773 -2.8626 -4.3235 -1.1472 0 0 z m 6.1983 -5.6593 c 3.925.37688 -.25241 -2.9327 0 0 z m 12.936 -14.822 c -4.9052.98307.77815 3.4581 0 0 z m 18.326 -13.205 c -5.8448 6.0182 7.424 -26.737 -2.6738 -4.674 -9.9145 10.391 -1.5458 24.445 -.56005 7.0995 4.68 -1.3705 9.342 5.5309 3.2339 -2.4256 z m 5.3898 -7.0066 c -.72676 -5.2878 -2.9989 4.592 0 0 z m -15.9 17.248 c 4.2762.42992 -1.2626 -2.8899 0 0 z m 9.4322 -28.027 c -5.7947 8.1243 -15.5 40.39 -3.7729 14.014 -2.625 -2.535 6.3498 -8.7786 3.7729 -14.014 z m 1.3475 31.261 c 3.4306 1.4074.49881 -3.3894 0 0 z m -14.283 4.8508 c 7.4467 5.8956 6.8943 -13.083 0 0 z m 21.559 -3.2339 c 4.9749 -1.5842 -1.6271 -2.6473 0 0 z m -1.078 -18.864 c -11.764 6.7876 7.4299 4.7815 0 0 z m -1.3475 8.6235 c 1.8973 4.8828 2.5598 -5.3664 0 0 z m -9.9709 8.3541 c -.16362 3.7858 2.886 -1.2243 0 0 z m 6.7373 -13.205 c 9.408 -7.0187 -6.0326 -6.7767 0 0 z m 4.5814 -17.248 c -1.8018 -5.861 -2.4731 5.9543 0 0 z m -4.0424 7.8154 c -2.9374.63568 1.4632 3.3911 0 0 z m -19.673 33.417 c -.8626 -6.1919 -2.5146 5.0597 0 0 z m -6.7373 19.942 c -6.3859 6.6785 -13.782 15.419 -23.985 16.169 -5.2918 3.6992 -14.177 -4.5824 -18.056 -1.617 -2.8144 -5.141 -23.768.44435 -5.39 -10.78 5.1258 -8.545 19.25 -9.6905 28.835 -10.51 -19.832 11.111 -3.7729 8.043 7.0067.53886 -3.7828 4.4955 5.3792 1.8838 10.241 -1.8864 7.7118 1.9997 -2.2139 10.604 1.348 8.0849 z m -12.666 -1.8864 c -2.3449 -3.9758 -4.7969 1.9381 0 0 z m 3.7729 -1.3474 c -.57877 -4.4362 -6.2113 4.8478 0 0 z m 5.1203 5.1203 c .16357 -3.7858 -2.886 1.2243 0 0 z m 9.4322 -27.488 c -1.4973 -5.8591 -6.7116 8.3821 0 0 z m 25.332 -57.671 c 3.3619 12.245 -9.6263 -.66805 2.4254 9.4322 -4.5498 -.0605 -9.2608 22.184 -8.3542 6.7373 5.1203 -5.6932 -5.0244 -7.5417 -5.5845 -13.145 7.4865 -3.4792 -15.675 -17.056 -13.28 -15.151 -9.9671 -7.5962 17.089 -1.5679 15.017 7.2164 3.6228 -1.0719 7.5037 10.401 9.7762 4.9106 z m -5.1203 6.7373 c -3.925 -.37689.2524 2.9327 0 0 z m -31.53 68.448 c -4.2762 -.42992 1.2626 2.8899 0 0 z m 37.19 -59.827 c -8.5802 -.46045 3.7873 7.4481.53898 -.80847 z m 7.8154 4.0424 c -4.5828 -.189 1.4879 3.9593 0 0 z m -36.381 61.714 c .47335 3.034 4.4012 -1.4883 0 0 z m 3.5034 -16.169 c 3.4026.23911 3.2736 -4.2931 0 0 z m 2.6949 -7.276 c -5.3128 -2.096 -7.0053 11.654 0 0 z m .80848 -5.9288 c -5.3278 -2.3354 -3.1008 7.7712 0 0 z m -1.3475 11.318 c 3.7498 4.1053.6163 -5.7549 0 0 z"/></g><g id="char_nine"><path id="nine-left" d="M 822.04 266.74 c -9.3503 6.3672 -10.363 16.019 0 0 z m -11.588 15.631 c -1.9739 -2.3043 -1.805 2.7792 0 0 z m -3.7729 0 c 10.015 -2.1686 5.5648 -13.082 0 0 z m 9.4322 -4.3119 c .89107 -3.3206 -3.4982 1.9822 0 0 z m 11.588 -21.559 c 3.2584.33405 -.0348 -2.3904 0 0 z m -1.078 3.5034 c .76194 -2.7885 -2.7452 -.13916 0 0 z m -16.439 -4.8508 c -3.019.47036 1.4994 2.4814 0 0 z m 14.283 6.7373 c .13496 -.36813 -4.6955 9.3009 0 0 z m -13.475 20.212 c 5.196 1.4972 3.02 -6.1445 0 0 z m 5.9288 -.80848 c 7.2527 -9.7698 -.50697 -3.8608 -1.6858 2.167.96916 -.13971 1.7901 -1.1758 1.6858 -2.167 z m -56.324 2.1559 c -1.2871 -9.9066 14.696 -28.74 5.1203 -10.51 7.9114 -15.049 7.1038 -9.0466 5.9286 -13.576 5.9664 -7.4889 1.2725 4.4408 12.262 -8.4553 15.497 -9.1529 31.562 12.912 13.822 14.372 -5.0658 6.2883 -4.6279 6.8669 -10.993 23.289 8.894 3.5485 16.393 -4.6559 15.021 2.3403 2.5797 -3.8267 19.163 -10.079 10.581 -4.7657 -4.5774 6.3526 -10.786 9.2744 -3.116 8.3498 -9.1033 5.5685 6.5243 2.2923 -3.8908 9.1669 -3.1871 1.6516 -3.285 10.926 -15.361 4.8508 -3.2573 -2.8975 -10.732 -.5461 -19.404 -8.3542 -1.7668 -3.3706 -9.5654 -9.3072 -9.9703 -16.708 z m 29.644 -10.51 c .61178 2.9207 1.8312 -1.4977 0 0 z m -5.3898 12.396 c -.0298 2.9053 2.2338 -.55824 0 0 z m -9.7016 -21.829 c 1.0063 2.2322 2.9729 -1.4288 0 0 z m -9.4322 10.51 c .22396 3.1312 2.601 -.40734 0 0 z m -2.1559 1.3474 c .16158 6.0657 1.6753 -1.1924 0 0 z m -.26949 4.3119 c 2.1997.59237 -.53531 -2.5275 0 0 z m 41.232 7.8154 c 7.0376 -2.7345 -.0512 -4.6611 0 0 z m 17.517 -16.169 c -11.005 9.3342 -1.6665 4.0986 0 0 z m -36.651 -22.907 c -6.6924 -.56743 -4.7263 6.6282 0 0 z m -4.0424 4.0424 c -2.3463 -3.3889 -4.3508 3.2626 0 0 z m -2.9644.26949 c -2.9447 -.25229 -1.1688 2.8609 0 0 z"/><path id="nine-right" d="M 747.92 457.26 c 5.5131 14.404 -5.9442 1.4087 0 0 z m -2.4254 -5.6593 c 6.6428 4.0827 1.8194 5.4312 0 0 z m 68.179 -162.77 c 9.2553 -13.372 21.068 -41.477 6.9496 -41.675 -2.0414 -9.7308 21.093 1.7988 29.162 7.9885 16.666 9.6106 -1.0415 30.069 -4.2109 40.592 -7.2961 2.3353 -1.2581 10.48 -9.8028 17.348.58089 11.526 -5.5305 7.9438 -6.1983 12.666 1.671 -.24166 -4.9862 9.0938 -7.0068 12.397 1.6871 3.2931 -7.122 15.473 -9.8743 22.022 -2.8035 13.671 -15.556 25.955 -13.302 28.373 -3.871 8.7721 -8.7906 19.264 -10.707 26.208 -9.294 16.522 -7.8879 23.049 -11.931 39.548 -3.6552 8.7871 -7.8468 9.5988 -13.475 19.404 6.4439 -3.0933.98587 8.7642 -.26949 2.6949 4.33 13.049 -6.2554 -2.9485 -4.8624 6.6682 -8.614.48403 -.56685 -10.472 -5.9173 -4.5122 -4.8303 -3.316 3.4897 -3.7562 -.20212 -12.296 -.32927 -3.5668 -5.932 -6.9576 1.7713 -4.4129 -4.0141 -3.5068 3.1951 -16.933 -6.6895 -13.475.29707 2.8001 2.3327 -10.06 5.1203 -2.6949 1.8749 -14.938 6.1445 -20.482 10.51 -22.907 -8.7192 6.4664 -1.4316 -10.85 1.4068 -11.506 5.7162 -5.7109 2.5156 6.4808 3.4441 7.4632 -8.8647 4.1054 2.0236 10.664 -4.3119 8.6237 -.29694 10.971 -5.4415 15.061 -5.3898 18.595 6.3673 1.6174 2.2035 -7.3637 7.0741 -9.4996 2.6153 -16.022 10.471 -27.263 14.317 -40.457 2.7859 -8.3444 7.8523 -14.267 3.4023 -15.53 -5.138 -6.103 7.6482 5.1068 4.5814 -5.6593 2.8329 7.5063 4.1097 -14.503 2.0759 -10.241 15.313 -10.737 -4.2273 1.2694 1.4277 -7.7143 8.5581 -.468 9.6713 -11.718 2.1559 -3.335 2.1038 -4.131 11.566 -17.44 2.4256 -8.624 2.9126 -17.463 8.9087.75203 9.1627 -4.3117 1.0541 -.46504 7.5103 -8.9648 7.2763 -13.475 -4.1678.32935 -5.1732 -6.0889 -5.9288 -9.4322 -8.804 8.8782 -8.5784 17.424 -14.283 25.063 -2.0396 8.3601 -11.189 24.902 -9.0539 13.36 -2.7981 -9.2499 3.6447 -2.8818 4.6629 -7.2564 -4.0476 -7.8542 13.905 -27.338 18.139 -42.531l1.8828 -4.2649h1.3474l -.26949 -.80848m -59.557 163.04 c 1.95 4.5104 -6.7182 -.23595 0 0 z m -.53898 -21.559 c 4.3387.59641 -4.1473 2.9761 0 0 z m -.80847 25.871 c 3.2928 -.57102 -.59824 3.1015 0 0 z m 2.9644 -37.998 c 2.2382 4.7251 -5.3707 10.817 0 0 z m -.80847 34.765 c 5.2089 -2.245 1.0919 8.9393 0 0 z m 3.5034 -51.203 c 5.695 4.2087 -1.242 3.7666 1.2127 9.129 -1.4075 2.614 6.6187 9.5388 -1.2127 13.239 5.2122 -15.045 -7.5582 1.1549 0 -22.368 z m -2.6949 42.041 c 3.6654 -1.531 -.0484 4.9528 0 0 z m .26949 -3.2339 c 3.5539 -1.1788 -.75979 5.741 0 0 z m 1.8864 -14.013 c 1.9815 5.1465.53642 -1.7448 0 0 z m .53899 -17.786 c -.75383 2.6852 2.1412 -.10481 0 0 z m .53898 42.041 c .22395 3.1312 2.601 -.40734 0 0 z m 1.3475 -19.403 c .43618 2.9828 3.0669 -1.8134 0 0 z m 0 1.3475 c 1.0486 3.5892 3.172 -.42309 0 0 z m 1.6169 -36.381 c 3.64 1.7856 -2.9602 6.039 0 0 z m -.26949 2.9644 c 3.7496.83215 -1.9709 5.0895 0 0 z m -.53898 26.68 c -.30372 2.8277 2.2161 -.70731 0 0 z m .80847 -17.517 c 5.7324.74273 -2.956 6.2266 0 0 z m 0 13.475 c -.67836 4.1406 3.7797 -.74766 0 0 z m .53899 34.225 c -.0317 6.0726 2.6166 -.66909 0 0 z m 4.3119 -72.223 c 3.9078 4.7691 -9.0738 17.5 0 0 z m -2.4254 20.751 c 2.4595 3.7081 -4.0224.38534 0 0 z m -1.3475 13.475 c .26686 4.9315 2.5671 -1.1989 0 0 z m 1.3475 24.524 c -3.2291 3.8495 4.942 1.2455 0 0 z m -.53899 2.4254 c .65902 5.6616 6.2942 -2.2129 0 0 z m .2695 -40.693 c 2.8981 -1.5104 1.3906 2.7044 0 0 z m 0 36.381 c .27845 2.4715 3.4556 -.72243 0 0 z m .26949 -16.439 c -.0298 2.9053 2.2337 -.55824 0 0 z m 2.1559 11.049 c -3.1056 2.7642 1.5092 8.0018 1.5478 1.359.4359 -1.0377 -.56997 -1.5987 -1.5478 -1.359 z m -1.8864 -19.942 c -.30371 2.8277 2.2161 -.7073 0 0 z m .26949 38.538 c .39898 7.1437 1.7136 -.33534 0 0 z m 1.078 -54.976 c 3.0674 2.0325 -3.6195 1.9361 0 0 z m -1.078 50.125 c -.34792 5.6848 2.8856.15165 0 0 z m .53898 9.1628 c -1.509 8.6351 2.5198 2.3299 0 0 z m .26949 -37.998 c -1.3849 3.8772 4.3216 -.67612 0 0 z m .26949 -22.368 c 2.7136.0343 -1.0808 2.5041 0 0 z m 0 43.927 c -.0298 2.9053 2.2337 -.55825 0 0 z m .2695 9.4322 c -.5008 7.5036 5.0563.4008 0 0 z m .53898 -1.8864 c -.76195 2.7885 2.7451.13918 0 0 z m .26949 -58.479 c 5.8816 -1.7248.94993 7.2733 0 0 z m 1.3475 -11.588 c 4.9093 1.5526 -4.2829 2.9214 0 0 z m -1.3475 80.31 c .29438 5.885 2.4821 -.77144 0 0 z m 2.6949 -37.19 c .49431 2.5167 -3.3471 1.4198 0 0 z m -.26949 -155.23l -.26949 -1.078m -.53898 140.95 c -.61734 3.0319 3.4196 -1.4218 0 0 z m 1.078 -32.608 c 6.2128 2.4468 -2.6321 6.3541 0 0 z m -.53898 12.396 c 3.6829 2.7531 -1.9407 5.5729 0 0 z m 1.078 9.1628 c 5.9045.68801 -5.2265 7.7472 0 0 z m .53898 -14.822 c 6.9307 -1.3657 -5.6062 9.2151 0 0 z m -.26949 20.751 c -1.498 7.8912 3.9894 -2.0921 0 0 z m 4.0424 -16.439 c 3.7191 6.3445 -8.9854 17.535 0 .00012 z m -3.7729 81.116 c 3.3158 -1.6153 1.0274 3.5037 0 0 z m .26949 -29.375 c -1.1606 4.697 3.7719.0748 0 0 z m 15.361 -90.816 c -9.5231 14.88 -8.9056 17.521 -15.631 24.793.36893 -6.7617 13.339 -17.447 7.5458 -17.247.17895 -3.524 4.7862 -7.0119 8.085 -7.5458 z m -14.553 31.53 c 3.6645 -.9486.35576 5.7614 0 0 z m .53898 68.179 c -1.8949 7.3296 8.1154 5.1109 0 0 z m 1.078 -71.148 c 7.4775 -2.0024 -1.5061 5.1281 0 0 z m 1.3475 19.673 c 5.4459 -.79918 -4.237 6.4436 0 0 z m -.53899 43.388 c 2.736 1.6063.46272 -9.0037 0 0 z m .53899 5.3898 c -1.892 4.4075 2.6752 -.50985 0 0 z m .26949 -2.9644 c -.50449 6.1267 2.7642 -.50925 0 0 z m 5.6593 -58.479 c -3.2516 12.684 -11.79 18.626 0 0 z m -1.617 -16.439 c 4.8024 3.481 -10.522 10.537 -.53899 3.5034 -1.4406 -2.0922 -2.127 -1.5796.53899 -3.5034 z m -.53899 11.858 c 1.6792 6.8383 -4.8142 10.12 -1.4148 1.2464 z m -3.2339 54.168 c .19274 3.2045 3.4428 -.62383 0 0 z m 0 -66.298 c 2.7136.0343 -1.0808 2.5041 0 0 z m 1.078 68.992 c 1.9023 1.0257 1.1024 -3.4277 0 0 z m 0 -9.1628 c 1.8478 10.282 3.1995 -3.8201 0 0 z m .26949 -28.835 c 3.3157 -1.6153 1.0275 3.5037 0 0 z m .53899 -2.1559 c 2.8322 -1.7358.63726 2.1503 0 0 z m .80847 15.631 c 4.7359 -3.893 -.43973 -8.7088 0 0 z m .26949 -46.622 c 3.7033 -2.3458.55918 6.4769 0 0 z m 5.6593 1.078 c .98997 -.0187 -.62235 18.178 -1.3474 7.8152 -5.8541 19.089 -4.0289 -5.8503 1.3474 -7.8152 z m -5.6593 54.707 c .22396 3.1312 2.601 -.40735 0 0 z m .53899 2.1559 c -.76195 2.7885 2.7451.13918 0 0 z m .80847 -4.8508 c -.76194 2.7885 2.7451.13917 0 0 z m 1.617 -29.375 c 3.7328 1.6501 -6.1203 3.5867 0 0 z m -.53898 13.205 c -3.5078 8.3744 3.0327 -.98917 0 0 z m -.2695 21.021 c -2.8366 5.0985 4.5255 -1.7612 0 0 z m .2695 -59.827 c 3.5126 -1.0135 -.56095 2.5979 0 0 z m .26949 46.892 c -.20151 3.0606 3.428 -1.6602 0 0 z m .26949 -51.203 c 3.5126 -1.0135 -.56095 2.5979 0 0 z m 2.1559.53898 c 2.0377 1.844 -3.932 1.8661 0 0 z m -1.078 38.807 c -.0693 3.0675 2.0617 -1.1742 0 0 z m .2695 8.3541 c -.35411 4.3467 5.5394 -3.9619 0 0 z m .26949 2.4254 c -.64959 4.5436 3.5617 -1.9029 0 0 z m .26949 -52.281 c 4.2492.58695 -.72541 3.6916 0 0 z m .26949 46.083 c .2831 3.4924 3.8621 -.66197 0 0 z m .26949 -47.43 c 2.2161 -.7073 -.30371 2.8277 0 0 z m 0 63.06 c -.0893 3.1319 2.2048 -1.4174 0 0 z m 4.8508 -68.448 c -.83127 6.2687 -8.5943 3.817 0 0 z m -4.3119 61.714 c .0547 5.2801 2.008.93841 0 0 z m .80848 -19.942 c -1.0988 1.5584 2.3114 1.344 0 0 z m 0 18.595 c .3318 2.5635 1.557 -1.1413 0 0 z m .26949 -11.049 c -1.9617 6.8796 4.4246 1.4146 0 0 z m 0 -9.1628 c -.94089 2.4938 4.5037.0956 0 0 z m .80847 -2.6949 c -.13687 3.277 4.6997 -1.8424 0 0 z m .53899 9.9709 c .28417 2.6633 4.705 -2.2252 0 0 z m 3.7729 -47.161 c 4.3246 3.9767 -9.3307 16.392 0 0 z m -3.2339 34.495 c .36032 3.625 3.7267 -1.5006 0 0 z m 1.078 9.7016 c -2.5918 4.325 4.322.4344 0 0 z m .80848 -32.608 c 5.2944 -.54621 -4.208 6.9589 0 0 z m -.80848 21.29 c -.0298 2.9053 2.2337 -.55825 0 0 z m .2695 -23.446 c 3.0669 -1.8134.43618 2.9828 0 0 z m 3.7729 14.822 c -7.7647 10.224 1.303 6.2806 0 0 z m -2.4254 12.127 c -1.7259 5.3094 2.6759 -.14009 0 0 z m -.26949 7.8154 c 4.7414 2.0839.38567 -10.619 0 0 z m 1.617 -59.019 c .31414 4.4268 -4.0688 2.0631 0 0 z m 1.617 19.942 c .35083 10.584 -5.9349 3.1016 0 0 z m -1.617 28.566 c -2.1366 4.304 2.693.33306 0 0 z m 4.8508 -43.927 c 1.8557 13.84 -10.144 14.687 -.80847.00012 -1.0759.47305 -1.3488 -.55426.80847 -.00012 z m -4.8508 24.254 c 3.4196 -1.4218 -.61736 3.032 0 0 z m 2.4254 -12.936 c 6.7409 -1.5318 -4.6747 9.0596 0 0 z m -1.078 14.553 c 2.394.79171 2.715 -3.3609 0 0 z m 6.1983 4.3119 c -8.107 13.496 -3.8898 12.31 2.9644 1.8861 -3.7624.47656.83323 -4.4328 -2.9644 -1.8861 z m -5.3898 2.4254 c -.76194 2.7885 2.7451.13917 0 0 z m 1.617 -4.0424 c -4.297 5.478 3.0536 1.6576 0 0 z m -.53898 15.9 c -.61735 3.032 3.4196 -1.4218 0 0 z m .53898 -27.488 c 4.4336 -1.5317 1.4439 2.8292 0 0 z m .26949 17.248 c -.3037 2.8277 2.2161 -.70731 0 0 z m .26949 -111.84l.26949.80848m.26949 117.76 c .43619 2.9828 3.0669 -1.8134 0 0 z m .2695 -26.68 c -.0298 2.9053 2.2337 -.55824 0 0 z m .26949 -28.835 c 1.5812 3.1025 2.8906 -.7961 0 0 z m .26949 21.29 c -.0759 2.0585 2.8978 -1.3679 0 0 z m .80847 15.091 c -3.8348 7.6393 3.7813.69055 0 0 z m .80848 -23.176 c 3.4128 2.064 -3.9611 1.405 0 0 z m -.80848 41.232 c -.56095 2.5979 3.5126 -1.0135 0 0 z m .26949 -57.941 c -.5636 5.1095 4.6223 -3.92 0 0 z m 0 66.567 c -.0298 2.9053 2.2338 -.55824 0 0 z m 1.617 -52.281 c 4.2834 1.2251 -3.9381 1.4463 0 0 z m 0 36.651 c .61185 2.9753 -3.4615 1.7346 0 0 z m 0 -13.744 c -1.1713 2.895 3.0132 -1.0591 0 0 z m .80848 -7.8154 c -.74094 3.1822 2.7547 -1.0361 0 0 z m 0 12.936 c -1.0808 2.5041 2.7136.0343 0 0 z m 0 18.326 c 2.9274 1.0387 1.8882 -5.0577 0 0 z m .26949 -27.219 c .43617 2.9828 3.0669 -1.8133 0 0 z m 1.078 -3.7729 c -.70525 5.639 3.6267 1.2621 0 0 z m 0 12.936 c 4.2243 5.3743 2.77 -10.091 0 0 z m .26949 -4.0424 c -.0298 2.9053 2.2338 -.55825 0 0 z m 2.4254 -27.758 c -2.0457 10.473 14.534 -2.2345.0143.002 z m 0 15.9 c 1.3906 2.7044 2.8981 -1.5104 0 0 z m .53898 9.1628 c -.37689 3.925 2.9327 -.2524 0 0 z m 4.0424 -43.119 c 3.6869 3.6484 -8.5958 18.057 0 0 z m -.53898 25.602 c -8.5626 13.349 4.1857 -.11711 0 0 z m 5.6593 5.6593 c -2.2172 3.5244 -12.02 2.6744 -1.078 5.6593 -6.5507 -2.5128 11.579.15769 1.078 -5.6593 z m -6.7373 13.744 c -.16562 3.3809 3.4286 -4.0978 0 0 z m .53898 5.1203 c .10666 3.4495 5.2245 -2.3236 0 0 z m 1.3475 -42.041 c 1.3179 2.6963 -3.0815.56028 0 0 z m 2.6949 9.9709 c -7.2291 8.1753 3.8745 3.0708 1.1335 -.11335 z m -.80848 -14.013 c 1.4882 5.3188 -5.8912 5.1253 0 0 z m -1.078 24.524 c -.64959 4.5436 3.5617 -1.9029 0 0 z m 0 -16.169 c 2.8322 -1.7358.63728 2.1503 0 0 z m 4.8508 1.078 c -9.9109 3.8485 5.2801 2.3141 0 0 z m -3.5034 18.056 c 2.5312.0335 3.9295 -9.1301 0 0 z m .53899 11.318 c -2.2304 4.0998 3.7475 -.16658 0 0 z m 0 -52.281 c 8.2724 -3.3387 2.4771 -14.227 0 0 z m 1.078 5.3898 c -.95852 5.751 5.1471 -3.4797 0 0 z m 6.4679 21.29 c -3.2674 1.0097 -3.4013 4.6905 -4.4129 10.443 -1.0321 9.888 13.199 -14.709 4.4129 -10.443 z m -1.617 -39.615 c -6.564 7.4425 4.6822 3.2072.0478 0 z m -1.8864 11.588 c 3.4249 7.5843 2.3846.6816 0 0 z m 1.3475 32.339 c 4.468 1.8965 -4.3408 4.3489 0 0 z m .53898 -37.19 c -4.0283 5.7169 6.9932.18543 0 0 z m -.53898 10.241 c -.34251 2.6729 3.0881 -1.3667 0 0 z m 0 13.744 c .22396 3.1312 2.601 -.40734 0 0 z m 0 22.907 c -.57021 3.3034 3.2695 -1.3678 0 0 z m 1.078 -35.034 c -.47038 4.5034 3.7638 -1.6002 0 0 z m 2.1559 3.7729 c -6.3649 10.43 6.0308 6.0531 0 0 z m -.80847 -5.3898 c 3.1171.26105.78968 -3.4141 0 0 z m 1.617 -23.715 c 1.7489 2.6992 1.6479 -4.4996 0 0 z m .53898 16.169 c 3.8531 6.6863 7.2453 -5.5502 0 0 z m .26949 2.6949 c .0283 5.3151 9.1315 -2.5309 0 0 z m 1.3475 30.453 c -3.5266 7.5145 2.9311 3.1412 0 0 z m -.80847 -25.332 c -.23883 2.5711 1.924 -.97385 0 0 z m -.53899 18.595 c 5.8682 -5.6377 2.3564 -6.0389 0 0 z m .80848 -35.034 c 3.1911 -1.8038 -.26605 -2.5506 0 0 z m 1.078 16.169 c -.0562 2.4159 3.2693 -1.0632 0 0 z m .26949 -9.4322 c 6.592.55834 2.184 -4.766 0 0 z m 0 -11.318 c 3.1683 1.6173 1.5638 -3.9766 0 0 z m 0 7.276 c 2.4055 1.3804 1.3744 -4.3165 0 0 z m 1.078 22.098 c .0392 2.7537 2.0683 -.1352 0 0 z m 8.3541 -25.602 c -6.3904 11.079 -9.531 21.445 -.80041 4.3794 -1.366 3.1554 4.2603 -6.838.80041 -4.3794 z m -6.4679 25.063 c -.0693 3.0675 2.0617 -1.1742 0 0 z m 1.078 -84.622 c 1.0063 2.2322 2.9729 -1.4288 0 0 z m 0 84.891 c .61179 2.9207 1.8312 -1.4977 0 0 z m .80848 -31.261 c -.3037 2.8277 2.2161 -.70731 0 0 z m .53898 -6.4679 c -.27149 4.0847 8.3666 -1.7441 0 0 z m .26949 31.261 c .85459 4.7875 4.1996.0157 0 0 z m 1.8864 -1.3474 c -.83636 4.4594 5.6858 -1.5568 0 0 z m 1.078 -20.751 c -.0298 2.9053 2.2338 -.55824 0 0 z m 2.6949 -2.1559 c -6.6817 10.192 3.2314.67296 0 0 z m -1.078 18.864 c -.16318 3.3146 3.2164 -1.9487 0 0 z m 2.9644 -8.3541 c -.20151 3.0606 3.428 -1.6602 0 0 z m .26949 -14.822 c -.31375 2.6044 2.0979 -.24709 0 0 z m 1.3475 11.318 c -.19609 2.5861 3.2409 -1.9798 0 0 z m 8.0847 -8.6235 c 1.0063 2.2322 2.9729 -1.4288 0 0 z m 1.8864 -3.5034 c 3.1397.49428 -.0483 -2.7917 0 0 z m 2.1559 -6.7373 c -.0893 3.132 2.2048 -1.4174 0 0 z"/></g><g id="char_one"><path id="one-left" d="M 889.17 342.73 c 22.181 13.617 22.938 -14.243 37.19 -23.446 3.4348 -10.22 9.4663 -29.743 11.588 -26.949 -2.8347 9.1995 -5.0837 17.16 2.1559 3.5513 8.0228 -4.8691 17.191 -19.265 19.097 -29.172 7.617 -13.964 -8.9395 24.382 4.6177.28799 -.5905 -15.104 2.3836 8.8282 5.1203 -10.51 4.3268 -7.9738 -2.1928 -13.622 -7.551 -19.793 -10.271 -10.912 -22.716 -10.708 -25.403 7.0625 -3.0123 14.226 -19.833 33.214 -12.793 34.728 -.69091 5.6894 -12.363 29.473 -8.2534 15.798 -6.0749 -.004 -10.387 4.4156 -7.7703 -4.2166 -13.251 2.1692 5.6551 5.4658 -8.5676 11.425 -7.9524 8.9446 -38.498 31.676 -12.363 38.166l2.9306 3.0656 z m 66.567 -77.885 c 2.9469 -.24972 -.84391 3.519 0 0 z m -11.588 25.332 c -3.1747.20111 1.0553 -4.7901 0 0 z m 7.546 -22.637 c -2.9468.24971.84391 -3.519 0 0 z m 1.3475 -8.3541 c 2.9469 -.24972 -.84391 3.519 0 0 z m -2.9644 5.6593 c 3.9376 -1.1186 -.29763 2.9945 0 0 z m -4.3119 1.3475 c 2.9469 -.24972 -.84391 3.519 0 0 z m -1.6169 4.5814 c 14.515 -6.6912 -2.1877 14.537 0 -.00025 z m -1.8864 6.1983 c 16.343 9.5585 -13.685 15.927 0 0 z m -5.1203 -8.3541 c 3.8616 -1.2703 -.15176 2.4517 0 0 z m -2.6949 13.744 c 9.5618 -26.391.9313 10.266 0 0 z m -1.617 6.4679 c 2.9468 -.24971 -.84392 3.519 0 0 z m -21.829 22.098 c -2.9468.24971.84391 -3.519 0 0 z m 0 -1.8864 c -4.3427 -2.3423 4.833 -1.4051 0 0 z m 7.276 17.786 c -.81295 -4.9256 5.9728.0431 0 0 z m -.80848 -5.3898 c -1.4302 -3.327 3.1883 -.7754 0 0 z m 4.5814 1.3475 c 1.0612 -7.6863 4.7122 -2.4741 0 0 z m 4.3119 -8.0847 c -5.632 4.1456 -2.2046 -2.9779 0 0 z m 3.5034 -18.595 c 4.4756 -8.7826 1.855 5.8441 0 0 z m 0 2.1559 c 3.8616 -1.2703 -.15176 2.4517 0 0 z m -.80848 1.3475 c 3.4555.0285.83333 4.6012 0 0 z m -.80847 2.6949 c 3.5346 -1.6878 1.1566 5.5265 0 0 z m 0 2.1559 c 2.9479 -.25032 -.93108 5.4872 0 0 z m -1.8864 3.7729 c 2.9184 4.3636 -12.402 11.826 0 .00025 z m -6.7373 11.588 c 3.3025 -4.63 1.1338 4.5575 0 0 z m .80847 2.6949 c 4.6954 2.7592 -1.8986 3.0093 0 0 z m -2.9644 -27.758 c 4.4033 -.9471 -.68883 4.0956 0 0 z m -1.3474 2.1559 c 6.3656 2.5659 -11.629 17.063 0 -.00025 z m -2.6949 -2.1559 c 2.9469 -.24972 -.84391 3.519 0 0 z m -2.4254 2.1559 c 6.0364 2.3666 -10.651 9.4819 0 0 z m -9.7016 6.7373 c 2.6961 -9.8689 10.571 -6.4748 0 0 z m -6.1983 5.3898 c .44475 3.9185 -12.053 6.2261 0 0 z"/><path id="one-middle" d="M 906.67 355.4 c .34356 -2.9836 3.6881 1.452 0 0 z m 63.598 -109.15 c -5.494 -3.9124 -8.2 -11.936 -18.522 -16.537 -16.088 -7.3002 -14.558 23.202 -23.498 31.666 -9.8342 14.794 -5.3838 13.085 -5.0741 16.569 -.10552 6.1302 -15.031 30.555 -8.5566 22.536 3.5378 -5.84 -9.3828 25.173 -8.6365 37.969 -3.949 13.683 -.91063 18.408 3.1116 19.001 6.609 8.7372 -7.1117.21992 -3.9413 18.219 -14.384 29.853 45.88 -3.561 23.345 -12.633 -.26531 -10.014 6.4681 4.0371 9.3312 -12.013 1.9245 -9.4664 12.205 -32.116 7.3774 -31.206 -1.6631 9.546 -16.008 5.6324 -5.3898.80847 -1.596 2.0947 12.837 -21.697 10.288 -21.559 -8.1017 1.0896 13.42 -14.802 2.6472 2.156 9.0068 -12.345 9.8212 -34.457 18.056 -48.238 -1.3699 -1.8937 -3.7605 -3.4876 -.53823 -6.7378 z m  906.67 359.43 c 3.5776 2.0442 3.3519 -.71328 0 0 z m 40.693 -45.005 c 4.6625 2.0172 1.2133 -14.696 -2.6949 -2.4254.92709 8.0751 -2.3655 1.8298 2.6949 2.4254 z"/><path id="one-bottom" d="M 960.04 372.38 c -13.413 -1.2146 -36.176 1.9989 -12.666 -1.8864 19.742 -7.0428 -14.198 4.1068 -10.969 -5.5884 -4.0342 -9.7258 -7.2941 1.406 -20.022 -.87938 -16.218 9.8065 -62.619 15.75 -32.07 36.112 14.536 8.0446 29.655 -.3796 41.502 -6.7373 7.1689 2.7541 5.0502 -7.7375 9.7444 -4.1706 5.6767 -2.8004 -25.001 2.4112 -1.921 -2.7309 10.347 -3.5617 21.003 -5.8361 18.952 -10.076 -13.454 -.1904 4.2401 -5.3671 7.4501 -4.0421 z m -31.8 17.517 c 5.548 -3.3346 -1.1775 5.2345 0 0 z m -4.8508.53898 c -.71353 -3.3342 3.8502 -.37104 0 0 z m 15.9 -12.936 c -5.7235 -2.9176 3.8741 -.52505 0 0 z m 11.588 5.3898 c 7.4314 -6.2567 12.837 -2.7002 0 0 z"/></g></symbol></defs><use href="#xeho91-logo_background" fill="hsla(0deg, 0% , 0%, 1)"/><use href="#xeho91-logo_logomark" fill="hsla(0deg, 0% , 100%, 1)" filter="url(#xeho91-logo_shadow)"/></svg>