<svg id="xeho91-logo_animated" xmlns="http://www.w3.org/2000/svg" viewBox="0 0 1920 1350"><defs><symbol id="logo_background" fill="hsla(297deg, 84%, 10%, 1)"><path d="M0 0h1920v1350H0z"/></symbol><symbol id="logo_logomark" filter="url(#logomark_shadow)" fill="hsla(27deg, 72%, 59%, 1)"><filter id="logomark_shadow"><feDropShadow id="shadow_color" dx="0" dy="0" stdDeviation="20" flood-color="hsla(27deg, 72%, 59%, 1)" flood-opacity=".75"/></filter><g id="x"><path id="x_left" fill="url(#gradient_x_left)" d="M533.97 700.01l-1.294-5.174c-6.468-2.156-9.917-3.881-9.917-6.9l-2.587 1.725c0-2.156-2.588-4.312-6.9-7.33-7.33 0-15.523-8.624-24.578-25.872-.43-.863-1.293-1.294-1.293-2.156-1.294-1.725-2.587-3.881-3.45-6.037v-.431l-2.587-8.193s-.431 0-.431-.431l-1.725-1.725s0-.862-.431-.862h-1.725v.43c0-.862-.431-1.293-1.294-1.724-1.724-2.156-3.45-4.743-3.88-7.33-1.294-1.294-2.156-3.019-3.019-4.312-.862-2.156-2.156-4.744-2.587-7.33 0-.432 0-.863-.431-.863-.431-.863-.863-1.294-.863-1.725h-.43v-1.294c0-.862-.432-1.293-1.294-2.156-2.156-1.724-3.881-4.312-5.175-6.468-.431-.43-.862-.862-1.293-.862h-.432s-.862-.431-.862-.862c-.431-.432-.431-.863 0-1.294-.431-.431 0-.862 0-1.294v-.43c0-1.294-.862-2.157-1.725-3.02l-.862-.862c-.431 0-.863-.43-.863-.862-.43-.431-.43-.431-.43-.862-6.038-8.624-12.937-15.092-20.267-18.11l-3.018 1.293-.863-4.312c-15.523-4.312-23.285-7.761-23.285-9.917-1.724 0-2.587.862-2.587 2.156-1.725 0-2.587-.863-3.018-2.156l-5.175 6.468c1.294 10.349 5.606 21.99 13.798 34.927v1.293l-1.724 2.587c3.018 0 3.88.863 3.88 2.156l-1.724 2.588c2.156 0 4.743 4.743 7.761 14.23 1.294 1.293 2.156 3.018 3.019 3.88.43 1.294 1.293 2.588 1.724 3.881.863 0 .863.863.863 1.294v.431c.431 2.156 2.156 4.743 3.45 6.9.43 0 .862-2.157 1.293 1.293h.431s.863 3.45 2.587 6.899v-.431h.432c.862 5.605 5.605 9.917 9.055 14.66 3.88 4.313 7.33 9.056 11.642 12.937 0 0 .431 0 .431.431v-.862c.431 0 .431-.432.431-.432h1.294l2.587 1.725.431.431c.863.432 1.725 1.294 2.156 1.294h3.881s0 2.156 3.88 2.156v1.725l-2.155 3.018c.862 0 1.293.431 1.293 1.294.863 0 .863-1.294.863-1.294 3.88 0 7.33 1.725 12.074 5.606h1.293l2.588-.431c0 2.156.862 4.312 3.018 6.899 2.156 0 3.88-1.294 5.174-1.725 2.156 0 3.019 3.018 3.019 3.018h3.88l-1.293-1.293c8.193.862 16.817 3.45 25.872 7.761l2.587-.862c0 .862.431 1.725 1.294 1.725h10.349v-3.45l-2.156-4.743h1.293z"/><path id="x_right" fill="url(#gradient_x_right)" d="M419.71 637.49v3.45c0 2.587-1.725 4.312-3.018 4.312-1.294 5.605-5.175 8.192-5.175 8.192v6.9h1.294c6.468-11.211 12.074-16.386 13.367-16.386 0 0-3.45-2.156-3.881-3.881-.431-1.294-4.312-8.624-4.743-9.487l-.863-1.724-1.724 5.174c.862 1.294 1.293 3.88 1.293 4.312zm-5.174-.431h-3.019v2.587c1.725 0 3.019-1.725 3.019-2.587zm-13.798 26.303h1.293c3.019-11.211 5.175-13.798 9.487-13.798v-.863s-1.725-.862-3.881-2.156c-3.881 1.725-3.881 3.881-3.881 4.312v2.156l-.431 3.45-.863-.431-.862 2.587-1.725-.431v1.293c-.431 1.725-.862 3.881.863 3.881zm0 12.505h1.293v-2.587h-1.293zm-9.487 2.587c0-2.587-.862-3.88-3.018-3.88h-1.294v1.293l1.294 2.587c-.863 0-1.294.431-1.294 1.294v3.88s3.019-2.587 4.312-5.174zm-4.312 15.523h2.587v-1.294h-2.587zm24.578-15.523h-2.587v2.156h2.587zm-2.587-17.679h-1.294v2.156h1.294zm-12.505.862h-3.018v3.881h3.018zm-15.092 31.478h1.725v-1.293c0-1.294-.863-2.156-2.587-2.587h-1.725v1.293c0 1.294.862 2.587 2.587 2.587zm74.598-95.295v.863c-.431.431-.431.862 0 1.293-.431.432 0 .863 0 1.294s.862.862.862.862v-2.587s2.156-.431 3.881-1.293c0-1.725-6.468-3.45-6.468-3.019.863.431 1.294 1.294 1.725 2.587zm29.322-43.982h-3.018v1.294h3.018zm59.506 27.597h2.587c2.156 0 3.019-.862 3.019-2.156h-5.175zm-166.01 110.39h-1.294v2.156h1.294zm115.99-54.33h-1.294v2.155h1.294zm5.174-6.9v1.294c2.156 0 3.019-.863 3.019-2.156v-1.294c-1.725-.862-2.587.431-3.019 2.156zm-63.818 90.983l-1.724 1.294h1.724zm-1.724.863h-.863v.43zm83.222-114.7c0 1.293-.863 3.018-2.588 4.743v1.293h2.588c0-2.587.862-3.88 3.018-3.88 0-1.294-.862-2.156-3.018-2.156zm-24.147 37.946v1.293c3.88-.862 3.88-4.312 8.192-11.21v-2.157h-.43c-3.45 3.881-7.762 6.9-7.762 12.074zm-35.79 35.79c0 3.88-1.294 5.174-5.175 5.174v3.88c-3.88 8.625-7.33 13.799-8.193 13.799h-3.88l2.156.862c0 5.175-3.019 10.35-8.193 14.23h-2.587v-4.743s0 1.294-3.881 3.88v1.294l3.45-1.293c1.724 1.725 2.587 3.45 3.018 4.743h-.431l1.293 7.33c-1.725 0-3.88 3.881-5.174 11.211h2.587v1.725c0 2.156-.862 3.881-3.018 6.9.862 1.293 1.293 2.587 1.293 2.587h-3.88l-4.313 3.018 1.725 2.156c0 1.294-.431 2.156-2.156 2.156l2.156 2.587v7.762h1.294l-1.725 1.725 1.294 6.036h-1.294l-2.587-.862c0 1.725-1.294 3.88-5.175 3.88v1.294c-6.468 0-12.074-3.018-16.386-8.192v-.432h.863c-.431 0-.431-1.293-.863-1.293v1.293s-3.88-2.156-8.192-6.468v1.294l1.293 1.294h-3.018c-1.294 0-3.019-1.294-4.743-4.312.862 0 1.724 0 1.724-.863-1.293 0-3.88-1.293-3.88-3.88v-.432c0-.862-.432-1.293.862-1.293-2.156-6.9-3.88-9.918-4.743-9.918 1.725-12.074 3.88-18.542 5.174-20.266l-1.293-6.037c1.724 0 3.018-.862 3.88-2.156-.862-1.725-1.724-3.018-1.724-3.88.862-2.588 1.724-3.881 2.587-3.881l-.863-2.588v-1.293c3.881 0 11.642-9.055 18.973-27.597h1.725c2.156 0 3.019 3.88 3.019 3.88h1.293s1.725-3.88 5.175-7.33h-2.588c0-3.88 1.725-3.45 3.45-3.45 0 .863-2.156.863 2.156.863v-1.294c-3.88-1.293-1.725-3.018-1.725-3.88l-2.587 1.293v-1.293c0-1.294.862-2.588 3.88-3.881 0 2.587.863 3.88 3.882 3.88 0 3.019-3.45 6.037-3.45 9.918v1.294l2.156 3.88c-6.037 0-12.074 6.9-17.248 19.836l3.018 1.293c0-1.293 1.725-4.743 5.175-9.055 0-5.174 1.293-8.193 3.88-8.193h3.019v1.294c.431-2.156 1.294-3.881 3.88-6.037v-3.88c3.882 0 3.882-2.588 5.175-9.487 3.881 0 5.175-4.312 5.175-8.193h-2.588s-.862 3.88-3.018 3.88h-1.294c-2.156 0-3.018-1.293-3.018-3.449l-5.174 1.725v-2.587c0-.431 3.45-4.312 9.486-12.074v.431c.862 5.606 5.606 9.918 9.055 14.661 3.881 4.312 7.33 9.055 11.642 12.936h.431v-.431l.432-.431c0 3.88-3.019 7.33-8.193 15.092h3.018c4.312 0 6.468-3.881 6.468-7.33h.863V683.2l2.156-2.587-2.588-1.725 2.588 1.294h.43c.863.862 1.726.862 2.588 1.293zm-51.744 10.349h1.724c2.156 0 3.019-.863 3.019-2.588h-3.881zm-6.468 12.505h3.018s1.294-3.881 1.294-6.037v-1.725c0-1.725 0-2.587-2.156-2.587 0 3.018-2.156 5.605-2.156 7.33zm-8.193 16.817c3.88-.863 5.174-3.45 5.174-7.33-1.725 0-1.293 1.293-5.174 4.742zm-1.294 3.018h3.019v-1.294h-3.019zm-3.88 5.606h1.293v-2.588h-1.294zm2.155 34.927h-1.293v2.587h1.293zm0-6.468h-1.293v2.587h1.293zm0-8.624l-2.156-1.294h-1.724v2.156c2.156 0 3.018.862 3.018 2.587h1.294v-3.45zm4.312-19.404v-4.744h-3.018l-1.294 4.744 3.019-1.294c0 1.294.431 1.294 1.293 1.294zm1.294 19.404h-1.294v2.587h1.294zm0-16.817h1.725v-2.156h-1.294zm4.312 29.322h1.294v-3.881h-1.294zm0-5.175v-1.293c-.862-1.294-1.294-3.019-1.294-3.881h-1.724v1.293c.862 1.294 1.293 3.019 1.293 3.881zm0-13.798h-1.294v2.587h1.294zm-3.018 6.468h3.018v-2.156c-2.156 0-3.018.431-3.018 2.156zm4.312 23.716l-1.294-2.156h-3.018zm1.293-45.276h-1.293l-1.294 4.743h2.587zm6.9-19.404l-5.175-1.293c-4.312 12.936-6.9 20.698-6.9 22.854 1.294 0 3.882-3.881 6.9-12.505-.862 0-1.294-.432-1.294-1.294.863-.862 2.588-3.45 6.468-7.762zm8.192-12.074h-1.293v2.587h1.293zm21.56-18.11h2.587v-2.587c-1.724 0-2.587.431-2.587 2.587zm-3.88-4.312h3.018v-1.293h-2.587zm-8.193 11.211h3.018v-2.156h-3.018zm-5.606 10.35h-1.294v2.586h1.294zm8.193 46.137h-1.294v2.156h1.294zm5.174-58.212l-2.587-1.725h-2.587v3.881h3.88c0 1.294-2.587 2.587-6.899 3.881l1.294 2.587c-.431 5.606-2.587 8.624-6.468 8.624v2.587s2.587 1.294 2.587 4.744h1.725c0-3.881.862-5.606 3.018-12.074l2.588.862c0-.862 0-1.294 1.293-1.294l-2.587-2.156v-2.156c3.88.432 4.743-2.587 4.743-7.761zm1.294-.431h1.725c2.156 0 3.018-.862 3.018-2.587l-5.174-1.294c0 1.725.43 3.019.43 3.881zm3.018 25.872h-3.018v2.156c2.156.431 3.018-.431 3.018-2.156zm4.743-10.78c-3.018 0-4.743 1.725-6.036 9.486h1.293c1.725 0 2.587-1.293 2.587-3.88h.432v-2.156c3.88-1.725 1.724-1.725 1.724-3.45zm55.194-62.955v-1.294h-3.018v3.881c2.156-.431 3.018-.431 3.018-2.587zm-25.872-43.982v-1.294h-1.293c-1.725 0-2.587.863-2.587 2.156v1.294h1.293c1.725 0 2.587-.431 2.587-2.156zm83.222-26.303v1.294h7.762c0 3.88-3.018 3.45-9.486 4.312l1.724 3.45v1.293c-8.192.431-11.642 1.725-11.642 3.88l-3.45-1.293c-3.449 1.294-5.605 2.156-5.605 3.45h2.587l5.606-2.156v1.293l-1.725.863h1.725v3.88l-3.88 1.294c-3.02 3.88-5.175 6.9-5.175 9.055l-3.019-1.293c.432-3.45 3.881-4.744 3.881-4.744v-.43h-1.293s-1.725 2.586-5.175 4.311l1.294 1.725c0 1.294-1.725 4.743-5.175 4.743h-1.724V603c-8.193 8.192-13.798 12.074-13.798 15.523h-2.588v-4.312l-7.33 3.88h-.862v-3.88h-1.725c-2.156 0-2.587 1.724-2.587 3.45v1.293s3.88 1.293 5.174 2.587l-1.294 2.156c0 .862.432 1.294 1.294 1.294-3.88 6.899-5.174 11.642-5.174 11.642h-2.588c-2.156 3.88-3.88 6.899-5.174 7.33v-9.918s-2.156 1.294-4.743 4.744l-1.294-1.294s0-.862-.431-.862h-2.156v.43c0-.862-.431-1.293-1.294-1.724-1.724-2.156-3.45-4.743-3.88-7.33-1.294-1.294-2.156-3.019-3.019-4.312-.862-2.156-2.156-4.744-2.587-7.33 0-.432-.431-.863-.431-1.294v-.432c-.431-.862-.431-1.293-.431-2.156 18.542-15.092 29.753-23.285 34.065-34.496h-1.294c-19.404 18.542-28.89 26.303-28.89 28.46 0 2.587-.431 4.311-4.312 4.311h-.431v-.43c0-.432-.431-.863-.431-1.294-2.156-1.725-3.881-3.881-4.744-6.468-.43-.432-.862-.863-1.293-.863 1.293.431 3.45 1.294 6.037 3.45l3.018 1.293c3.018-2.587 4.743-5.605 5.606-9.055 7.761-7.33 12.936-12.074 17.248-13.798v-1.293l-6.9-1.294c0 1.294-1.293 3.88-9.486 6.468l1.294-3.018h-2.156c-4.312 3.88-7.33 7.33-8.193 7.33h-3.019c-.43 1.294-1.293 1.725-3.018 1.725l-.431-1.294h3.018v-7.33h-1.725c-1.724 0-2.587-1.294-2.587-3.019 3.45-6.036 6.9-9.055 11.211-9.055l-1.293-3.018c5.605-7.33 12.074-11.211 18.11-11.211 0-2.587.862-4.743 9.055-6.468v-1.294h-3.881v-2.587c3.88 0 6.037-1.294 8.193-4.743 2.587 0 8.193-3.881 17.679-7.33h1.293l1.294 2.155 2.587-1.293c5.606 0 14.23 2.587 18.542 7.33v1.294l-2.156 3.018c4.312 0 9.487.863 13.367 2.587v2.588l-6.037 1.293c7.762 5.175 14.23 7.33 18.542 7.33v1.294zm-89.69 18.973c0-1.725-1.293-3.018-3.018-3.018h-1.294v3.018h1.294v.862h3.018zm.863-6.468h-1.294v2.587h1.294zm8.193-4.743h-3.019v1.293h3.019zm6.899 4.743h-1.294c-1.293 0-3.018 1.294-3.88 3.88h3.018c1.725 0 2.587-.862 2.587-2.155zm8.193 0h-2.588c.863 1.294 1.294 3.018 1.294 3.88h1.294zm3.88-9.918c.863 0 1.294-1.293 1.294-1.293h-2.587s-1.725 3.018-5.175 5.174c1.725 0 2.588 1.294 2.588 4.312 1.293 0 3.45-2.156 5.174-6.468-.862-.431-1.294-.862-1.294-1.725zm-16.386 41.826h3.019v-2.156c-1.725 0-3.019 0-3.019 2.156zm-2.587 6.468v-1.724l2.587 1.293h1.294v-1.293c0-1.294-.862-2.156-3.018-2.156-1.725.862-3.019 1.293-3.881 1.293.862.863 1.725 2.587 3.018 2.587zm11.211 2.156h-4.312c-4.312 3.881-7.761 8.193-7.761 9.487v1.725h2.587c3.018-7.33 5.605-9.487 9.917-9.487zm32.34-35.358c1.725-.862 3.45-1.293 3.881-1.293v-1.294h-3.88zm-2.587-25.01c-.862-1.293-1.725-3.018-1.725-3.88-8.193 3.018-12.074 4.743-12.074 6.036 0 1.725 0 2.588-3.88 2.588v3.88c4.311-3.018 10.348-5.605 17.678-8.624zm-6.9 31.046v2.588c2.157-1.725 3.882-2.588 5.175-2.588v-2.587c-1.725 1.725-3.88 2.587-5.174 2.587zM491.72 609.9H488.7v1.293h3.019zm3.018-3.45h-1.293c-1.725 0-2.588 1.293-2.588 2.156h3.881zm12.074-14.23h-2.587s-2.587 5.174-10.78 11.642v1.293c3.88 0 6.468-5.605 13.367-12.936zm-3.88 17.248h-3.019v.862h3.018zm2.155.431h-1.293v2.587h1.293zm3.881-6.9c2.156-1.293 4.312-2.155 5.606-2.155l-1.294-2.587c-6.037 2.587-9.486 6.036-9.486 11.21l2.587-1.293h3.018zm12.936-3.449l-3.018-1.725-1.725 1.725zm4.312-11.21c-6.468 0-9.917 3.88-11.21 7.33h5.174c.43-3.45 1.724-4.312 6.036-7.33zm12.074-2.588l1.294-1.294h-1.294zm-6.899-1.725c-2.156 0-3.018 1.294-3.018 2.156h3.018zm5.174-36.652c-.862 0-2.587-.431-3.88-1.293l-3.019 3.88h3.881c2.156 0 3.018-.862 3.018-2.587zM484.39 646.55c.863 2.156 1.725 4.312 3.45 6.468.431.863.862 1.725 1.294 2.156 2.156-3.88 3.018-6.468 3.018-7.33-.862 0-2.587-.431-3.88-1.294zm-81.928 64.25h2.588v-2.157h-2.588zm-35.79 21.99c0 1.725.863 2.587 3.019 2.587v-2.587zm5.175-10.349h3.018s-.431-1.293.431-3.018c0-3.45-.43-3.881-4.312-3.881 3.019-1.294 3.881-2.587 3.881-3.88v-2.157c-3.88.863-3.88 1.294-3.88 1.294v2.587l-.432 1.725h-3.88v7.761c.862 0 2.587-1.293 3.88-2.156.863.432 1.294 1.725 1.294 1.725zm6.899-14.23c3.018 0 3.88-2.156 8.193-2.156V703.9s-5.175 0-11.211 1.294l1.725 3.018zm7.33.431v-1.293h-3.018v1.293zm-9.917 3.019v3.88h3.88c-.862-2.155-1.293-3.449-1.293-3.88zm-6.468 26.734h2.587v-2.156h-2.587zm75.89-25.441v2.587h1.294c2.156 0 3.019-.862 3.019-2.587v-3.881c-3.019 1.725-4.312 2.587-4.312 3.88zm-75.028 17.248v2.156h3.018v-4.743c-1.725.43-2.587 1.293-3.018 2.587zm72.01-10.78v2.587h3.018c0-1.725-.862-2.587-3.018-2.587zm7.33-10.78v1.293c1.725 0 2.587-.862 2.587-2.587v-1.293c-1.724 0-2.587.43-2.587 2.587zm-5.605 3.018h-1.294c-1.725 0-2.587.863-3.018 2.587h1.293c1.725.432 3.019-.862 3.019-2.587zm-65.542 22.422h-3.019l-1.293 5.606v1.725h3.88v-7.33z"/></g><g id="e"><path id="e_left" fill="url(#gradient_e_left)" d="M624.53 593.5c-.431-.862-1.294-1.294-2.156-1.294h-1.725l.431-1.724c-.43-.432-.862-1.294-1.293-1.725l-1.725.431c0-.431.431-1.294.862-1.725-.43-.862-.862-1.293-1.293-2.156l-2.587 2.156-.432-.862.432-1.294 1.293-1.293.431-1.294-3.88 1.725.43-3.019c-2.155-.43-3.88-.43-5.605-.43-7.761 0-14.23 3.018-20.266 9.486l.431 1.724h-.43c-3.02 0-7.762 9.487-14.662 28.46l-1.725 6.899.863 2.156-.863-.432c-.43 3.881.432 6.9.432 9.918 0 7.33 0 11.642 3.88 12.505v3.018c0 4.312.432 6.468 2.588 6.9 4.312 9.055 7.33 13.798 9.486 14.23l-1.725 1.293-1.293 2.156 2.156.431-.432 1.294-1.724 1.725c.43 0 .862.431.862 1.293l2.587-.43c0 .862-.431 1.293-.431 2.155 0 .431 0 1.294.431 1.725l-3.018 1.725c.862.431 1.293.862 2.156 1.293 2.156-.43 3.88-1.293 6.468-2.587l2.156.431c0 1.294-.863 1.725-2.156 1.725h-.431l.43 1.294h2.157c1.725-1.294 3.88-3.019 5.174-4.312 1.725-1.294 3.45-2.156 4.312-3.881 1.294-1.294 2.587-2.156 3.881-3.88 0-.432.862-1.294 2.156-1.726 0-3.45.431-6.468 1.294-9.486h-.432c0-6.9.863-13.367 2.588-20.266l2.156-9.055c0-.431.43-.431 1.293-.863v-1.293c0-15.523 2.156-29.322 6.468-43.12z"/><path id="e_bottom" fill="url(#gradient_e_bottom)" d="M746.99 683.62v-.862s.431.43.862.43c1.294 0 3.019-.43 3.881-1.293-.862-3.88-4.743-5.605-4.743-6.037v-.43c0-2.588-3.88-6.9-9.918-13.368l-1.293-.431c-.863 0-1.725-.431-2.587-.431s-1.725 0-2.588.431c-3.018-1.294-4.312-3.018-4.312-4.743-9.917-1.294-16.817-1.294-21.56-1.294-3.018 0-4.312.863-5.174 1.294l-3.88-1.294h-3.882c-9.917 0-14.66.431-15.523 2.587l-3.45-.862.432-2.156-.862-.431-1.725 3.018-1.294-.431v-1.294c0-.43-3.45-.43-3.88-.43-1.725 0-3.019.43-3.019 1.293-.431 0-.862-.431-.862-.863v-.43c-3.881 0-4.744-.432-6.037-.432h-2.587c-3.45 3.88-6.468 3.88-9.918 4.312l-5.174-.862-.432 1.293-3.88-.862.43 2.156-2.155-.431-.431 1.293h3.018c.862 0 1.725 0 2.156-1.293l1.725 1.293 28.028-1.725 3.45.863-.432 1.293c-4.743.863-9.055 1.294-12.074 1.294-1.725 0-3.45 0-4.312-.431-9.917 1.293-19.835 3.018-28.459 5.605l.431-.862-3.88 1.294-4.744.43c-.43 0-.862-.43-.862-.43-3.45 1.293-6.9 2.156-11.211 3.018-4.743 3.88-10.349 8.193-16.386 11.642v1.294c0 .43 0 .43.431 1.293l-7.33 2.587h1.293c3.019 0 6.9-.43 12.074-2.587l2.156.863c0 1.293-.862 2.156-2.156 2.156h-.43l.43 1.724c-2.587 1.294-3.88 2.156-3.88 3.45l-2.156-.862.43-3.019-2.155-.431c-.431 1.725-2.156 3.88-3.881 6.468.431 0 .431.431.431.862v-1.293c-1.293 0-1.725 1.293-2.156 2.156h-2.587l.431-1.725-3.88 1.294c0-.432.43-1.294.43-1.294 0-1.294-.43-.862-1.724-1.294-.431 2.156-1.294 3.881-3.45 3.881h-.862c-2.156 3.881-3.881 3.881-6.037 3.881h-.431v2.156l3.45.862v1.294l-11.212 10.349-.43 2.156 2.155.431.431-2.156c5.606-3.88 9.056-6.899 9.918-9.486l3.45.431a4592.49 4592.49 0 01-18.11 16.817l-.432 2.156c.863 0 2.156 0 3.45-.431 1.725.431 2.587 1.293 2.587 3.45 0 .862 0 1.293-.431 2.587l1.294-.432h.43c1.294 0 1.726 0 2.157-1.293l.431-1.725h-2.587c.431-1.294 1.293-1.294 2.156-1.294h.431l1.725-.43v.43c0 1.294 1.725 3.45 3.88 3.881 3.881-3.018 6.037-4.312 6.037-4.312h-2.156l-2.587-.431.431-2.587c9.487-6.037 14.23-9.487 14.661-10.78l2.156.431c-7.761 5.606-11.642 9.918-12.074 13.798.432 0 1.294.431 1.294 1.294v.43c8.193-5.605 14.661-9.054 15.092-10.348-.431 0-1.294-.863-1.294-1.294.863 0 2.156.863 3.45 1.294l7.33-2.587v1.293c0-1.293-.862-2.587-1.724-4.743v-1.294l5.174 1.294v1.294c-.431 0-1.294-.432-1.725-.432-1.293 0-2.587.432-2.587 1.294v2.587h.862c3.45-3.88 5.175-2.156 5.175-3.018 29.322-9.055 55.194-15.092 83.653-17.68v1.294c16.386-2.156 34.496-3.018 48.294-3.018h5.174v-.431c0-.431-1.293-.863-1.725-1.294l.863-1.725v-.862l-5.175-.862.432-1.294c2.156.431 3.88.431 5.174.431 5.174 0 9.055-1.725 9.918-6.037zM563.3 719.41v-1.294c0-1.293 1.294-1.293 2.587-1.293l-.431 1.293c-.431 1.294-1.294 1.294-2.156 1.294zm3.018 8.624c-1.293 0-1.724-.862-1.724-1.725v-.431l2.156.431zm4.312-3.88l-1.293-.432.431-3.018 1.294.43zm3.019-3.02l-1.294-.43.431-1.725h1.294zm4.743-2.155l-2.156-.431.431-1.725c1.294 0 1.725.862 1.725 1.293zm0 9.055l-1.294-.431.432-2.156.862.431zm5.174-2.156l-1.293-.431v-.863c0-.862 0-1.293-.431-2.156l2.156.432zm26.734-26.303l3.45.431-.431 2.156c-1.294-1.293-2.587-1.293-3.45-1.293zm-8.624 4.312l2.156.431-.43 1.294-2.157-.431zm-15.954-5.606l1.294.432-.431 1.724-.863-.43zm-1.724 2.588l2.587.43c-.431 1.294-1.294 1.294-2.156 1.294h-.431zm3.88 19.404l-1.293-.432.431-2.156 1.294.432zm-5.605-6.468c-.431-1.294 1.293-3.881 13.367-6.9v1.294c-3.881 1.294-6.037 3.018-13.367 5.606zm8.624 5.605l-1.294-.431.431-2.156 1.294.431zm5.605-7.761c-.43 1.293-3.018 2.156-7.761 3.88l.431-1.293c2.156-2.156 4.312-3.45 7.33-3.881zm18.542-3.019c-.862 0-1.724-.862-3.018-1.293-.862.43-1.725.43-2.587.43-.431 0-1.294 0-2.156-.43 0 .43-.431.43-.431.862 0 1.294.43 4.312 1.293 4.312h-.862c-.863 0-1.725.862-2.587 1.294-.432-2.156-1.294-3.019-2.588-3.019h-.43l-.863 1.725 2.587.862-.431 1.294-1.294-1.294-2.156-1.293c0 .431-.431.862-1.293.862l-.863-.862c.431-2.156 6.9-5.606 18.973-9.487l2.156 1.294c0 1.294-.862 1.294-2.587 1.294-.431 0-.862 0-1.294-.432l-.43 1.294zm3.019-.431l-2.156-.431.431-.863 2.156.432zm9.486-36.221l-2.156-.431v-.863l2.587.432zm22.422-2.156l-2.156-.431v-1.294l2.587.431zm23.716 26.734l-1.725-1.294c-.43 2.156-3.88 3.45-8.624 3.45h-2.587v-1.294l3.881-.43c3.45-2.157 8.193-3.45 8.193-3.45v.862c.431.862 1.293 1.294.862 2.156zm3.019 1.294v-2.156l2.587.43c-.863.432-1.725 1.726-2.587 1.726zm2.156-4.744l-3.45-.43.431-1.294 3.45.43zm10.78 2.156l-3.881-.862.431-1.725 3.88 1.725zm3.018.863l-2.587-.431.431-1.294 2.156.431zm3.45-.431l-2.588-.432.432-.862 2.156.431zm13.367 0l-.863-.432.431-1.724 1.294.43z"/><path id="e_middle" fill="url(#gradient_e_middle)" d="M721.98 624.55c-6.9-9.918-10.349-15.954-10.349-17.248-6.468-4.312-9.486-7.33-9.486-9.486v-.432l-2.588-.43.432 2.155-2.588-.862.432-1.294 1.293-1.725c-2.587-2.587-5.174-3.88-9.055-4.743l-3.45-.431-2.587.431c0-.862-2.156-1.725-5.605-3.018-3.019 0-5.606-.431-8.193-.431-9.918 0-18.11.862-24.147 2.587l.431 2.156h-3.45c-.862 0-1.724-.863-3.018-1.294 0 1.294-1.294 1.294-3.018 1.294-.432 0-1.294 0-2.156-.431 0 .862.43 1.293.862 1.293-.431 1.294-2.587 2.156-6.037 3.019l-.431-.432c-1.294.863-2.587 1.294-3.88 1.725-1.726 1.725-3.882 3.45-6.038 4.743-2.587 9.487-3.018 20.266 0 29.753.432-.862.863-1.724 1.725-3.018l2.156.431c-1.293 1.725-2.156 3.45-3.018 4.312.431 1.294.862 1.725 1.293 3.019.432 0 .863-.432 1.725-.432l6.468 2.156 5.606-1.293v4.743l2.587-1.294c0 .863-2.587 1.294-2.587 3.019v.862l.431.431 24.147-9.486v1.294c3.88-1.725 11.211-3.45 26.303-5.606l-.431-1.294h.431c.862 0 1.725-.862 3.018-1.293l2.588.431c0 .431-.432.862-1.294.862h-.431 11.642l3.88 3.45c0-.431.432.431 1.294.431h.431l1.725.863 3.881-1.294-.431-2.156.431-1.294c.862 0 1.725.863 3.018 1.294.863 0 2.588-.431 3.45-.431s-.862 0 3.45.431v-1.294c0-.862-.863-1.724-1.294-2.587zm-83.222 11.642l-2.156-.431.431-.863 2.156.432zm5.606-.862l-2.588-.432.432-1.293 2.156.431z"/><path id="e_top" fill="url(#gradient_e_top)" d="M585.29 582.29l1.294.431-.432.863c-.43 1.293-1.293 1.293-2.156 1.293h-.43l-1.294-.431.43-1.294c.863-.43 1.294-.862 2.588-.862zm13.798-6.037l-.431 2.587c-4.743 1.294-7.762 2.156-9.055 2.156h-.432c2.156.432 5.175-3.45 9.918-4.743zm-4.312-11.642l2.587.431-.431 1.294c-.431 1.294-1.294 1.294-2.156 1.294h-.431zm3.88-6.468l2.157.431c0 .863-1.294 1.294-3.881 2.156l-2.587-.43c.431-.432 2.156-1.294 4.312-2.157zm1.294 4.312l1.294.431-.431 2.156-.863-.43zm48.294-4.743l.432 2.156c.43 0 .862.431 1.293.431 1.294 0 2.156-.862 2.587-2.587l3.45.862c-12.936 6.037-24.147 9.918-33.634 11.211l-21.129 7.762h-.862l2.156-4.743c-.432 0-.863-.863-.863-1.294l3.881-1.293-.862.43c-.863 1.294-1.725 1.726-1.725 2.588l.862.431c4.743-1.293 11.211-3.45 18.11-6.899 11.211-2.587 19.404-5.606 25.01-8.624l-1.293-.431c-1.725.862-3.45.862-4.312.862h-.863l.431-1.293h3.45c1.294-.432 3.018.43 3.88.43zm-34.496-3.45l-.43 1.725h-.432c-.862 0-2.587.431-3.88 1.294l-1.294-.431.43-1.294s1.726-1.294 5.606-1.294zm-2.156-9.486l1.294.431c1.294.431 1.725 1.294 1.725 2.156v.431l-3.45-.43zm4.312 15.954c1.294.431 1.725 1.294 1.725 2.156v.431h-5.174c-.431-1.293.862-2.156 3.45-2.587zm0-3.018l1.294.43c0 .863-1.294 1.294-3.88 2.157v-1.294c1.293-.862 1.724-1.293 2.586-1.293zm0-12.505l2.588.43c-.432 1.294-1.294 1.726-2.156 1.726h-.432zm5.175 6.468l-.431 1.724-2.156-.43c.43-.863 1.293-1.294 2.587-1.294zm.862 11.642l-.431 2.156-2.156-.432c.431-.862 1.294-1.724 2.587-1.724zm12.074-14.23l.863.43-.432 1.294-9.055 1.294.431-1.725zm-7.761 3.45l5.174 1.293c0 1.293-1.294 1.725-3.88 2.156-1.294 0-1.726-.863-1.726-1.294v-2.156zm.43-21.992h1.294l-.43 2.156h-1.294zm4.744 4.312c0 1.294-1.725 1.725-3.88 2.156v-.862c.43-.863 1.293-1.294 2.155-1.294zm0 21.56l2.156.431-.431 1.294-2.156-.431zm0 4.312l2.587.431-.431.863-2.156-.431zm6.037-28.459l3.45.863-4.313 3.018c-1.293-.862-2.156-1.294-3.018-1.294 0-.862 1.294-1.724 3.88-2.587zm-2.587 6.468l2.587.431-.863 1.725-2.156-.431zm4.743 9.055c1.293.432 1.725 1.294 1.725 1.725v.431h-2.588zm.431 6.468l3.45.432-.432 1.724-3.45-.43zm7.33-23.285l-.43 1.294c0 1.294-.863 1.294-2.157 1.294l-2.156-.432.431-1.724c.432.43 2.156-.432 4.312-.432zm72.442-16.386l2.156.432c.432 0 .432.43.432 1.293v.431c3.88-.43 3.018-.43 3.88-.43 11.211 4.311 16.817 9.486 16.817 14.23 0 .43 0 .862-.43 1.293 4.742 3.45 7.33 6.037 7.33 7.33l-.432 1.294-2.587-.431 1.294 3.45-2.587.43-1.725-1.293c-.431.862-1.725 1.725-3.881 3.018l3.45.863-.432 1.724c-10.78.863-17.248 1.294-17.679 1.294-1.293-1.294-3.018-1.725-3.018-3.45v-1.293 2.156l-6.9-2.587v.862l.863 2.156-3.018.862-6.9-2.156.432-3.018 2.156 1.294h.431c.862 0 1.725-.863 2.156-1.294l.431-1.294c-.862 0-1.293.432-1.293.863l-2.156-1.725-2.156-.431-.432 2.156-6.036-1.294-.432 2.156 5.175 1.294-.431.862c0 1.294-.863 2.156-1.294 2.156h-1.294l-.862-.862-2.156-1.294c0 1.294-.862 1.725-1.725 1.725h-.862l-1.294-.862.431-2.588c-.862 0-2.156-.43-3.018-.43h-1.725l.863 1.724c-.432 1.294-3.45 1.725-8.193 1.725h-1.294l.431-.431 2.156.862.432-1.294-3.45-.43c-.431.862-1.294 1.293-2.156 1.293h-.862c-1.294 0-1.294-.431-1.294-1.294v-.431c0-.431 1.294-1.725 2.156-1.725h.431l.431.431-.862.432h.431c.431 0 .863-1.294.863-1.294l-2.156-.862c-.432 0-.863-.432-1.294-.432-1.725 0-2.587.863-3.018 2.588l-1.294-.432c-.431 0-.862-.862-.862-1.293-5.606.431-9.056.862-9.056 1.725h4.312c1.725 0 3.45.43 4.312.862l1.294 5.606-5.174-.432.862-2.156h-.431c-1.294 0-1.725 0-2.156 1.294l.431 1.725c-2.156.862-3.88 1.293-5.174 1.293-.432 0-1.294 0-1.725-.43l-.431-2.157c.862 0 1.724-.431 2.587-.431s2.156 0 3.45.431l.43-1.725H664.2l-7.762.432-5.174-1.725-5.606-.431c7.33-3.019 12.936-4.744 16.817-4.744.863 0 1.725 0 2.588.432l.862-1.294c0-.431-.862-.862-1.294-.862l1.294-3.019.431-3.88h-.862c-4.312 0-6.9 2.155-7.33 4.311l-5.175-2.156c-1.294 1.294-3.018 1.294-5.606 1.294h-1.293l.431-.431c.862-.863 1.725-1.725 1.725-3.45l2.156 1.294c6.037-.863 10.78-1.294 12.505-2.587l-.431-2.588c2.587-2.587 4.312-4.312 6.468-4.312h.862l-.862-2.156c.43-1.293 1.293-1.293 2.587-1.293h.431l2.587.862-.862 2.587-2.156-.43-.431 2.155c3.018-.431 3.88-1.293 3.88-2.156-.43 0-1.293-.431-1.293-.862v-.431l1.725.43 2.587 1.294 6.899-4.743h-1.294c-.862 0-1.724-.431-2.587-.431-2.156 0-3.018 2.156-3.45 2.156h-.862c-.431 0 .863-.862.863-1.294v1.294h-2.156c-1.294 0-3.019 0-5.606 1.294-1.294-.863-2.156-1.725-3.018-1.725.43-1.725 7.33-3.45 20.698-4.312 1.293 1.293 2.156 1.293 3.018 1.293 0-.862 1.294-2.156 3.018-3.45l-3.88-.862c0-.862 1.293-1.293 3.88-2.156l3.45.432-.431 1.293c-.863 1.294-1.725 2.156-1.725 3.019 2.587-.863 3.88-1.294 6.037-1.294.862 0 1.293 0 2.156.431 0 1.294.431 2.156 1.725 2.156l.43-3.018-3.449-.431.431-1.725c8.193.431 14.23 1.293 17.68 2.156zm-68.56 15.092l3.449.432-.431 2.156-3.45-.863zm1.293 9.487l2.587.431-.431 2.156-2.156-.431zm.862 11.21l3.45.432c0 1.294-.862 1.294-2.156 1.294h-1.725zm10.35 2.157c3.018 1.293 5.174 2.156 8.192 2.587 0 .862-3.45 2.156-9.917 4.312l-2.156-1.294c-.863 0-2.156.432-3.019.432h-1.725l5.175-3.45c-.431 0-.863-.862-.863-1.294 3.019-.43 3.881-.43 4.312-1.293zm-4.313-9.918c-.43 1.294-1.293 2.156-3.45 3.881l2.588.431c.862 0 1.725-.431 2.587-.431h.863v-.431c0-1.294-.863-2.587-2.588-3.45zm0 10.78l-.43 1.725-2.157-.431c.431-1.294.863-1.294 1.725-1.294zm-1.724-33.634l2.587.431-.431 1.725-2.156-.431zm5.605 0l3.45.431-.863 3.019c-1.293 0-2.156-1.294-2.587-3.45zm.863 10.78l-.432.863 2.588.43.43-3.018h-.43c-1.294-.43-1.725.863-2.156 1.725zm.862 5.606v.862l4.312 1.725c0-.862 1.294-1.294 2.587-1.294.431 0 1.725 0 2.587.432l.863-2.156-3.45-.432c-1.293.863-3.45 1.294-4.312 1.294-.862-.431-2.587-.431-2.587-.431zm3.018-6.468l1.294.431h.431c.863 0 1.725-.431 2.156-1.294l-1.293-.862c-1.725 0-2.588.431-2.588 1.725zm4.312-1.294l-.43 1.725c.862 0 1.724-.431 2.586-.431h.863l.431-2.156c-1.294.431-2.156.431-3.45.862zm6.468 22.854h1.294l5.174 1.294-.43 1.293c-3.882.863-6.9.863-9.487.863-1.294 0-2.156 0-3.019-.431l.432-1.725c.862 0 1.293.862 2.156.862 2.156.431 3.45-2.156 3.88-2.156zm-5.174-4.312l3.45.863c0 1.293-.863 1.293-2.156 1.293h-1.294zm5.606-13.798l-.432 3.019.863.43.862-3.018zm.862-20.266l2.156.431-.431 2.156-2.156-.43zm2.587 29.753l-.431 2.156 1.294.431.43-2.156zm3.019-22.854l-.432.863 2.156.43.432-1.293zm1.293 32.34l3.881.863c-.431 1.293-1.294 1.293-2.156 1.293h-3.018zm3.881-12.936v1.294l3.45.431 1.293-1.294-1.293-.43c-.863 0-1.725.43-2.588.43zm6.037-.431l-.431 1.725h.862c.862 0 1.294-.431 1.725-1.294zm.431 3.018l-.431 3.019h.862l.863-3.019zm.431-7.761v1.293l2.156.432.431-.863zm4.312 16.386l2.587.431-.43 1.294-2.588-.432zm1.294-11.642l-.431 2.156 1.293.431.431-2.156zm8.193 6.468l2.587.431v-1.725c-1.294 0-2.156.863-2.587 1.294zm7.33 2.156v1.293c-.431.863-1.294 1.294-2.587 1.294h-1.294l-2.156-.431v-.431h.863c2.156 0 3.88-.863 5.174-1.725zm8.624-4.312l-.431 1.293 2.587.432.431-.863zm4.312 1.725l-.431.862 2.587.431.431-1.293zm11.211-6.468v1.293l2.156.431.431-.862z"/></g><g id="h"><path id="h_left" fill="url(#gradient_h_left)" d="M837.11 629.29c.431-1.725.862-3.88 1.294-5.606 1.724-6.899 3.45-13.367 4.312-20.266-1.294.432-2.156.432-2.588.432l.432-1.725 6.468-37.083-3.45-5.175.431-6.468v-.43c0-1.726-.862-6.038-4.312-11.643 0-2.156-3.88-5.605-12.074-9.486l-3.88 2.587c0-4.312-1.725-6.9-5.175-7.762l-3.018.432c0-.863-.432-1.725-1.294-1.725h-1.294c-2.156 0-3.018 3.88-3.018 7.33h-2.587c0-3.88.431-2.587 1.293-4.312-.862-1.293-1.293-3.45-1.293-4.743v1.725h-3.019v-4.312l-2.156.862c0 4.312-.43 6.9-3.45 6.9h-.43c-.863 3.88-3.019 7.33-5.606 7.33h-.862v2.156l1.724 2.587c-3.018 0-6.036 8.193-9.055 22.854.863 0 1.725-1.294 1.725 2.156h-1.294c-6.036 22.422-11.642 52.606-15.092 81.497.432 15.092.863 25.441 1.725 30.615-.862 0-1.293.862-1.293 2.156l6.468 24.578h3.45v-4.743h.862l1.293 7.33 10.78.863c5.175 4.312 7.762 8.624 7.762 12.074v-1.294h3.88l-.862-2.587h3.881l3.018 6.468h.432c7.33 0 11.21-4.312 11.642-13.798l-2.156-2.587c.862 0 .43-.432.43-1.294v-7.762c1.294 0 2.588-1.293 3.45-4.743l-.862-2.587 3.018-3.88-1.293-2.588c.431 0 2.156-3.45 4.312-10.349 0-.862-.431-2.156-1.294-3.88l2.587-2.588c0-.431 0-.862.432-1.294.43-2.587.862-5.174 1.293-7.33v-.431c.431-9.487 2.587-18.542 4.312-28.46zm-12.074 37.083h-1.294v-2.587l1.294.431zm-44.414-15.523c.862 0 2.587-.431 3.88-1.294v2.588h-3.88zm10.349 26.303h-1.294v-2.587h1.294zm29.753-118.58l-.431 3.88-2.156-2.155zm-5.606 7.762h1.294l3.018-1.725v1.725h-1.293l-.431 8.624h-2.588c0-.863.432-2.588 1.294-4.312.431-.863 0-.863-1.294-4.312zm-9.917 21.99h1.293l-.43 6.469h-1.294zm-3.45 18.974h1.294l-.431 2.587h-1.294zm-10.349 2.587h1.294v2.587h-1.294zm-1.293 3.88h1.293l-.431 2.588h-1.294zm-.432 4.313h1.294v2.587l-1.294-.431zm-6.468 88.827v-2.588c2.156 0 3.019.863 3.019 2.588zm41.826-36.652h-1.293v-2.588h1.293z"/><path id="h_middle" fill="url(#gradient_h_middle)" d="M889.71 618.08c.862 0 1.294.862 1.294 1.294 4.312-.432 9.055-1.294 13.367-3.881.43-1.725.862-3.45.862-5.175-1.725-.43-3.88-.862-5.174-1.724-5.175 1.293-16.386 2.587-32.771 6.468h-1.725v-3.881c20.266-3.019 32.77-5.175 32.77-6.9v-1.293l-6.467 1.294h-1.294l-.431-2.588v2.588h-8.193l-6.899-1.294 1.294 3.018-9.918 1.294h-.862v-3.88h3.88v-1.726l-3.88-.43v-1.294h1.724c2.588 0 8.193-.432 17.248-1.725l5.606 1.725v-3.881h-.862l-3.45 1.293v-1.293c-.431 0-.862.431-.862 1.293-.863 0-1.294-1.293-1.294-1.293h-3.018c-24.147 3.88-37.083 7.761-39.67 7.761l.43-1.724c-18.541 8.624-36.651 16.386-54.761 25.01-5.175 4.743-10.78 9.486-16.386 14.23-.431 2.156-.863 4.312-.863 6.899.432 15.092.863 25.44 1.725 30.615-.862 0-1.293.862-1.293 2.156l.43 2.156c3.45 1.293 6.469 2.587 9.056 4.312 9.055-3.881 18.11-8.624 27.166-12.074 5.606-2.587 9.918-4.743 18.11-6.9v-1.293 1.294c3.88-.863 3.88-1.294 5.606-1.725 1.724-3.019 12.936-8.193 39.239-15.092v-1.294l-2.588-1.725c8.624-3.88 12.074-6.899 12.074-6.899h-1.293c-2.156 0-6.9.863-14.23 3.019l-2.156-.863v-1.293c3.88-.432 7.761-1.725 7.761-3.881.863 0 1.725.431 1.725 1.293 3.881-3.45 8.624-5.605 12.936-6.468 0-.862-.431-1.293-1.293-1.293 0-1.725 3.018-3.019 8.624-3.881l3.018 1.294h.431c1.294 0 3.881-.863 3.881-2.588v-2.587c-8.193 0-9.055-2.156-9.918-6.037h.432zm-104.78 34.496h-3.88v-1.294c.862 0 2.586-.43 3.88-1.293zm6.037 24.578h-1.294v-2.587h1.294zm34.065-10.78h-1.294v-2.587l1.294.431zm32.34-59.074h-1.725c-2.587 0-3.45 0-3.45 3.88h-1.293c-1.725 0-2.587-1.293-3.019-3.018l.863-3.018c1.293.862 4.312 1.294 8.624 1.294zm7.33 6.9h-1.293v-2.588h1.293zm9.487 10.78h3.88v1.293h-3.88zm5.174 8.192h-3.018v-1.294h3.018zm7.33-8.624h-2.587c0-.862-.431-2.156-1.293-3.88h3.88c0 .862-.43 1.293-1.293 1.293z"/><path id="h_right" fill="url(#gradient_h_right)" d="M902.22 759.95v.862c0 1.725-.431 3.019-.431 3.019h-1.294l.431-11.211h-3.018v-4.312h1.725c2.587 3.88 2.587 5.605 2.587 11.642zm18.542-52.606l1.725-3.45h-1.294c-1.725 0-3.018 2.156-4.312 5.606l1.294 7.33c0 1.294-1.294 1.725-2.587 1.725h-.863c0 3.881.863 5.606 3.019 9.918-1.725 0-3.019 1.725-3.019 3.45v1.293h3.881c0-7.33 1.294-15.092 3.45-22.422-.863-.431-1.294-2.156-1.294-3.45zm67.267-175.07l3.88.431c0 3.881-.43 2.587-1.293 4.312l1.294 4.743c-1.294 4.312-3.019 6.037-5.175 6.037h1.725v2.587s1.725.432 1.725 1.294c-3.88 15.954-8.193 25.872-10.349 29.322h-1.294l1.294 6.468.431 5.174c0 1.725-3.88 2.588-3.88 2.588v2.156l2.587-.432-.863 6.037h-2.587l-3.88-.431v4.743h3.88v2.587c-3.88 0-3.88 1.294-4.312 4.744h4.312v2.587l-3.88-1.294-.863 7.762c2.156 0 2.587.431 2.587 1.293 0 2.588-2.156 5.606-6.037 9.056v1.293l3.019-1.293 1.724 2.587c0 1.725-1.293 2.587-3.018 2.587 0-.862-.431-1.294-1.294-1.294l-1.293 2.156-.431 9.487 1.293 2.587c-2.156 0-4.743 7.762-6.899 23.285 3.018 0 3.45.862 3.45 2.156v.862l-3.881-.43v2.155c0 1.294.431 3.019 1.293 3.881l-3.88 6.468 2.587.431v1.294c0 5.174-3.45 7.33-3.881 7.33l1.725 2.587-3.881 6.468c-1.725-.862-2.587-1.293-6.468-1.293v-1.294c3.88 0 6.468-2.587 6.9-7.33l-2.588-.431c-3.018.43-3.88 3.88-4.312 10.349l3.88 6.899c-.862 1.293-1.293 1.725-1.724 5.605h-2.587v-3.88h-1.725c-.862 7.33-2.587 10.78-4.312 12.936l2.587 3.88c-2.587 0-4.312 5.606-7.33 16.386l-5.606 2.156v-2.587l-3.88 2.587v-1.293h-3.881v4.743h-.863l-1.293-7.33h.43c.432 0 .863.862.863 0l3.019 1.724 3.018-1.293-.431.862c1.725-.862 3.018-1.293 3.88-1.293h.432l.431-7.33h-.431c0 3.88-.863 3.88-2.587 3.88h-1.725v-2.156l2.587-3.88-6.468-.432v-3.88l2.156-2.588-2.156-1.294c.862-3.45.862-5.174 2.156-5.174l-2.156-2.587v-2.587l3.88 1.293v-1.293c0-1.294-.862-2.156-.862-6.037h1.294l-1.294-2.156c3.881-19.835 6.9-30.615 9.487-33.202-2.156 0-3.019-.863-3.019-2.587l.432-5.175c0-6.899 1.724-12.505 4.312-16.817-.863-1.293-1.294-3.018-1.294-4.743.862 0 1.294-.431 1.294-1.294l-3.019-1.293c2.156-19.835 5.175-29.753 9.487-29.753l3.45 1.293-2.588-3.88h2.587l.431-3.881h-4.312 3.881v-4.312l-2.587.862h-3.018l.43-7.33h-1.293c0 7.33-1.293 12.074-3.45 14.23 0 .862.432 1.293 1.294 1.293-3.88 14.661-6.468 24.578-6.468 31.046l1.294 2.588c-3.019 6.899-4.312 10.78-4.312 11.642l1.293 6.899c-2.156 0-3.88 6.899-6.468 21.99h-1.293c-2.156 0-3.019-1.293-3.019-3.018l1.725-6.899c-.862-1.293-1.293-3.018-1.293-3.88l-3.019-.432c0 1.294-.431 2.156-1.293 3.881 1.724.431 2.587 1.294 2.587 2.156v.431l-3.019 4.743c1.725 0 3.019 2.588 3.019 7.33v2.157h1.293c0-3.881 1.294-6.468 3.019-6.468.862 2.587 2.156 3.88 3.018 3.88-1.293 4.313-3.018 6.469-3.88 6.469h-.432c-1.725 0-2.156-.863-2.156-2.156v-.432c-3.88.432-5.174 3.019-7.761 6.9h3.018c-2.156 3.88-3.018 9.486-3.45 12.074l1.294 6.899h-2.587c0-3.881-.863-7.33-2.587-11.211h-1.294l-.431 3.88h3.018c-1.293 7.331-1.293 10.35-2.587 12.506-3.018-.863-3.45-1.294-3.45-1.294v-.431c0-1.725-.43-3.019-.43-3.019h-3.02s-.862 4.312-.862 9.487v1.293h.863c0-3.88.862-3.88 2.587-3.88h.431c2.156 0 3.019 0 3.019 3.88h-1.294l3.45 1.294v2.587l-3.881-1.293v5.174h-4.743v-3.88h-.863c-1.293 7.33-3.018 12.073-3.88 12.073l.862 3.019v2.587c0 3.88-.431 6.468-2.156 6.468l2.156 6.899v2.587c0 .863-.863 1.294-1.725 1.294l1.294 2.587c-1.294 4.312-1.725 6.9-1.725 7.762s.431 1.293 1.293 1.293l-1.724 6.468-.432 14.661h-6.468v-6.899l3.881.431c-3.45-4.312-3.88-7.761-3.88-10.349V771.16c.862-29.322 3.88-53.469 9.055-73.735 0-.862-.863-1.293-1.725-1.293 4.743-27.597 8.193-41.826 9.917-42.258l-1.724-2.588c0-4.743 1.724-12.936 4.743-24.578l-3.019 1.294h-1.724c.43-.862.43-1.725.862-2.587l6.9-3.881-1.294-1.725 1.724-3.45h-1.293c-1.294 0-2.587.863-3.881 1.294.431-1.725.862-3.88.862-5.174.863.431 2.156.431 3.019.431h1.293c0-3.88 1.294-3.88 2.588-5.174-1.725 0-1.725-1.294-1.725-2.588v.863h-1.294c1.725 0 2.587-1.294 2.587-2.587-.862 0-1.293-.863-1.293-1.294 2.156 0 3.88-3.018 6.037-9.055l-3.019-1.294c9.055-39.239 16.817-63.818 23.285-73.304 1.725 0 6.468-3.45 14.23-9.917l3.019-1.294 8.192 1.294-2.156 2.587v-.863h2.588l3.018-.43c3.018 1.724 5.606 4.311 8.193 4.311h3.88c.863 0 6.469 5.175 14.662 10.35v1.293zm-97.451 247.51h-1.294c0 .862-.43 2.156-1.293 3.88h3.018zm34.496-172.48h-1.294v3.88h3.019c-1.294-1.724-1.725-3.449-1.725-3.88zm1.294 5.174l-3.019-.43v2.586h.431c1.725 0 2.588-.862 2.588-2.156zm-2.588 3.45c0 .862-.43 2.156-1.293 4.312h3.018v-4.312zm-.862-22.422l1.294.431v-2.587h-1.294zm-2.156 18.542h1.294v-2.587h-1.294zm-2.156 28.459l3.018.431.432-7.761h-1.294c-1.725 4.312-2.156 6.899-2.156 7.33zm-2.587-3.018h1.293l.432-2.156-1.294-.432zm-4.743 10.78l3.88.43v-1.293l-3.88-.431zm0 6.899l2.587.431h1.293c-.862 0-1.724-2.156-1.724-3.018l.862-1.725v-1.294l-.862-.862c.43 1.725-.432 3.88-2.156 6.468zm-7.33 58.643l-3.882-.431v1.293l3.881.431zm2.586-8.624v-8.624h-3.45l-1.724 7.761-.431 6.9h1.293s0-2.588 3.881-2.588v-3.45zm2.156-26.303c.863 0 1.294-1.294 1.294-1.294h-3.88v.431c0 .432.43.863 1.293.863-2.156 3.018-3.019 4.743-3.019 6.468l3.881 3.018 1.725-7.761c-.862 0-1.294 0-1.294-1.725zm3.45-11.211c-.862 0-2.587-.431-3.88-1.294l-.432 3.881c1.294 0 2.587.431 3.88 1.294zm.431-4.312h-1.293v2.587h1.293zm.431 23.716v3.88h3.881c0-1.293-.862-2.155-3.88-3.88zm3.019-16.817H913v3.88c1.725 0 3.019-.862 3.019-2.587zm2.156-20.266h-1.294v2.587h1.294zm3.88 11.642c.863 0 1.294-.431 1.725-1.294l-3.018-1.293c0 2.587-.862 3.88-1.294 3.88l1.294 2.588c-.862 1.293-1.294 1.293-1.294 5.174h3.019l-3.45 2.587v.863h3.45l.862-6.468v-3.881zm6.469-28.46c-2.588 0-3.881 3.882-6.037 11.212h-3.019l.432-3.881h-1.294v6.9c3.018 0 3.88 2.155 3.88 5.174v2.587h.863c2.156 0 3.019-1.294 3.019-2.587l.43-9.918zm2.156-11.641l-1.294-.431c-2.156.43-3.018 1.293-3.45 2.587l3.881 2.587zm0-7.762c1.293-1.293 1.724-3.018 1.724-4.743l-3.018-1.294-1.725 7.762c.863 1.294 1.294 3.018 1.294 3.88-.863 0-1.294.432-1.294 1.294l3.019.432c0-1.294.43-2.156 1.293-3.881zm3.45-28.028h-1.294v5.175h1.293zm3.88-14.66h-1.294l-.43 5.174h1.293zm-2.156 161.7c-.862-1.294-.862-3.45-.862-6.038v-1.724l-4.312 2.587c1.724 3.45 2.587 6.037 2.587 7.33l1.725.431c-.863-1.293 0-2.587.862-2.587zm3.88-51.745h-1.293l-.431 2.587h1.294zm2.588-37.083l-2.587-.431-.431 1.294 3.018.43zm.431-1.293h1.294v-5.175h-1.294zm3.45 70.286h-3.019v2.587c1.725-.431 2.588-1.725 3.019-2.587zm.431-60.8l-2.587-.43-.431 1.293h3.018zm-2.587-58.642l-1.294-.432v2.588h1.294zm3.45-19.835h-1.294c0 3.88-1.294 11.21-3.45 18.542h3.019c0-3.881.43-3.019 1.724-4.744l-1.293-3.018 1.293-6.037zm1.724-7.33h-1.293c-1.294 3.88-1.725 7.33-1.725 7.33h3.018zm7.762 119.44c-.863-1.294-1.725-3.02-1.725-5.175v-2.587l-.431 9.486 1.293.431c0-1.293 0-2.156.863-2.156zm1.293-11.643c-.862-1.293-1.293-3.88-1.293-6.899h-3.019v3.88c0 1.726 1.294 2.588 2.588 2.588zm3.45-8.193h-3.018v1.294h3.018zm0-9.486c0-1.725-.862-2.587-2.587-2.587l-.431 4.743h.43c1.726 0 2.588-1.294 2.588-2.156zm3.45-16.817l-3.881-2.156h-1.725v3.45l-.862 2.156c.862 0 2.587.862 4.312 1.724.43-2.156.862-3.45 2.156-5.174zm3.45-25.01h-3.02v2.156h.432c1.725.431 2.587-.862 2.587-2.156zm1.724-9.486c0-1.294-.862-2.156-2.587-2.156l-.431 2.587 3.018.431zm3.45-60.368v-2.588c-2.156.432-3.019 1.294-3.019 2.588zm-.432 54.33v1.725h2.588l.43-1.293z"/></g><g id="o"><path id="o_left" fill="url(#gradient_o_left)" d="M1008.7 670.26l1.725 6.037c-.431 0-1.725.431-1.725 1.293v.863h2.587c3.881 7.33 5.606 13.798 9.918 13.798v.431c0 .431-1.294.862-1.725 1.294 0 .862.431 1.724 1.725 3.45 6.037 9.054 14.66 15.522 25.872 20.697 1.293-.862 2.587-1.293 3.88-2.156 2.588-1.293 7.331-5.605 11.212-9.055 4.312-4.312 8.192-8.624 11.21-12.936-1.724-6.9-3.88-12.074-6.467-14.23l2.587-.431-.863-4.743-1.293.43c-.431-1.293-.431-3.018-.863-3.88v.862l2.588-.43-.432-1.294-2.587.43c-.431-1.293-.431-3.018-.431-3.88 0-2.156.862-3.45 1.725-3.45l-.431-3.88v-.432c0-1.293.43-3.018 1.724-4.743l-2.156-10.349c1.294-5.174 3.019-7.761 4.744-8.193l-2.588-6.036-1.293-1.294c3.018-.431 3.45-1.725 3.45-4.312v-1.294c8.192-12.936 9.486-19.835 11.641-20.266 4.312-7.33 9.056-14.66 14.23-20.698l2.588.863v-.863c0-2.587 3.88-5.174 9.486-7.761 0 .862 1.294 1.293 1.725 1.293l3.018-1.293c-2.156-4.312-3.88-6.9-5.174-6.9l-.431-3.88-3.45-3.019c-.431 0-.862.432-.862 1.294v.431c-3.881-1.293-12.074-4.312-21.56-8.624-6.037.863-10.78 2.156-13.798 4.312l-.432-3.45c2.156-.43 3.881-1.293 4.744-2.155l-6.037-4.312c-11.211 3.45-24.147 18.542-40.102 45.707-2.156 8.624-3.881 12.505-5.175 12.936l-1.293-2.156c-.863 0-1.725.43-1.725 1.293v.431l-.431.432 3.018-6.9v-3.018c-1.725.431-3.88 3.018-6.037 8.624-3.018 15.954-4.743 23.716-6.036 24.147 0 6.037.43 10.78.43 15.092 0 8.193-.43 12.505-1.293 13.798zm75.46-83.222l.431 2.156-1.293.431-.432-2.156zm-2.587 6.468l-2.587.431v-.431c0-1.294.862-1.725 2.156-2.156zm-4.743-29.322l2.587-.431v1.293l-2.587.432zm-16.386 80.634l-2.588.431v-1.293c.863 0 2.156-.863 3.45-1.725zm-1.725-7.762l1.293-.43.432 2.155-1.294.431zm1.293-1.724l-.43-2.156 1.293-.432.431 2.156zm2.588-6.468c0-1.294.862-2.156 2.156-2.588l1.293-.43.431 2.155zm6.899-19.404l.431 1.293-2.587.431-.431-1.293zm-1.294 6.899l.431 2.156-1.293.431-.431-2.156zm-1.293 6.468l.43 1.293-2.586.432-.432-1.294zm-6.9-64.25c0-1.293.863-1.724 2.156-2.155l1.294-.431v.43c0 1.294-.862 1.726-2.587 2.157zm0 21.13l.432 1.293-2.588.432-.43-1.294zm-4.312 83.222l.432 2.156-1.294.431-.431-2.156zm-30.615-36.221l.432-4.743 1.293-.432.863 4.744zm7.33 28.89l1.294-.431.432 2.156-1.294.43zm1.726 51.744l-.432-1.294 2.588-.431.43 1.294zm15.092-115.99l2.587-.431c-3.019 4.743-3.881 9.055-3.881 12.505 0 .862 1.294 1.724 1.294 2.587-3.019 1.725-3.45 3.88-3.45 5.174v.431l-2.156.432-.862-1.294zm-7.33 37.514l2.586-.431v1.293l-2.587.431zm-6.038-5.606l-.862-1.293 3.88-.863.432 2.156zm1.725-29.753l1.294-.431c-.431 1.294-.431 2.156-.431 3.018v.432l-2.588.43zm-4.743 8.193c0-1.294.862-1.725 2.156-2.156l.431 1.294v.43c0 1.294-.862 1.726-2.587 2.157zm-1.725 41.826l2.587-.431.432 2.156v.431c0 1.294-.863 1.725-2.588 2.156l-1.293.431c.431-.862.431-1.725.431-3.018.431-.431.431-1.294.431-1.725zm-1.725-22.854l-1.293.431-.431-2.156 1.293-.431zm-2.156-18.542l.432 2.156-1.294.431-.431-2.156zm-1.293 7.33l.431 2.156h-1.294l-.43-2.156zm0 26.303l.431 2.156-1.294.432-.43-2.156zm-.863 10.78l-1.293.432-.863-3.881h1.294zm-1.724-30.184l.43 2.156-1.293.432-.431-2.156zm-3.019 5.175l2.587-.431v1.293l-2.587.431zm-.862 18.11l1.725 8.193-1.294.43c0-.862-.862-1.724-2.156-3.449l.431-4.743zm-.431-32.34c0 .862-.863 4.312-2.156 11.21l-2.588.432c2.156-7.33 3.881-11.211 4.744-11.642zm-3.881 14.23l.431 3.88h-1.294l-.862-3.449z"/><path id="o_right" fill="url(#gradient_o_right)" d="M1072.1 724.59l-.431-2.156h1.293l.432 2.156zm53.469-8.624l1.294-.431c1.293 0 2.156-.863 2.156-1.725v-.862h-1.294c-1.294.43-2.156 1.724-2.156 3.018zm1.294-167.74l-.432-1.294-2.587.432.431 1.293zm5.174 117.72h-1.294c-1.293 0-2.156 1.294-2.156 2.156v1.725c2.588-1.294 3.45-2.156 3.45-3.881zm5.606-4.312l-.432-1.294-1.293.432c-3.019 2.156-3.881 3.88-3.881 4.743l2.587-.431c2.587-.863 3.019-2.156 3.019-3.45zm-3.45-120.3l1.725-.431-.431-2.156-3.881.431c.431 1.294 1.293 2.156 2.587 2.156zm1.725 6.9l-.431-2.157-3.881.431-2.587 1.294 1.724 2.156zm-20.266 134.97c1.293 0 2.156-.863 2.156-1.726v-.862l-3.881.431.431 2.156zm9.917-9.056l2.588-.431v-1.294l-2.588.431zm20.698-23.716l-1.293.431c-1.294 0-2.156 1.294-2.156 2.156v.431l3.88-.862zm29.322-21.129l.432 2.156-3.881.431-.431-2.156 6.036-16.817-.862-4.743c-8.193 20.698-13.367 31.478-15.092 31.478l.431 2.156 1.294-.431 2.587-1.294.431 2.156-3.88 6.9 1.724-.432c5.175-5.174 8.624-8.624 8.624-10.78v-.431l-2.156-2.156-.431-2.156 2.587.862 1.294-.43 2.587-1.294c.431 2.156 1.725 3.45 3.018 3.45h.432c-1.725-3.882-3.019-6.9-3.019-6.9zm8.624-11.211l-.43-2.587c-1.294 0-2.157 1.293-2.157 2.156v.431l.431 2.156c1.294 0 2.156-1.294 2.156-2.156zm-25.44 27.597l2.587-.431-.432-1.294-2.587.431zm15.091-44.845l-1.724.431v.431c0 1.725-3.45 9.056-7.33 21.56l-9.056 17.248c0 .863 1.294 1.294 3.88 1.725 1.294 0 3.882-6.037 8.625-17.679l-.431-1.293-1.725-2.156 2.156-.432c3.018-3.88 5.605-10.78 5.605-19.835zm2.156 50.019h2.588l-.432-2.156c-1.293 0-2.156 1.294-2.156 2.156zm-22.854 7.762c0 1.293.863 1.293 2.588 1.293h.43l2.588-1.293c0 .43.431 1.293.862 1.293h.432l1.293.431c0-.43-.431-.43-.862-.43h-.431v-1.294c0-1.725.862-3.881 2.587-6.9l-.431-1.293h-2.588c-.43 4.743-2.587 6.899-6.468 8.193zm34.496-5.175c1.725-.431 2.588-1.293 2.588-2.156v-.431l-2.588.431zm-1.724-30.184c-3.881 2.587-5.606 4.312-5.606 5.606v.431l.431 1.294 5.175-.863 3.45-3.018zm-2.156 13.798l.43 2.156c1.726 0 2.588-.862 2.588-2.156v-.431l-.431-2.156c-1.725.431-2.587.862-2.587 2.587zm-15.954 13.367l.43 2.156 1.294-.431-.43-2.156zm10.78-21.129l1.724-.431v-.431c0-1.294.432-3.019 2.588-6.037l-1.294-2.156c-.431 0-1.294.431-1.294.862v1.294c-.43 0-.862-.862-1.293-1.294l-3.45 3.019c1.294.431 2.587 2.587 3.019 5.174zm7.33-27.597v-1.725l-2.587.432.431 3.88c1.294-.862 2.156-1.293 2.156-2.587zm-6.468 12.505l-1.294.431.432 2.156 1.293-.43zm-31.478 53.47v-.863l-.431-2.156c-1.294.431-2.156 1.293-2.156 3.018l.431 2.156c1.725 0 2.156-.431 2.156-2.156zm-10.78 31.908l2.587-.431c0 1.294-5.605 6.037-16.817 15.092-2.156-.431-3.45-.862-3.88-.862l-.863 2.587c2.156 0 3.018.862 3.45 2.156-1.294 0-6.468 1.293-15.092 3.88l1.724 2.157c-1.724 1.293-3.018 1.724-3.88 2.156-1.294-.432-2.588 0-3.45 0h-2.156v-.863c0 1.294 0 1.725-1.725 2.156-1.293-1.293-1.293-2.587-1.293-3.018l-4.744 3.018c-.43-2.587-2.587-3.88-6.036-3.88-1.294 0-2.588 0-3.881.43l2.156 2.157h-1.294c-5.605-3.881-9.055-3.881-9.486-7.33h-1.294l.863 3.018-2.156.862v-1.294l.43-2.156-3.88-.862c-1.294 1.294-3.018 1.294-4.743 1.725l-.431-2.156-6.037 2.156c-3.45-1.294-6.037-2.156-9.055-3.45 1.293-.862 2.587-1.293 3.88-2.156 2.588-1.293 7.33-5.605 11.211-9.055 4.312-4.312 8.193-8.624 11.211-12.936.432 1.294.432 2.587.863 3.88 8.193-1.293 15.954-4.311 23.716-8.623l5.174 1.293c1.725-1.293 2.587-1.293 3.881-1.293l1.294-.431v1.293c-3.881 3.881-10.35 7.762-17.68 11.642l.432 1.294 2.587-.431c6.468-1.294 14.661-4.744 24.578-11.211l1.294-.432.43 1.294-2.586.431.43 3.881 1.294-.431c0-.863-.43-1.294-.43-1.294 0-1.293.862-2.156 2.155-2.156l.431 1.294c2.588-1.725 4.312-3.019 6.037-3.45l-.862 2.587 5.174-.862 4.312-4.312h1.294l-.863 3.018c1.725.432 3.019 1.294 3.45 1.294h.862l.863 3.88c-3.881.432-5.175 2.157-5.175 5.606 0 .863 0 1.294.432 2.156zm-20.266-3.018c-.431-1.294-1.294-2.156-2.587-2.156h-.431l-1.294.431.431 2.156zm6.037-2.156l-.431-2.156-1.294.431c-1.294 0-2.156 1.294-3.45 3.88l1.294-.43c2.156-.863 3.018-1.725 3.88-1.725zm8.193 8.193l-.432-2.156-1.293.43.431 2.157zm15.092-43.982l-.432-2.588c-2.587 3.019-3.88 4.312-5.605 4.744l.431 2.156c4.312-1.725 5.606-3.45 5.606-4.312zm40.533-92.277a13.91 13.91 0 003.45 5.605l-5.606 4.312v-1.293l-.432 2.156h.432v-.863c0-1.293.43-1.293 2.587-1.725l-1.294-1.293h-6.468c.863 3.88 3.881 6.899 8.193 6.899.862 0 1.725-.431 2.587-.862l.431 2.156c-1.293 0-1.724 1.293-1.724 3.018 0 .862 0 1.725.43 3.018l-6.467-.43-1.294.43 1.294 6.037c-2.587 6.037-3.881 9.487-4.743 9.487 0-.432-.432-.432-1.294-.432h-.431c0-3.88 1.293-7.761 2.156-7.761l-1.294-2.156v-.431c0-1.294.431-3.019 3.019-4.312 0 .862 0 .862.862.862l-.862-4.312h-1.294c-1.725 0-3.018 0-3.45-1.294l-.862-2.587-1.725.431v-1.724c0-.432.431-.863 1.294-1.294-1.294-1.294-1.294-2.587-1.294-3.45l-2.587 1.294-1.725-2.156-.431-3.45 3.018.432-.43-2.588c-7.762-12.074-13.368-17.679-17.68-17.679h-.431l-2.587.432.862-2.588-.431-2.587-2.587 1.294h-.863c-1.293 0-2.587 0-3.018-1.294.862 0 .431 0 .431-.431v-1.294h.863c-1.294 0-2.156.432-2.588-1.293h-.43c1.293 0 3.018-1.294 3.88-4.312 9.055 4.312 16.817 9.486 22.854 15.092l2.587-.431-.862 3.018.431 3.45h.431c3.019 0 5.606 0 9.055 7.33h.432c1.724 0 2.587.862 3.018 2.587l2.587-1.725zm-8.193 10.78l-2.587.43v1.294l2.587-.43zm-50.45 109.52l-2.587.43.43 1.294 2.588-.43zm59.506-95.726c-1.294 0-2.587 0-3.881-.432h-1.294c0 .863.432 1.294.863 1.294h.431l-.862 2.587.43 1.294h.432c1.294 0 3.018.431 4.743 1.293 0-.862-.431-1.293-.431-2.156 0-1.724.862-2.587 2.156-3.018l-1.725-2.156c-.431.431-.862.431-.862 1.294zm12.505 6.468l-2.587.43.43 2.157 2.588-.431zm-58.212 98.745l.431 1.293 2.587-.431-.431-1.294zm5.605-25.872h1.294c1.725-.432 2.587-1.294 2.587-2.156v-.432l-1.293.432c-1.725 0-2.588 1.293-2.588 2.156zm4.312-11.642l-.862-1.294c-3.45 1.294-5.606 3.88-6.9 6.9v1.724l1.726-.431c3.45-3.881 6.036-6.468 6.036-6.9zm1.294-9.487l-.431-1.293c-3.45.43-5.175 2.587-5.175 6.036l2.588-.43c1.724-1.294 3.018-2.588 3.018-4.313zm-2.156 18.11l.431 1.294 2.587-.431-.862-3.881c-1.725 0-2.156.862-2.156 3.018z"/></g><g id="nine"><path id="nine_left" fill="url(#gradient_nine_left)" d="M1315.3 533.14v-.862c-8.193 8.624-12.074 12.936-12.074 13.798v1.293c0-.431 8.193-4.743 12.074-14.23zm-18.542 25.01l-2.156-.431v1.293zm-6.037 0l3.881-.431v-.431c0-1.294 0-2.588 3.88-2.588v-.43c0-1.294 1.294-3.02 3.882-6.469l-.432-.862h-.862c-6.9 3.88-11.211 7.761-11.211 9.486v1.725zm15.092-6.9v-1.724c-1.293 0-1.725.862-2.156 2.156zm18.542-34.495l2.156-.431v-.863l-2.156.431zm-1.725 5.605v-1.724h-1.293l.431 1.724zm-26.303-7.761c-1.293 0-1.724.862-1.724 1.725h2.156zm22.854 10.78v-1.294 1.294c0 .431 0 2.587-3.88 6.037v1.293c0-.431 3.88-2.587 3.88-7.33zm-21.56 32.34l3.45.431c.862 0 1.725-1.294 2.587-4.312-3.88 0-6.037 1.725-6.037 3.88zm9.487-1.294v-1.293h.431l.431 1.293s5.606-11.21 5.606-12.074c0 1.294-3.881 6.468-11.642 15.954l2.587-.431c1.294 0 2.587-1.725 2.587-3.45zm-90.121 3.45c0-6.9 3.018-15.523 8.193-25.01 1.724-3.881 3.88-5.606 6.036-6.037v.862c-1.724 2.588-3.88 6.9-6.036 12.936v1.294-.862c0-2.156 5.174-9.487 13.798-21.56l-.863-.863c-2.587 0-3.45 2.156-3.88 6.9l-.863.43v-.862c0-3.45 1.294-7.761 6.468-12.505h1.294v1.725s-2.588 1.294-3.45 4.312l2.156.862c0-.862 3.88-4.312 11.211-11.21 0-1.294 4.312-3.45 12.936-5.606l3.45-.431c3.88.43 10.78 3.45 19.835 9.486l.862-.431.431 3.018-.862 1.725h.862c1.725 0 2.156.431 2.156 1.294 0 2.587-4.743 6.036-15.092 13.367h-.862l2.587-3.019c-2.587 1.294-3.018 1.725-3.018 2.587v.432l1.293-.432c-3.018 4.312-6.037 6.9-8.193 6.9l.432 3.88 3.018-.43v-3.45.862c-8.193 13.367-12.074 22.422-12.074 26.734v1.294c0 1.293 3.018 1.724 6.468 2.156 1.294-.863 3.018-1.294 3.88-1.294l2.588.862c.862-.862 2.156-1.293 3.88-1.293l-1.293-1.294 3.019-.431v1.725l6.036-2.156v.862c0 1.294.432 1.725-3.88 2.156h3.88l-.862 3.881h.431c.863 0 .431-.862.431-.431v-.431c0-1.725 3.881-4.312 9.487-6.468 3.88-3.019 7.33-4.312 7.33-7.762h3.019l1.293 4.743-2.156 2.587h-.862v-2.587c-1.294.431-1.725 0-1.725 1.294v.431h1.725c-7.33 7.33-12.505 11.211-15.092 11.642l.431 1.294h.431c1.725 0 1.725.43 1.725 1.293 3.018-1.293 6.468-3.018 6.468-4.743v.862c0 3.881-3.88 6.037-8.193 6.037v1.294c0 .862 2.587 2.587 3.881 2.587h.862c1.725 0 3.45-1.294 4.744-3.45l-3.45 6.9h-.862c-3.019 0-4.312 0-4.312 3.88h.43c.432 0 1.294-.43 1.294.432-3.018 1.293-6.468 1.724-6.468 1.724v.863l3.45-.431c0 .862-3.018 2.587-6.9 4.743h3.882v2.156l-1.294 1.725h-1.294c-1.293 0-2.587-.863-3.45-.863l-5.605.863h-2.156c0-3.881-1.725-2.588-3.88-4.312l-2.157.862h-1.724c-.863 0-1.294-.431-1.294-1.294.431 0 1.294-.43 1.294-.862v-.431l-3.45-1.294-2.156.431 1.294 1.294v1.294s-2.588-.863-2.588-2.588l-2.156 1.294c-8.192-3.018-12.074-5.174-12.505-6.468l-7.761-4.743c.431-.863.431-1.294.431-2.156v-.431l-1.294 1.293c-7.33-6.037-10.78-10.349-11.21-14.66h.862-.431c-2.156-.863-3.881-4.313-4.312-10.78zm47.432-16.817l.431 1.293h.862v-1.724zm-8.624 19.835l.431 1.725h.862v-1.725zm-15.523-34.927l.431.862 2.156-.431-.431-.862zm-15.092 16.817l.431 1.725h1.294l-.432-1.725zm-3.45 2.156l.431 3.45h.863l-.431-3.881zm-.431 6.899h1.294l-.432-1.725-.862.431zm65.974 12.505l.862-.431c3.019-1.725 4.312-3.019 4.312-4.312l-2.156.431c-1.724 1.294-3.018 1.725-3.88 2.156zm28.028-25.872l-1.725.431c-.862 0-2.587 2.587-6.468 7.33v1.294c3.881-1.293 3.881-3.018 3.881-4.743v-.431l3.018-.431 1.294-1.725zm-58.643-36.652h-1.294c-3.45.431-5.174 1.294-5.605 3.018l.431 1.294c4.743-2.156 6.468-3.018 6.468-4.312zm-6.468 6.468c0-1.294-.862-1.294-2.156-1.725l-.862.431c-1.294 0-1.725.863-2.156 1.725.862 0 1.724.431 3.45.863zm-4.743.431h-.863c-1.293 0-1.724.863-1.724 1.725h.862c1.294 0 1.725-.862 1.725-1.725z"/><path id="nine_right" fill="url(#gradient_nine_right)" d="M1196.7 837.99h-.862s.43 1.725 1.293 2.587c0 1.294-.431 3.45-.431 4.312v3.881-2.587l-.431-1.725c-1.294 0-3.881-.862-3.881-1.725v-.862s3.88-1.294 3.88-3.019v-.862zm-3.88-9.055l3.88-.431c0 .862 1.294 1.724 3.018 3.45l-3.88 4.742-.432.432c.863-1.725 1.725-3.45 1.725-4.744v-.862l-.862-.431h-3.45zm109.09-260.44c2.155-1.294 3.88-5.175 6.036-11.642 0 0 5.606-11.211 5.606-12.074l.43-1.725c5.606-9.486 11.212-19.404 14.662-28.459-.431-5.174-3.45-9.486-9.055-12.074l-2.156.431-6.9 1.294v-2.156l3.881-.431v-.863l-3.88.431v-.43c0-2.588 1.724-4.744 4.311-6.9 6.468.862 10.35 1.294 10.35 2.587l1.724-1.293c.863 0 4.312 2.587 11.211 8.192 8.624 3.019 12.936 6.037 13.367 7.762l2.156-.431h.863c.43 0 2.156 3.88 5.174 3.88h1.294c4.743 0 6.899 4.313 11.21 9.487v1.294c-3.88 18.542-6.467 28.028-9.055 28.459.863 1.293 1.725 1.724 2.156 2.587-3.018 0-4.312 4.312-5.174 12.074l-.862-.863c0-.43 0-1.293-.432-1.293h-.43c-3.882 11.21-7.331 17.679-9.918 18.973l-.432-2.587-1.293.43c-.863 0-2.156 1.726-3.45 4.744.863 0 1.294.431 1.294.862l1.293-1.293 2.588-.431v1.724c0 3.881-6.037 9.487-9.918 18.11l-3.018.432h1.724c.863 0 1.294 1.293 1.294 1.293l-3.88 9.055c1.293 0 2.155.863 2.586 1.725l-3.018 2.587c0-.43-.431 0-.862 0h-.432c-.862 0-1.293 3.45-5.174 3.881v-1.725l3.88-1.724h-2.586s-1.725 2.587-1.725 4.743v.431l.862-1.725h.863l1.293.863c0 .862-3.018 2.587-3.018 4.312v-1.725l-3.019 1.293c1.725 1.725 2.156 3.45 2.156 4.312-4.312 2.588-6.899 3.881-6.899 4.744v1.293l1.725-1.293.431 1.293-1.725 3.019-2.156-.863c-1.293 0-2.156.863-2.587 4.312h.863c2.156 0 3.45 1.294 3.45 3.45l-2.157 1.293-2.587-.862c-.862 3.88-.431 6.9-4.312 9.055v.863c0 1.724-.862 4.312-3.45 8.192l-2.156 4.744h.432c.43 0 .862.43.862.862-3.018 0-5.174 4.743-7.762 13.367-1.293 0-4.743 8.624-12.074 25.441-3.45 4.743-3.88 8.193-3.88 10.349v.431l-3.881.431v-1.293l1.293-1.294h-1.293v-.862c0 1.293-.863 2.156-2.587 2.156l2.587 2.587.431 1.725-14.661 33.202.431 2.587-2.156.431c0 .431.431.863 1.294.863-5.606 13.367-9.918 23.285-12.074 29.753-1.725 0-2.587 1.293-2.587 3.88-.863 3.881-3.45 5.606-3.45 6.037v-.431h2.156l2.156 1.725v1.293c0 4.744-2.587 10.35-6.468 17.68-.862 2.587-1.725 4.311-1.725 6.036v.431l.863 1.725c-1.725 3.019-3.45 8.193-3.45 12.074h-1.725l-.431-1.293.862-2.156h-2.156c-1.293 0-2.156 3.88-3.45 7.33h-.862l-2.587.862v1.294c0 1.294 0 1.294-.431 1.294.862 1.293 1.294 1.724 1.294 2.587-.432 1.293-.432 2.156-.432 3.018l-3.018-.862c-3.018 2.587-5.174 4.743-5.174 6.899h3.45l.43-3.45.432.432v7.761c.862 1.294 1.293 1.725 1.724 2.587l-2.156.432-1.293-3.881-2.156.431 1.293 1.294.432 1.293-2.156.863-.432-3.45h-.862l.431 3.88h1.294l-.863 1.294 1.725 6.037h-2.156l-.431-3.88-1.725.862c-1.725-1.725-2.587-4.312-2.587-4.312h-3.88v1.293c0 .863.43 1.294-.432 1.294l1.294 1.725.43 2.587-.862.431c-1.293-4.743-3.018-6.899-4.312-6.899-.43.862-.43 1.725-.43 3.018v.432h-2.157c-.862 0-1.293 0-1.293-1.294l-.432-1.294c.863 0 2.156-.862 3.881-2.587 0 .431.431.863 1.294.863l-.431-1.294-1.294-4.312-.862.431c0 1.294-1.294 2.587-3.881 3.881l1.293 1.294.432.862h-1.725c-.863 0-1.294-.431-1.294-1.294l-.431-1.724h2.156l-.431-1.725-2.156-2.156.431-1.725 3.018-.431v1.725l2.156-.432-2.156-9.055v-.862c0-1.294-.862-4.743 0-4.743h-.43c-.863 0-.863-.432-1.294-1.294.43 0 1.724-.431 1.724-.862v-1.725l-2.587-.863-.431 3.019h-1.294c-.862 0-1.293-.863-1.293-1.725.862 0 1.725-1.294 1.725-3.88v-1.294l1.724-.432c0 1.725-.43 2.588 0 2.588l2.156-.432v1.725h3.881V843.6c0-1.724-3.018-1.724-3.88-1.724h-.432l1.294-18.542h-.863v1.293c0 2.156-1.293 3.019-2.156 3.019-.43-2.588-3.018-3.881-6.036-3.881h-2.588 1.294l2.156.431c0-.862.431-1.294.862-1.294 0 .432.432.863.863.863h.431l.862-2.156h-3.45l-.43-2.587 1.293-.432 3.881 1.294c.431-.431.431-1.294.431-3.018 0-.863 0-3.019-.431-4.312 1.294 0 2.587 3.45 3.018 6.899h.863c.862-7.33 3.45-20.266 6.899-30.615h.862c0 .431.432 1.293.863 1.293h.431l-.431-1.724-1.294-1.725h1.294l3.45 1.725c0-2.588.862-3.881 2.587-3.881l-.432 2.587c1.725-.431 1.725-1.725 1.725-4.312v-1.294l-3.88.432v.862c0 1.725 0 3.45-2.157 3.45h-2.156v-1.294c3.881-9.486 4.312-14.23 6.9-14.23l-1.294-4.312 3.018-1.294.432 1.725h.862l1.294-6.037h3.018l-.431 4.312 2.587-2.156h1.294c-2.156 3.881-3.019 6.9-3.45 10.78h2.156l.431 1.294-2.156-1.294h-1.293l.43 2.156 1.726-.862.43 1.294-.43 4.312-3.881-1.294-3.45 6.9v1.293h2.156l.863-1.725h1.293l1.725.862c-.862 1.294-1.725 3.45-1.725 5.606v1.294-3.881l-3.45.431v2.587l-5.605 23.285h-1.725l-.431-.862c.431-1.294.862-2.156.862-3.019l-1.724.432v7.33c0-1.725.862-2.587 1.724-2.587l1.725 1.293c-.431 1.294-.862 2.156-.862 3.019l1.293-.431 1.725-1.725c0 .431.431 0 .863 0h.43l.432-4.312c-.862-1.294-1.294.862-1.294-3.019h1.294l-1.294-1.724-.43-1.725h2.155l.431 3.88c1.725-1.724 3.881-10.348 8.193-26.733l-.431-2.588c.862 0 1.725-.862 2.587-1.724l-1.293-1.294c3.45-5.174 5.174-7.762 6.036-7.762l-.862-1.724c.862-6.037 1.725-10.35 5.606-13.798v-1.294l-.863-1.294c3.019-.43 4.743-2.156 4.743-5.174v-1.294.863-1.294c0-5.174 3.45-9.917 8.193-14.66v-7.762l-3.88 1.293c0-1.293 3.88-3.018 8.192-4.312v-1.725c0-1.293-.431-3.018 0-3.45-1.293 0-2.587-.862-3.018-4.311h-2.156l.431 2.587-2.156.862c0-1.293-.862-1.724-2.587-2.156 1.293-3.018 2.587-3.88 3.88-4.312 0 1.294 2.157 2.588 5.606 3.45l-.431 1.725v.862c0-1.293 2.587-1.293 3.88-1.293 0-1.294-1.724-.863-3.018-.863h.432l-.432-2.156 2.588-5.174h-.432c-.43 0-.43.862-.43 0h3.018l.43 3.88h.863l-.431-3.88h-.862v-6.037c3.88-3.45 3.88-5.606 3.88-6.9v-.43l-3.88-.432c0-3.45 3.88-6.899 12.074-10.349v-.862h-3.881v.862c0 .863 0 3.019-1.294 3.019h-1.293l-.432-3.881h-1.293v.431c0 1.294-1.294 2.156-2.156 2.156l-2.156.431v-1.293c3.88-4.743 3.88-7.33 4.312-7.33l2.587.862 4.312-1.294c0 .431.862 1.294 1.294 1.294 3.018-6.037 3.88-9.487 3.88-9.487h.432v-.43c0 1.293-2.156.43-3.019.43h-.431c-.431 0-.862.863-.862 0-1.294 0-2.588 2.588-3.881 6.468l-.863.432-.862-1.725c6.468-10.35 10.349-16.817 10.349-18.542v-1.294.431c0 1.725-2.156 3.45-3.88 5.175l-2.588.431c2.587-7.33 3.018-12.074 6.9-13.367v-.862l2.155.43-1.725 3.882 3.881.43v5.175c0-1.293 3.45-2.156 3.881-2.156 0 .431-.431.863 0 .863 0-.863-.431-1.294-.431-3.019v-1.293 3.018l-3.45.431c0-.862 1.294-1.725 3.881-3.88l2.156.862 2.156-1.294c0 .431.431.863 1.294.863 0-1.294-.432-1.725-.432-3.019 0-4.743 3.019-7.33 6.037-7.33 0-1.294-3.45-2.156-3.45-2.156v-.863s.863-.43.863-1.293l2.156.862 1.294-.431v-1.294c0-1.293-.432-1.293 0-1.293l-.863-1.725c.431-.862.863-1.725.863-2.587v-.863l-5.175 3.019-1.725-1.294.432-1.725h-2.156c-1.294 0-2.588-.43-3.45-.862.862-6.468 3.018-9.486 5.174-9.918h-.43c0-1.293-.432-.862-1.294-.862h-1.725l-11.211 14.661v.862c0 1.294-.863 4.312-3.881 8.624l.862.863-1.724-.863-.863 1.725 1.725 3.881c-2.587 5.606-5.606 8.624-8.193 8.624l.431 1.725v.862c0 2.587-3.45 5.175-4.743 7.762l1.725 1.725c-2.156 1.724-3.45 4.743-4.312 9.486-1.725 0-2.587 4.312-3.45 7.762h-2.587.863v-.432c0 .863-1.294 1.294-2.156 1.294l-1.294.431-.431-1.725c1.293 0 2.587-2.156 3.45-6.036l.43-1.294-3.88 3.018v-.862c0-4.312 3.018-9.486 3.45-13.367h.862l1.293 4.312-.43 3.45c3.018-2.588 4.311-3.881 5.174-4.312l-1.294-3.019 2.587-3.88h-2.156l-1.725.862-1.293-3.881c1.293-.862 2.587-1.294 3.88-1.294l-1.293-4.312c6.037-8.192 9.918-14.23 11.211-17.679 6.037-9.486 12.936-25.44 21.129-43.982h2.156l-.431-1.293m-95.295 260.88l.431.862-.862 2.156c-1.294-.431-2.588-.862-3.45-.862v-.863c.431.432 1.725 0 3.88-1.293zm-.863-34.496l2.156-.431.432.862c0 1.294-1.725 2.587-4.744 3.018v-.862c0-1.294.863-1.725 1.725-2.156 0 .862.431 1.294 1.294 1.294zm-1.293 41.395h1.725l.43 1.725h-2.155zm4.743-60.8v1.726l-.862 1.724 2.156.863c-.432 3.018-1.725 4.312-2.588 4.743l-2.156.431c.863-6.037 3.45-9.486 3.45-9.486zm-1.294 55.626l3.45-.431.431 5.174-2.156.431c-.431-.431-.862-2.587-1.725-5.174zm5.606-81.928l2.156-.431c1.294 0 2.587.862 2.587 1.293l-1.725.431 1.725 6.468-1.725 1.294-.43-2.587h-2.588v3.88h1.725-.431 2.587v1.294c0 1.725-3.881 3.881-3.881 6.9v1.724l2.587-.431v-1.725c2.156 0 3.45 1.294 3.881 3.45-2.156 10.349-3.88 15.954-5.174 15.954l-1.294-1.725c1.725-1.725 2.587-5.174 3.45-10.349-.863-.862-1.294-1.725-1.294-3.45l-2.156 1.294-2.156-.862.431 1.724-1.725.432v-1.294c3.45-14.661 3.45-22.422 3.45-23.285zm-4.312 67.267l1.725-.431.431 2.587-1.725.431zm.431-5.175l2.156-.43v1.293c-.431.862-.431 1.293-.431 2.156v.431l-1.294.431zm3.019-22.422l1.724-.43-.43 4.742h-2.157zm.862-28.459v1.725h.862v-1.725zm.862 67.267l.432 1.725h1.293l-.431-1.725zm2.156-31.046v.863h2.156v-1.294zm0 2.156l.432.863c0 1.293.862 1.293 1.724 1.293h.432v-.862c0-1.294-.863-1.294-1.725-1.294zm2.588-58.212l.43 2.588h.863v-.432c0-1.293.431-2.156 1.725-2.156l.431 1.725c-.862 2.587-1.725 3.881-2.587 3.881l-.431-1.725h-.863v.431c0 1.294-.43 2.156-1.724 2.156 0-4.312.862-6.468 2.156-6.468zm-.432 4.744h1.294l.431 3.45-2.156.43v-.862c.431-.862.431-1.294.431-2.156zm-.862 42.689l.431 1.724.863-.43v-1.294zm1.294-28.028h.862c1.294 0 2.156.43 2.587 1.293-.862 2.587-1.725 3.881-2.587 3.881h-1.294v-.862zm0 21.56l.43 2.587h1.294v-.431c0-.863 0-1.294.432-2.156zm.862 54.762l.431 3.88 1.294-.43-.431-3.882zm6.9-115.56c1.293.43 3.018.862 3.018.862v.862s-2.588.432-2.588 1.294c.863 1.294 1.294 1.725 1.294 2.587-2.587 0-3.88 2.156-5.174 6.037 1.293 0 2.587.431 2.587 1.294v.862l-2.156.431-.431-1.725h-1.725v3.45-1.294c0-2.587 1.725-7.33 5.174-14.66zm-3.882 33.202l.432 3.018c-1.294 0-2.156-.862-2.588-1.725zm-2.156 21.56l.432 2.587h1.293l-.431-3.019zm2.156 39.239c0 .862-.43 1.293-.862 3.018l3.018-.431c-.862-1.294-1.293-1.725-1.293-2.587zm-.862 3.88l.431 1.725c.431 1.294 1.294 1.294 2.156 1.294h1.294c0-.863 0-1.294.431-3.019l-2.156-.43zm.431-65.11l2.156-.432.431 1.294h-2.156zm0 58.211l.431 1.294 2.156-.431-.43-.863zm.431-26.303l.432 1.725h.862v-1.725zm3.45 17.68l1.294 1.293-2.156 1.294c0-1.294-.863-1.725-2.156-1.725 0 .862-.432 1.293-.863 3.018 3.019 0 3.881.863 4.312 2.156-1.293.431-1.725 1.294-1.725 1.725v.431l3.019 1.294-.431-.863c-.863-1.293-.863-1.724-.863-2.587 1.294 0 2.156-.862 2.156-1.293v-.432c-3.88 0-2.587-.862-2.587-1.724l2.587-.432v-.862c0-1.294-.862-1.294-1.725-1.294zm-3.018-31.91l.43 1.725.863-.431V791zm.43 61.662l.432 4.312h.862l-.43-4.743zm1.726-87.965l1.293 1.294v.431c0 .863-.431 1.294-1.725 1.294l-1.293-1.725c0-.431.862-1.294 1.725-1.294zm-1.725 80.203l.431 3.881 1.294-.431-.432-3.45zm.862 14.661c-.431 3.45-.431 5.175-.431 5.606l.431 1.294.863-.432.43-4.312-.43-1.724zm.431-60.799l.432 2.588c1.293 0 2.156-.863 2.156-1.725zm.432-35.79h.862l.431 1.294-1.293.431zm0 70.286l.43 1.725h.863v-1.725zm.43 15.092l-.43 4.744 2.587.43v-.43c0-.432.431-.432.862-.432 0 .432.431.863.863.863V851.8c-1.294 0-2.156-.431-2.156-.862.43-1.294.43-2.156.43-3.019zm.863-3.018v1.725h1.294l-.431-1.725zm.431-93.57l2.156-.431c1.294 0 2.156.431 2.156 1.293-.43 1.294-.43 2.156-.43 3.019l-2.157.431zm2.156-18.542l1.294-.431.431 3.018-3.45.431v-1.293c0-.431.432-1.725 1.725-1.725zm-2.156 128.5l.432 3.45h1.293l-.431-3.881zm4.312-59.506v1.294c0 .862-.43 1.293-1.724 1.293l-.432-.862c.432-.431.863-1.725 2.156-1.725zm-.43-248.37l-.432-1.725m-.862 225.52l.43 1.725c1.294 0 1.726-.862 1.726-1.294v-.43zm1.724-52.175h.863c2.156.431 3.45.863 3.45 1.294-.863 3.018-2.157 4.312-3.45 4.743l-2.156.431v-1.293c0-1.294 1.293-2.156 3.88-2.588zm-.862 19.835h1.725l.431 5.175-3.018.43c.43-1.724 1.293-2.586 1.724-3.018l-1.293-1.293zm1.725 14.661h2.156v.863c-.863 1.293-1.294 2.587-1.294 4.312v.43l-2.156.432-.431-1.294c.862-2.156 1.725-4.312 1.725-4.743zm.862-23.716l3.019-.431.43.862c-.862 2.588-2.586 4.312-4.311 6.037l-.863.431v-1.293c1.725-1.725 2.588-3.881 2.588-4.743zm-.431 33.202v1.294c0 .862 0 1.725-.431 2.587l2.156-.431v-1.294c0-.862 0-1.725.431-2.587zm6.468-26.303l.862-.431c.863 0 1.725.862 2.588 2.587-2.156 3.881-4.744 5.606-4.744 6.037v-2.156l.432 1.294 1.293 1.293-2.587 9.055h-3.018c0-1.293 1.293-3.018 2.156-4.743l-3.881.431c0-.862 2.156-5.174 6.899-13.367zm-6.037 129.79l2.156-.431.431 1.725h-2.156zm.431-47l.432 3.88c1.293 0 1.724-.431 1.724-1.294v-2.156zm24.578-145.31v1.724c-12.074 18.973-16.386 28.459-16.386 28.459v-6.9l-.43.432c0 1.294-.432 3.45-2.157 6.9.863.862 1.294 1.293 1.294 3.018-3.019 4.312-3.881 8.192-3.881 8.192h-.862c-1.294 0-2.156-.43-2.588-2.156l12.936-26.303 3.45 1.294v-.431c0-.863-1.294-2.156-.431-2.156h-3.881v-1.725c4.743-7.33 9.055-10.349 12.936-10.349zm-23.285 50.45l2.156-.432.432 3.88-1.725.432zm.863 109.09l-.431 5.605 2.156.862c3.018-.862 4.312-2.156 4.312-4.312v-.431c-2.156 0-3.019 1.294-3.019 2.156v.431l-1.725.431-.43-4.312zm1.725-113.84l2.156-.432c1.293 0 2.156.862 2.156 1.294l.43 1.293-2.155-.862c0 1.293-.863 1.725-2.156 2.156zm2.156 31.477l2.156-.431.43 1.725c0 .862-.862 1.725-2.586 3.018l-1.294.431v-1.293c.862-1.294 1.294-3.019 1.294-3.45zm-.863 69.423v.863h.863c0-1.294.43-1.725 1.724-3.019l-1.293-1.725c.431-1.293.862-2.156.862-2.587-.862 0-1.725 2.156-2.156 6.468zm.863 8.624c0 .431-.432 1.294-.863 2.587h2.156l-.431-3.018zm.43-4.743l.432 3.88h.862v-1.293c0-1.293 0-1.725.432-2.587zm9.056-93.57h.862c-4.743 11.211-8.192 18.11-9.917 19.404l-.431-1.294c5.605-12.074 8.624-18.11 9.486-18.11zm-2.587-26.303l3.88-.431v.862c0 .863-2.155 1.725-4.311 4.312l.43 1.725v.431c0 .863-1.293 1.294-2.586 1.294 0-.431 2.587-.863-1.725-.863v1.294c0 3.018 0 4.312-1.725 4.743v-1.725c0-.862.431-1.293 1.294-1.293l-1.294-1.294-.431-1.293c0-.863 2.156-1.725 3.88-3.019 0 .431-2.587.863 1.725.863v-.863c-3.88-1.293-1.724-2.156-1.724-2.587zm-.863 18.973l-.43 3.88h1.293l-2.587 8.625h-2.156l.43-4.743h-.43v.43c0-5.605 3.018-8.192 3.88-8.192zm-5.174 86.671l.431 1.725 2.156-.431c0-1.294-.862-1.294-1.725-1.294zm0-106.08h.862l.432 1.294-1.294.43zm1.725 110.39l1.725-.431v-1.294c-1.294.863-1.725 1.294-1.725 1.725zm0-14.661l.431 3.88c0 1.294.862 1.294 1.725 1.294h.431c.862-1.724 1.294-3.45 1.294-4.743v-.862l-2.156 1.293-.432-2.587c-.43.863-1.293 1.294-1.293 1.725zm.431-46.138l2.156-.431.431 1.725h-2.156zm.862-3.45l2.156-.43v.862l-1.724.43zm1.294 25.01c1.725 0 2.587-3.018 3.45-8.624-1.725 0-2.588 2.156-3.45 8.624zm.431-74.598l2.156-.43.431 3.018h-2.156zm9.055 1.725c0 1.294.863 2.156 1.725 2.156h.431l.432 1.294-2.588-1.294-2.587 3.881 2.587.862c-.43.432-.43 1.294-.43 3.45v2.156l2.586-.431v1.725c-3.018 4.312-4.312 6.899-5.174 6.899l-.431-1.294 1.293-6.899c-1.724 0-3.45 3.88-4.743 11.642h-.862l.431-4.312-1.294-1.725c2.156-6.899 3.881-10.349 4.744-10.349l-1.294-3.88zm-9.055 87.534l.431 1.725h1.294l-.431-1.725zm.863 3.45v1.725h1.293l-.431-1.725zm1.293-7.762v1.725h1.294l-.431-1.725zm2.587-47h.863l.431 1.293c-.862 0-2.156 1.293-3.88 3.018v-2.156c.43 0 1.293-1.293 2.586-2.156zm-.862 21.128c0 1.294-.431 3.019-1.294 4.312v.863c.863 0 1.725-1.294 2.588-3.881l-.432-1.725zm-.431 33.634l-.863 1.725.432 1.294.862-.432v-.43c0-.863.431-1.294 1.725-1.294v-1.294zm.431-95.726h2.156v.863l-2.156.43zm.431 75.03v1.293l2.156-.431v-1.294zm.431-81.929h2.156v.863l-2.156.43zm3.45.863l.431 1.724-2.156.432c0-.432.431-1.725 1.725-2.156zm-1.725 62.093l.431 1.724.863-.43-.431-1.726zm.431 13.367v1.724l2.156-.43c1.294 0 1.725-.432 1.725-1.294v-.432c-.431 0-.862-.43-.862-.862-1.294 1.294-2.156 1.294-3.019 1.294zm.432 3.88l.43 2.588h.863c0-.863.431-1.294.863-3.019zm.43-83.653c1.294 0 2.157.432 2.588 1.294v1.294h-2.156zm.432 73.735l.431 1.725h2.156l-.431-1.725zm.431-75.89h1.294v1.293l-.863.431zm0 100.9l.431 1.724.863-.431v-1.725zm7.762-109.52v.862c-.431 2.587-1.294 4.312-2.587 4.312 0-.431-.432-.863-.863-.863 0 .863-.431 1.294-.862 3.019-1.294-.431-2.587-.863-3.019-.863 1.725-3.88 3.881-6.036 7.33-6.468zm-6.9 98.744l.432 3.881h.862l-.431-3.88zm1.294-31.909l.431 1.725h.432zm0 29.753l.431 1.294h.863l-.431-1.725zm.431-17.679c0 .863-.43 1.294-.862 1.294.862 1.294 1.294 2.156 1.294 3.88l2.156-.43-.432-2.588c0-1.724-.43-2.156-2.156-2.156zm0-14.66l.432 1.724 2.156-.431c-.863-.862-1.725-1.294-2.588-1.294zm1.294-4.313v1.294l3.018-.431v-1.294zm.862 15.954v.863l3.45-.431-.431-.863zm6.037-75.46l.863-.43-.432 4.742 1.294-.43c-.431 4.311-1.725 6.898-2.587 6.898 0-.43-1.294-.862-1.294-.862v.862c0 1.294-.431 2.156-1.725 2.156l-2.156.432c3.45-8.193 5.606-13.367 6.037-13.367zm-5.174 55.194l.431 1.725 2.156-.431-.431-1.725zm1.725 15.523l-.863 2.156.431 1.294h1.725c0-.862.431-1.294.863-3.018zm1.293-52.175h2.156l.431.863c-1.293 3.018-2.587 4.312-3.45 4.743l-.43-1.725c.862-1.725 1.293-3.018 1.293-3.88zm-1.293 34.065l.43 1.725h.863v-1.725zm.43-37.514l2.157-.43v1.293h-2.156zm6.038 23.716c-2.156 3.881-5.175 8.193-5.175 10.35v1.293s4.312-3.88 6.468-11.211l-.431-.431zm-3.881 19.404c0 1.294 0 1.725-.431 2.588v1.293l1.293-.431v-.431c0-.431 0-1.294.431-2.156v-1.294zm-.431 12.505l1.724-1.293.432 1.725 1.293-.432v-1.724l-1.293.43c.862-1.724 1.293-3.449 1.293-4.742v-1.294c-4.312 0-3.45 2.587-3.45 7.33zm2.587-94.433l.431.863c0 .862-.862 1.725-3.018 3.018v-1.293zm2.587 31.91l.431 1.724c-2.156 4.312-3.45 6.9-3.88 6.9l-.432-4.313c.863-.43 2.156-1.724 3.881-4.312zm-2.587 45.706l-.863 2.156.432 1.294h.862c0-1.294 0-2.587.431-3.88zm7.761-70.286h.863s1.293 2.588 2.587 3.881c-3.88 6.468-6.9 9.487-9.055 9.918 0 1.293 1.293 2.587 2.156 3.45-.431.862 0 1.293 0 2.155v-1.293h-2.587l-2.156.431.862-1.294-1.294-1.293 4.744-11.211c.862 0 1.724-1.294 2.587-4.743h-.431c-.432 0-.863.862-.863 0zm-7.761 38.808h2.156v.432c0 .862-.431 1.293-1.725 1.293zm3.88-20.698l3.019-.43.431 2.586c-.862 0-2.587 1.294-4.312 4.312l-.431-1.293c.862-2.587 1.294-3.881 1.294-5.175zm-1.724 23.285h1.293c1.294 0 1.725-.862 1.725-1.724h-1.293c-.863.43-1.725 1.724-1.725 1.724zm9.917 6.9c-2.587 8.624-4.312 12.936-6.468 13.367l.432-1.725c-1.294 0-1.294.862-1.294 1.293v1.725h-.431l-1.294 3.881 3.881 1.294c2.587-7.33 2.156-11.642 6.037-12.074v1.293c0-.862 3.88-2.156 3.88-4.743v-1.294c-3.88-1.293-2.155-2.156-2.155-3.88zm-8.624 3.88v1.725h1.294l-.431-1.725zm2.588-6.468c0 .863-.432 2.156-1.725 3.881l.431 1.294c.862 0 1.725-1.294 2.587-3.881l-.431-.862zm-.863 25.441l.431 1.725c1.294 0 1.725-.862 1.725-1.293v-.432zm.863-43.982l3.45-.43v1.724h-1.294c-1.725 0-2.156 0-2.156-1.294zm.43 27.597l.432 1.725.862-.431v-1.294zm.432-178.95l.431 1.294m.431 188.43v.862h2.156v-1.293zm.432-42.689l.43 1.725h.863V690.1zm.43-46.138c.432 1.294 1.294 1.725 2.588 1.725l-.431-1.725zm.432 34.065v.862l2.156-.43-.431-.863zm1.294 24.147v.862c0 1.294-.432 2.588-1.294 3.881v1.294c1.294 0 2.587-2.156 3.45-6.037zm1.293-37.083h.863l.43 1.725-3.018.431c0-1.725.432-2.156 1.725-2.156zm-1.293 65.974v1.294l2.156-.432v-.862zm.43-92.708l.432 2.587c1.294 0 2.156-1.293 2.587-3.88-1.293.862-2.156 1.293-3.018 1.293zm0 106.51l.432 1.725h.862v-1.725zm2.588-83.653l1.294-.431.43 1.725-3.449.43c0-1.293.431-1.724 1.725-1.724zm0 58.643v1.725c0 .862-.431 1.293-1.725 1.293l-.431-1.293c.431-.431 1.294-1.725 2.156-1.725zm0-21.991v1.725c1.294 0 1.725-.431 1.725-1.294v-.431zm1.294-12.505v1.725l1.293-.431-.431-1.725zm0 20.698v1.725l1.293-.431-.431-1.294zm0 29.322h1.293c1.294 0 1.725-.862 1.725-2.156l-.431-.862c-.863 0-1.725.862-2.587 3.018zm.43-43.551v.862h2.157V691.4zm1.726-6.037l1.293 1.725v.862l-2.156.432.431 1.724 2.156-.43.432-4.313zm0 20.698l.43 1.725c1.726-1.294 3.02-2.156 4.313-2.156-.863-1.294-1.294-1.725-1.294-2.587.431-.863.431-1.294.431-2.156v-.431c.432-.863-2.156 1.293-3.88 5.605zm.43-6.468l.432 1.725h.862v-1.725zm3.882-44.414v.863c0 1.293.43 3.018-.863 6.899h5.175v-1.294c0-1.293.862-2.587 2.156-3.018 0 .431.43.431.862.431h.431s1.294-.431 1.725-.431l-.431-1.294v-.862l.431 2.156h1.294l-.863-1.725zm0 25.441l.43.863h2.157l-.431-1.294zm.862 14.661l.431 2.587h1.294l-.431-2.587zm6.468-68.992c0 1.725.862 3.019 2.156 3.019h.431l.431 2.156c-.862 0-3.018 1.293-3.88 3.45 0-.863-1.725-.863-1.725-.863v1.293c0 1.725.862 5.606 0 5.606h-2.156c2.156-8.193 3.88-14.661 4.743-14.661zm-.862 40.964c-2.156 5.175-3.45 8.193-3.45 8.624 3.45-3.018 4.743-5.605 4.743-8.193v-.862zm9.055 9.055c-.431.863-.431 1.294-.431 2.156s0 1.294.43 2.156l-3.88.432-.431-2.588-3.019.432v1.724l-2.156.432h-2.156c.432 0 0 .862 3.881.862v-1.294 1.725l-1.725 2.156h.432c1.293 0 3.88.431 7.33.863l-1.294-1.294-.43-1.294 2.586.863c1.725-3.881 2.588-6.037 2.588-6.9zm-10.78 21.991v1.294c.862 0 2.156-1.294 3.018-3.018h-1.293c-.863.862-1.725.862-1.725 1.724zm.862 8.193v1.294l3.45-.431-.431-1.725c-1.294.431-2.156.862-3.019.862zm2.156-67.267l.431 1.725-2.156.431c0-1.725.432-2.156 1.725-2.156zm4.312 15.954v.863c0 2.156 0 3.45-3.88 3.88v.863l1.293 1.725c-1.294.43-1.294.862-1.294 1.293v-1.293h2.156s2.156-2.156 6.037-6.9v-.862zm-1.293-22.422h.862v1.294c0 2.587-1.294 3.88-3.45 5.174h-1.293v-1.293l1.725-.432-1.294-1.724c1.294-1.294 1.725-2.156 3.45-3.019zm-1.725 39.24l.431 2.586h.862c0-.862.432-1.293.863-3.018zm0-25.873l2.156-.431v.862l-1.725.432zm7.761 1.725c0 1.725-.43 2.587-1.724 2.587-.863-.431-1.725-.431-3.019-.431h-1.293c0 .862 1.293 1.294 3.45 2.156l3.018-.431c0-.863.43-2.156 1.724-3.881v-.862zm-5.605 28.89v.862l.862-.862v-.431c0-1.294 1.725-2.587 4.312-6.468h-.862c-1.294 0-3.019 2.156-4.312 6.899zm.862 18.11l-.431 1.725v1.725c.862 0 1.725-1.294 2.587-3.019zm0-83.653l3.019-.431 5.174-10.35v-1.293l-3.018.431c-3.45 3.019-5.175 6.468-5.175 10.35zm1.725 8.624l.431 3.45c.863 0 2.156-1.294 3.019-3.019l-.432-1.725c-1.293.432-2.156 1.294-3.018 1.294zm10.349 34.065l.431 1.294v1.724l-3.018.863c.431-1.294 1.725-2.156 1.725-2.156h-.863l-3.018 1.725-.431-1.725h-.863s-.431 2.156-1.293 4.312c1.293 0 2.156.431 2.156 1.293l-1.725 3.019.431 1.725 2.587 2.587v1.293c-3.88 0-3.45 1.294-3.45 2.156.863 1.294.863 2.588 1.294 2.588h2.156v-.432c0-1.724 0-6.468 8.193-14.23v-.43c0-1.294-.431-2.588.862-4.313-.862 0-1.724-.431-1.724-1.293.43 0 0-.432 0-.863zm-2.587-63.386l-3.881 7.33 3.018-.43c1.294 0 2.588-2.157 3.45-6.9zm-3.019 18.542c1.294 3.88 2.588 6.037 3.881 6.037h.431v-.863l-2.587-2.156c.431-.862.431-1.293.431-2.156v-.43h-2.156zm2.156 51.744l.863-.431v.431c0 .431-.431.862-.863.862l1.294 1.725.431.863-3.45.43v-1.724c0-1.294.432-2.156 1.725-2.156zm.863-59.506l1.293 1.725-3.018.431.431 2.587c.863 0 2.587.431 3.881 1.294 0-.431.431-3.019 1.294-7.33-.863 1.293-2.156 1.293-3.881 1.293zm-.863 16.386v1.294l2.156-.432-.43-1.293zm0 21.991l.432 1.725h1.293l-.431-1.725zm0 36.652v1.725l2.156-.431-.43-1.725zm1.725-56.056l.431 2.587h1.294c0-.862 0-1.293.431-3.018zm3.45 6.037l-3.019 10.349 3.45-2.156c0 .431 2.156.862 2.156.862v-1.293c0-2.156-.431-4.312.431-6.9zm-1.294-8.624l2.156-.431v-1.725c-1.725.431-2.156 1.293-2.156 2.156zm2.587-37.946l.432.862c1.293 0 1.724-.862 1.724-1.725l-.43-1.293c-.863 1.293-1.726 1.725-1.726 2.156zm.863 25.872c.862.862 1.293 1.725 1.293 3.45h1.294l1.725-1.294c0 .431.431.862 1.293.862v-.431c0-1.294.863-2.587 2.588-2.587l-.432-2.587h-1.293l-3.019 2.156-.43-1.725zm.431 4.312c.862.862 1.294 1.725 1.294 3.45 3.88-1.294 5.174-3.019 5.174-3.881v-.432l-.862.432c-.863 0-1.294.43-1.294 1.293l-2.156-.862zm2.156 48.726v.862c0 1.294-.431 3.019-1.294 4.743v1.294l1.294-.431v-.431c0-1.294.431-2.156 1.294-4.312l-.432-1.725zm-1.294-40.533v1.293h1.294l-.431-1.724zm-.862 29.753h1.725c2.156-3.881 2.587-6.468 2.587-7.33zm1.294-56.056c1.293 0 1.724-.863 1.724-1.294v-1.293c-1.293.43-1.724 1.293-1.724 1.724zm1.724 25.872v.862h2.156v-.862zm.432-15.092l4.743-.431c0-.432.431-1.294.862-2.588l-3.88.432c-1.294.43-1.725 1.293-1.725 1.724zm0-18.11l2.156.431.862-1.725-.431-.862h-.863c-.862 0-1.724.862-1.724 2.156zm0 11.642l2.156-.431v-1.725c-1.294.431-2.156 1.293-2.156 2.156zm1.724 35.358l.432 1.725h.862l-.431-1.725zm13.367-40.964c-8.192 15.523-12.074 24.147-12.074 25.44 5.606-8.192 9.918-16.385 13.798-24.577v-1.294zm-10.349 40.102l.432 1.725.862-.432-.431-1.724zm1.725-135.4l.431.862 2.156-.431-.43-.862zm0 135.83l.431 1.293h.863v-1.724zm1.294-50.02l.431 1.726.862-.432v-1.293zm.862-10.348l.431 3.018 2.156-1.293.863-.432 2.587.863-.431-1.725-1.294-1.294c-1.725.432-3.45.863-4.312.863zm.431 50.019l.432.862c.862 1.294 1.293 1.725 1.293 2.587 1.294 0 1.725-.862 1.725-1.293v-.431h-.431c-.863 0-1.294-.432-1.294-1.294zm3.019-2.156l.431 2.587c1.294-.862 2.156-1.294 3.018-1.294l-.43-1.724zm1.725-33.202l.43 1.725h.863v-1.725zm4.312-3.45c-1.725 3.881-2.588 6.037-2.588 6.9.863 0 2.156-1.725 3.45-6.037v-.863zm-1.725 30.184l.431 1.725c1.294 0 1.725-.862 1.725-2.156zm4.743-13.367v1.294l2.156-.431v-1.294zm.431-23.716l.431 1.725.863-.431-.431-1.294zm2.156 18.11l.431 1.294c1.294 0 1.725-.431 1.725-1.294v-.431zm12.936-13.798l.431.863 2.156-.432-.43-.862zm3.019-5.605l2.156-.432-.432-1.293c-1.293-.431-1.724.431-1.724 1.725zm3.45-10.78l.43 1.724.863-.43V562.9z"/></g><g id="one"><path id="one_left" fill="url(#gradient_one_left)" d="M1422.7 654.73c6.9 2.587 10.78 4.743 10.78 6.9.862 0 2.156 0 3.45-.863 2.587 1.293 4.743 2.587 6.899 2.587h2.156l14.23-18.11-.431-.431c.862 0 1.724-3.881 2.587-7.33v.862l-.863 2.156 1.725 1.293c.863-1.293 1.725-1.724 2.587-3.018.863-4.743 3.019-7.762 6.468-8.624 3.45-4.312 6.468-8.624 9.918-12.936 3.88-15.092 6.468-22.422 8.624-22.422 0-.862-.431-.431-1.294-.431 1.725-5.175 2.588-9.055 2.588-9.055h2.587s.431-1.294 1.293-3.019l-1.293-1.725c0-2.156.862-3.018 2.587-3.018 0-.862-.431-1.294-1.294-1.294 2.156-5.174 3.881-7.33 6.037-7.33l-1.293 5.174c.862 1.294 1.293 3.881 1.293 3.881h-3.45s.432 3.019 1.294 3.881l-6.037 12.505c0 .431 0 1.294.432 1.725.862-1.294 1.724-3.45 2.587-4.743s2.156-2.588 3.018-3.881v-.431c.863-1.294 1.294-2.588 1.294-3.019h1.293v.431c.432-.862 1.294-1.293 1.725-2.156v-3.45s.863.863 1.725 1.294c.431-.43.862-1.293 1.294-1.293v-.431h.43c6.469-8.193 13.799-16.386 20.267-25.01 0-1.294-.431-2.156-1.294-3.019 2.156 0 3.881-1.725 5.606-9.486h.431v-.431l2.156-3.019-1.294-2.156 5.606-9.917-4.312 15.523h-1.725v6.036c2.156-2.587 3.881-5.174 5.175-7.761 1.293-1.725 3.018-3.881 3.88-5.606h-1.293v-.431l.431-3.45h-1.294c1.725-3.88 2.588-3.88 2.588-7.33h2.587v2.156c0 1.294-2.156 2.587-2.156 4.312l1.293 1.725c-.862 0-1.293 1.293-1.724 2.587 1.293-1.294 2.587-2.156 3.88-3.018 1.725-4.312 3.45-8.193 4.312-10.35 0-.862.432-1.724-.43-3.018 1.724 0 3.018-.862 3.018-2.156v-2.156l-1.725-2.156c.862 0 1.293-3.018 1.725-8.624 0-1.293-.863-3.45-2.588-5.605-.862 0-2.156.862-3.45.862h-2.586v-.431l1.724-5.606-25.01-17.679-2.587 1.294c0-.863-1.293-1.725-4.312-3.45h-3.018c-4.312 3.019-8.624 13.367-16.817 31.91v4.311h-.863s-.862 4.743-2.587 9.487c0 1.724-5.174 6.899-13.367 16.817v5.605c-3.88 5.175-5.174 9.918-5.174 9.918h1.293c.863 0 3.019-1.725 5.606-6.037-.862 5.606-3.45 12.074-6.9 18.11l1.294 3.018-12.074 21.991h.432v-2.587c1.293-2.587 2.587-4.312 3.88-6.468-3.88 0-1.724.431-1.724-.431l-3.45 1.725h-3.018v-3.881c-3.881 4.312-6.468 7.33-7.762 7.33h-1.294c0-3.88.863-6.899 4.744-10.349v-2.156l-2.588 1.294h-2.587l-3.45-.431-3.88 5.174v2.156h3.018s.863-2.156 2.587-3.88l2.588 1.293c-1.725 3.018-2.156 4.312-3.019 4.312-3.018 7.762-8.624 11.642-8.624 11.642v-2.156h-3.45c-16.385 22.422-29.321 35.358-33.633 41.826v3.88c0 1.294 0 2.157 1.724 2.157l-1.724 2.156v1.293c16.817 8.193 21.99 12.936 21.99 14.661zm106.51-124.62h1.294v2.156h-1.294zm-18.542 40.533h-1.294v-3.018h1.294zm12.074-36.221h-1.294v-2.156h1.294zm2.156-13.367h1.294v2.156h-1.294zm-4.743 9.055h2.587v1.294h-2.587zm-6.9 2.156h1.294v2.156h-1.293zm-2.587 7.33l2.588.432h1.293c1.725 0 3.019 0 3.45-3.881h3.88c-2.587 7.33-3.88 10.349-3.88 11.642-.863 0-1.294-.431-1.294-1.294l-5.174 3.45v-6.468h-2.156c.862.431 1.293-3.018 1.293-3.88zm-3.018 9.918c3.018.863 4.312 1.725 4.312 5.606h3.88c0 1.725-1.724 3.88-2.586 7.33h1.293c-1.725 0-2.587 3.019-2.587 4.312-3.018-1.293-4.312-4.312-4.312-4.312h-1.294l-1.293 4.312c-1.725 0-3.019-3.018-3.45-8.624.863 0 1.294.431 1.294 1.294 1.293-.431 3.018-3.881 4.743-9.918zm-8.193-13.367h2.587v.863h-2.587zm-4.312 21.991c3.881-1.293 3.881-6.899 5.175-14.23h2.587c-3.881 11.211-6.037 18.542-6.037 18.542h-1.725zm-2.587 10.35h1.294v2.155h-1.294zm-34.927 35.357h-1.294v-2.156h1.294zm0-3.018h-1.294v-2.156h3.45c.431.862-.431 2.156-2.156 2.156zm11.642 28.459v-1.294l1.294-2.156c1.724 0 2.587.863 2.587 2.156l-3.881 1.294zm-1.294-8.624v-2.587h1.294v2.156zm7.33 2.156c0-3.45 1.294-5.606 3.45-6.037-.43 3.45-1.293 5.606-3.45 6.037zm6.9-12.936c-2.587 0-3.45.862-3.45 2.156h-1.293c.862-1.294 1.293-2.587 1.293-3.019h3.45zm5.606-29.753c1.724-1.725 2.587-3.019 2.587-4.312h1.293v4.312c0 1.293-.862 2.156-2.587 2.156h-1.293zm0 3.45h2.587v.862h-2.587zm-1.294 2.155c1.725 0 2.587.863 2.587 2.156v.863c-1.293 0-2.156-.863-2.587-2.156zm-1.294 4.312h2.588v3.019c-1.294 0-2.156-.863-2.588-2.156zm0 3.45h1.294v3.45h-1.294zm-3.018 6.037h.862c0 1.293-.43 1.725-1.724 1.725l1.724 2.156v1.293c-3.88 0-5.174 2.587-7.761 6.468h-1.294c3.45-7.761 6.037-11.642 8.193-11.642zm-10.78 18.542l1.294-2.156 2.587 1.293c-1.294 2.156-2.587 3.019-3.881 3.019zm1.294 4.312l2.156.862h-.432l.432 2.156v.863h-1.294s-.862-3.881-2.587-3.881zm-4.744-44.414h2.588v2.156h-2.588zm-2.156 3.45h3.45c-3.018 3.88-4.312 7.33-4.312 7.33h2.156l-3.45 4.312c-3.018.431-4.312 2.587-4.312 2.587h-.43c3.449-6.9 6.898-10.78 6.898-14.23zm-4.312-3.45h1.294v2.156h-1.294zm-3.88 3.45h1.293s.431 1.293 1.294 2.587l-2.156 1.724v1.294l-1.725 1.725h-3.88c3.88-5.175 5.174-7.33 5.174-7.33zm-15.523 10.78c0-.863 1.724-3.019 4.743-7.331-.863 0-.863-.431-.863-1.294 2.588 0 3.019-.862 3.019-2.156 1.725 0 1.725.863 1.725 2.156v.863s-4.312 3.88-6.468 7.761zm-9.918 8.623v.863c-3.018 3.45-4.743 5.174-6.037 5.174h-1.293c4.743-3.88 6.468-6.037 7.33-6.037z"/><path id="one_middle" fill="url(#gradient_one_middle)" d="M1450.7 675v-.862h2.587V675zm101.76-174.64c0-1.294-.862-3.45-2.587-5.606-.863 0-2.156.863-3.45.863h-2.587v-.431l1.725-5.606-25.01-17.248-2.587 1.294c0-.863-1.294-1.725-4.312-3.45h-2.156c-4.312 3.018-8.624 13.367-16.817 31.909v5.174h-.863s-.862 4.744-2.587 9.487c0 1.293-3.88 5.605-10.349 12.505-.431 1.725-.862 3.45-1.725 5.174-2.156 4.312-3.88 9.487-5.605 13.798h.43c.863 0 3.02-1.725 5.606-6.037-.862 5.606-3.45 12.074-6.899 18.11l1.294 3.019-12.074 21.99-2.587 9.056c3.45-5.606 5.605-9.486 5.605-12.505h3.45c-3.019 3.88-4.312 7.33-4.312 7.33h2.156l-3.45 4.312c-2.156.432-3.018 1.725-3.88 2.588 0 1.293-.432 0-.432 3.88h.863s-.432.863-1.294 1.294c-3.018 21.129-6.9 41.395-12.074 62.093h.431c0 3.88.431 3.88 1.294 3.88h-.863c0 3.882.863 6.469 1.725 12.506l1.725.862v-6.037h.431c.431-.862-.431-1.293 3.881-1.293v6.037l3.88 1.293c-.862 3.881-.43 8.624-.43 8.624h-1.294l-2.587-5.605v2.156h-2.587c-1.725 4.312-5.175 38.377-5.606 45.276 0 0 34.065-17.248 36.652-18.542 3.88-7.33 18.542 2.587 7.762-23.285.43-.432-5.606-.863-5.606-.863 6.037 0-3.88-1.725.431-3.88h1.725v-6.469h.862c0 3.881.432 5.175 1.294 8.193-.431-1.293.431-1.293.431-2.587 1.725-.431 2.156-.431 6.037-.862v-1.294l.431-2.156c-.862 0-1.725-.431-1.725-1.294 3.45 0 5.606-6.036 8.193-17.679-.862 0-.862-.43-.862-1.293 1.725 0 2.587-.863 2.587-2.156v-.863h.431c4.312-18.542 8.193-28.89 10.35-28.89 0-1.293-.863-2.156-2.588-2.156 2.587-3.45 3.45-6.468 3.45-9.055-1.725-.862-3.881-1.293-3.881-1.293v3.45h.431c0 3.88-2.156 3.018-5.606 3.88l1.294 5.606c-1.294.862-2.156 1.293-3.018 1.293l.43-1.293c-.862 0-2.155-2.156-2.155-2.156h-2.587c0 3.88-1.294 3.45-5.175 3.45v-1.294c3.881-2.156 4.743-6.037 5.175-9.487h3.018v1.294l-2.156 3.88c.862 0 1.725.432 3.018 1.294 2.588-7.33 3.881-12.505 5.175-15.092l-1.294-1.293c2.587-1.725 4.743-8.624 7.762-19.835h3.45v3.88h1.724l1.294-7.33h-3.019v1.725c0-.863-3.88-1.294-3.88-1.294v-3.018c3.88-2.156 3.018-3.881 3.88-3.881 1.725 0 3.019 2.587 3.019 2.587h1.293s1.294-3.88 3.45-7.33h.862v2.156c0 5.174-3.88 9.055-3.88 12.505h3.88c3.881-11.211 6.9-25.441 10.35-39.67.43 0 .862.431 1.293.431 3.88-15.092 7.762-25.441 10.78-31.046 0-.862.431-1.725-.431-3.018 1.725 0 3.018-.863 3.018-2.156v-1.725l-1.725-2.156s.432-3.019.863-8.624zm-101.76 181.1c2.156 0 3.88 1.294 3.88 1.725v-1.725zm65.111-72.01v1.725h.862l2.588-1.294-1.294-1.293 1.294-1.294h-1.294l2.587-4.743c-1.725 0-2.587-2.156-2.587-5.606-1.294.863-2.587.863-3.45.863 0 1.293.432 1.724 2.156 1.724l-5.174 6.037v8.624c0-1.293.431-3.018.431-6.037.431.432 1.294 1.294 3.881 1.294z"/><path id="one_bottom" fill="url(#gradient_one_bottom)" d="M1536.1 702.17v-2.156c-12.074 0-23.716.862-39.239 4.312h-1.725v-1.294c3.881-.43 5.606-1.293 5.606-3.018.862 0 2.156.431 3.45 1.294l11.641-3.45v1.294c3.881-1.294 8.193-2.156 12.074-2.156v-1.294l-.862-1.725c-1.725 0-9.486-.431-24.147 3.45h-3.88l4.311-3.881h-1.293l-7.762-6.9v-1.293s1.725.863 1.725-3.018h-1.294l-.431 1.725v-.863c-3.88.431-5.174.863-6.9 1.294 0 .862-1.293 1.725-1.293 3.018v1.294s-.431-.431-.431-1.294l-.431-2.587c-.863 0-1.294 0-2.156.431-4.743 1.725-10.35 3.45-16.386 3.45h-.431l-.863.862c-2.587 1.294-4.743 2.587-7.761 3.881-3.45 1.294-6.9 3.018-11.211 3.88-1.294.863-4.744 3.882-14.661 6.469-24.147 9.055-35.79 13.798-35.79 15.092v1.293c0 6.9 3.88 13.367 12.936 20.266l1.724-1.293c3.019 3.88 4.312 6.899 4.312 7.33 1.725 0 2.156-.862 2.156-2.156 9.487 3.881 17.248 6.468 22.854 6.468 0 .863-.43 1.294-1.293 1.294 0 1.293.862 2.156 2.587 2.156 13.367-3.881 23.716-7.33 28.459-10.78l-.431-2.156v-3.019s3.88-1.293 12.074-3.88v1.293h2.587l1.725-.431v.431h4.312-2.587l.43-2.156 1.726.863v-3.881h4.743l-2.587-3.019c1.724 0 3.45-.862 4.743-.862h1.293l-1.293 3.88h1.293c1.725 0 2.588-1.293 2.588-2.586l-2.156-2.156c-1.294 0-8.624 1.293-20.698 5.174v-2.156c3.88 0 6.468-1.294 6.468-3.018.862 0 1.293.43 3.018 1.293 9.055-3.45 18.973-6.037 27.166-7.33v-2.156 1.293-2.587h3.45-1.294 3.88l-1.724-.862v-1.294c8.193-1.293 10.78-1.725 10.78-5.605h-9.055s-1.294-1.294-3.881-1.294c1.294-3.45 7.762-4.743 19.835-5.174zm-50.882 28.028h3.45v1.294c-.863 0-2.156.43-3.45 1.293zm-7.762.862v-2.156h2.588c-.432 1.725-1.294 2.156-2.588 2.156zm25.441-20.698c-1.293 0-2.156-.862-2.587-2.156h1.294c1.725 0 2.587.863 2.587 2.156zm18.542 8.624l-.862-2.156c4.312-2.156 9.486-3.88 16.386-3.88 0 1.293-1.294 2.156-5.174 3.018v-1.294c-3.881.432-6.9 2.156-10.35 4.312z"/></g></symbol><g id="gradients-animations"><g id="gradient_x"><linearGradient id="gradient_x_left" x1="100%" y1="100%" x2="0%" y2="0%"><stop class="gradient-color" offset="100" stop-color="hsla(27deg, 72%, 59%, 1)" stop-opacity="0"><animate id="animation_x_left" class="character-animation" attributeName="offset" values="1; 0" dur=".2" begin="0; logo_background.click" fill="freeze"/></stop><stop class="gradient-color" offset="0" stop-color="hsla(27deg, 72%, 59%, 1)" stop-opacity="1"/></linearGradient><linearGradient id="gradient_x_right" x1="0%" y1="100%" x2="0%" y2="0%"><stop class="gradient-color" offset="100" stop-color="hsla(27deg, 72%, 59%, 1)" stop-opacity="0"><animate id="animation_x_right" class="character-animation" attributeName="offset" values="1; 0" dur=".2" fill="freeze" begin="animation_x_left.end"/></stop><stop class="gradient-color" offset="0" stop-color="hsla(27deg, 72%, 59%, 1)" stop-opacity="1"/></linearGradient></g><g id="gradient_e"><linearGradient id="gradient_e_left" x1="50%" y1="100%" x2="50%" y2="0%"><stop class="gradient-color" offset="100" stop-color="hsla(27deg, 72%, 59%, 1)" stop-opacity="0"><animate id="animation_e_left" class="character-animation" attributeName="offset" values="1; 0" dur=".2" begin="animation_x_right.end" fill="freeze"/></stop><stop class="gradient-color" offset="0" stop-color="hsla(27deg, 72%, 59%, 1)" stop-opacity="1"/></linearGradient><linearGradient id="gradient_e_bottom" x1="0%" y1="50%" x2="100%" y2="50%"><stop class="gradient-color" offset="100" stop-color="hsla(27deg, 72%, 59%, 1)" stop-opacity="0"><animate id="animation_e_bottom" class="character-animation" attributeName="offset" values="1; 0" dur=".2" begin="animation_e_left.end" fill="freeze"/></stop><stop class="gradient-color" offset="0" stop-color="hsla(27deg, 72%, 59%, 1)" stop-opacity="1"/></linearGradient><linearGradient id="gradient_e_middle" x1="0%" y1="50%" x2="100%" y2="50%"><stop class="gradient-color" offset="100" stop-color="hsla(27deg, 72%, 59%, 1)" stop-opacity="0"><animate id="animation_e_middle" class="character-animation" attributeName="offset" values="1; 0" dur=".2" begin="animation_e_bottom.end" fill="freeze"/></stop><stop class="gradient-color" offset="0" stop-color="hsla(27deg, 72%, 59%, 1)" stop-opacity="1"/></linearGradient><linearGradient id="gradient_e_top" x1="0%" y1="50%" x2="100%" y2="50%"><stop class="gradient-color" offset="100" stop-color="hsla(27deg, 72%, 59%, 1)" stop-opacity="0"><animate id="animation_e_top" class="character-animation" attributeName="offset" values="1; 0" dur=".2" begin="animation_e_middle.end" fill="freeze"/></stop><stop class="gradient-color" offset="0" stop-color="hsla(27deg, 72%, 59%, 1)" stop-opacity="1"/></linearGradient></g><g id="gradient_h"><linearGradient id="gradient_h_left" x1="50%" y1="100%" x2="50%" y2="0%"><stop class="gradient-color" offset="100" stop-color="hsla(27deg, 72%, 59%, 1)" stop-opacity="0"><animate id="animation_h_left" class="character-animation" attributeName="offset" values="1; 0" dur=".2" begin="animation_e_top.end" fill="freeze"/></stop><stop class="gradient-color" offset="0" stop-color="hsla(27deg, 72%, 59%, 1)" stop-opacity="1"/></linearGradient><linearGradient id="gradient_h_middle" x1="100%" y1="50%" x2="0%" y2="50%"><stop class="gradient-color" offset="100" stop-color="hsla(27deg, 72%, 59%, 1)" stop-opacity="0"><animate id="animation_h_middle" class="character-animation" attributeName="offset" values="1; 0" dur=".2" begin="animation_h_left.end" fill="freeze"/></stop><stop class="gradient-color" offset="0" stop-color="hsla(27deg, 72%, 59%, 1)" stop-opacity="1"/></linearGradient><linearGradient id="gradient_h_right" x1="50%" y1="100%" x2="50%" y2="0%"><stop class="gradient-color" offset="100" stop-color="hsla(27deg, 72%, 59%, 1)" stop-opacity="0"><animate id="animation_h_right" class="character-animation" attributeName="offset" values="1; 0" dur=".2" begin="animation_h_middle.end" fill="freeze"/></stop><stop class="gradient-color" offset="0" stop-color="hsla(27deg, 72%, 59%, 1)" stop-opacity="1"/></linearGradient></g><g id="gradient_o"><linearGradient id="gradient_o_left" x1="50%" y1="100%" x2="50%" y2="0%"><stop class="gradient-color" offset="100" stop-color="hsla(27deg, 72%, 59%, 1)" stop-opacity="0"><animate id="animation_o_left" class="character-animation" attributeName="offset" values="1; 0" dur=".2" begin="animation_h_right.end" fill="freeze"/></stop><stop class="gradient-color" offset="0" stop-color="hsla(27deg, 72%, 59%, 1)" stop-opacity="1"/></linearGradient><linearGradient id="gradient_o_right" x1="50%" y1="0%" x2="50%" y2="100%"><stop class="gradient-color" offset="100" stop-color="hsla(27deg, 72%, 59%, 1)" stop-opacity="0"><animate id="animation_o_right" class="character-animation" attributeName="offset" values="1; 0" dur=".2" begin="animation_o_left.end" fill="freeze"/></stop><stop class="gradient-color" offset="0" stop-color="hsla(27deg, 72%, 59%, 1)" stop-opacity="1"/></linearGradient></g><g id="gradient_nine"><linearGradient id="gradient_nine_left" x1="50%" y1="100%" x2="50%" y2="0%"><stop class="gradient-color" offset="100" stop-color="hsla(27deg, 72%, 59%, 1)" stop-opacity="0"><animate id="animation_nine_left" class="character-animation" attributeName="offset" values="1; 0" dur=".2" begin="animation_o_right.end" fill="freeze"/></stop><stop class="gradient-color" offset="0" stop-color="hsla(27deg, 72%, 59%, 1)" stop-opacity="1"/></linearGradient><linearGradient id="gradient_nine_right" x1="50%" y1="100%" x2="50%" y2="0%"><stop class="gradient-color" offset="100" stop-color="hsla(27deg, 72%, 59%, 1)" stop-opacity="0"><animate id="animation_nine_right" class="character-animation" attributeName="offset" values="1; 0" dur=".2" begin="animation_nine_left.end" fill="freeze"/></stop><stop class="gradient-color" offset="0" stop-color="hsla(27deg, 72%, 59%, 1)" stop-opacity="1"/></linearGradient></g><g id="gradient_one"><linearGradient id="gradient_one_left" x1="100%" y1="0%" x2="0%" y2="100%"><stop class="gradient-color" offset="100" stop-color="hsla(27deg, 72%, 59%, 1)" stop-opacity="0"><animate id="animation_one_left" class="character-animation" attributeName="offset" values="1; 0" dur=".2" begin="animation_nine_right.end" fill="freeze"/></stop><stop class="gradient-color" offset="0" stop-color="hsla(27deg, 72%, 59%, 1)" stop-opacity="1"/></linearGradient><linearGradient id="gradient_one_middle" x1="50%" y1="100%" x2="50%" y2="0%"><stop class="gradient-color" offset="100" stop-color="hsla(27deg, 72%, 59%, 1)" stop-opacity="0"><animate id="animation_one_middle" class="character-animation" attributeName="offset" values="1; 0" dur=".2" begin="animation_one_left.end" fill="freeze"/></stop><stop class="gradient-color" offset="0" stop-color="hsla(27deg, 72%, 59%, 1)" stop-opacity="1"/></linearGradient><linearGradient id="gradient_one_bottom" x1="100%" y1="50%" x2="0%" y2="50%"><stop class="gradient-color" offset="100" stop-color="hsla(27deg, 72%, 59%, 1)" stop-opacity="0"><animate id="animation_one_bottom" class="character-animation" attributeName="offset" values="1; 0" dur=".2" begin="animation_one_middle.end" fill="freeze"/></stop><stop class="gradient-color" offset="0" stop-color="hsla(27deg, 72%, 59%, 1)" stop-opacity="1"/></linearGradient></g></g></defs><use href="#logo_background"/><use href="#logo_logomark"/></svg>